<svg width="800" height="800" viewBox="0 0 800 800" fill="none" xmlns="http://www.w3.org/2000/svg">
<path d="M652.058 228.333C659.681 184.841 626.211 145 582.058 145H217.931C173.776 145 140.309 184.841 147.929 228.333" stroke="#474BFF" stroke-width="64"/>
<path d="M583.33 146.997C584.277 138.361 584.75 134.042 584.757 130.476C584.833 96.3547 559.13 67.6854 525.203 64.0447C521.657 63.6641 517.313 63.6641 508.627 63.6641H291.366C282.678 63.6641 278.334 63.6641 274.787 64.0447C240.861 67.6854 215.16 96.3547 215.235 130.475C215.242 134.042 215.715 138.361 216.661 146.997" stroke="#474BFF" stroke-width="64"/>
<path d="M500 600H300" stroke="#474BFF" stroke-width="80" stroke-linecap="round"/>
<path d="M79.4477 459.769C64.5801 354.316 57.1464 301.591 88.7414 267.464C120.336 233.336 176.583 233.336 289.077 233.336H510.917C623.411 233.336 679.657 233.336 711.254 267.464C742.847 301.591 735.414 354.316 720.547 459.769L706.447 559.769C694.787 642.466 688.961 683.813 659.054 708.576C629.147 733.336 585.037 733.336 496.817 733.336H303.176C214.958 733.336 170.848 733.336 140.942 708.576C111.036 683.813 105.206 642.466 93.5467 559.769L79.4477 459.769Z" stroke="#474BFF" stroke-width="80"/>
</svg>
