<svg width="512" height="512" viewBox="0 0 512 512" fill="none" xmlns="http://www.w3.org/2000/svg">
<path d="M28 206.455V61H85.3864C96.3712 61 105.746 62.965 113.511 66.8949C121.324 70.7775 127.266 76.2936 131.338 83.4432C135.457 90.5455 137.517 98.9025 137.517 108.514C137.517 118.173 135.434 126.483 131.267 133.443C127.1 140.356 121.063 145.659 113.156 149.352C105.296 153.045 95.7794 154.892 84.6051 154.892H46.1818V130.176H79.6335C85.5047 130.176 90.3816 129.371 94.2642 127.761C98.1468 126.152 101.035 123.737 102.929 120.517C104.87 117.297 105.841 113.296 105.841 108.514C105.841 103.685 104.87 99.6127 102.929 96.2983C101.035 92.9839 98.1231 90.4744 94.1932 88.7699C90.3106 87.018 85.41 86.1421 79.4915 86.1421H58.7528V206.455H28ZM106.551 140.261L142.702 206.455H108.753L73.3835 140.261H106.551Z" fill="#3B82F6"/>
<path d="M206.64 208.585C195.418 208.585 185.759 206.313 177.663 201.767C169.613 197.174 163.411 190.687 159.055 182.307C154.699 173.879 152.521 163.912 152.521 152.406C152.521 141.185 154.699 131.336 159.055 122.861C163.411 114.385 169.542 107.78 177.45 103.045C185.404 98.3106 194.732 95.9432 205.433 95.9432C212.629 95.9432 219.329 97.1032 225.532 99.4233C231.782 101.696 237.227 105.129 241.867 109.722C246.555 114.314 250.201 120.091 252.805 127.051C255.409 133.964 256.711 142.061 256.711 151.341V159.651H164.594V140.901H228.231C228.231 136.545 227.284 132.686 225.39 129.324C223.496 125.962 220.868 123.334 217.506 121.44C214.192 119.499 210.333 118.528 205.93 118.528C201.337 118.528 197.265 119.594 193.714 121.724C190.21 123.808 187.464 126.625 185.475 130.176C183.487 133.68 182.469 137.586 182.421 141.895V159.722C182.421 165.119 183.415 169.783 185.404 173.713C187.44 177.643 190.305 180.673 193.998 182.804C197.691 184.935 202.071 186 207.137 186C210.499 186 213.576 185.527 216.37 184.58C219.164 183.633 221.555 182.212 223.543 180.318C225.532 178.424 227.047 176.104 228.089 173.358L256.072 175.205C254.651 181.928 251.739 187.799 247.336 192.818C242.98 197.79 237.345 201.672 230.433 204.466C223.567 207.212 215.636 208.585 206.64 208.585Z" fill="#3B82F6"/>
<path d="M311.825 209.011C304.912 209.011 298.638 207.709 293.004 205.105C287.369 202.454 282.895 198.642 279.58 193.67C276.266 188.652 274.609 182.591 274.609 175.489C274.609 169.239 275.84 164.172 278.302 160.29C280.764 156.36 284.055 153.282 288.174 151.057C292.293 148.831 296.839 147.174 301.81 146.085C306.829 144.949 311.872 144.049 316.938 143.386C323.567 142.534 328.941 141.895 333.06 141.469C337.227 140.995 340.257 140.214 342.151 139.125C344.093 138.036 345.063 136.142 345.063 133.443V132.875C345.063 125.867 343.146 120.422 339.31 116.54C335.522 112.657 329.77 110.716 322.052 110.716C314.05 110.716 307.776 112.468 303.231 115.972C298.685 119.475 295.489 123.216 293.643 127.193L277.734 121.511C280.575 114.883 284.362 109.722 289.097 106.028C293.879 102.288 299.088 99.6837 304.722 98.2159C310.404 96.7008 315.991 95.9432 321.484 95.9432C324.987 95.9432 329.012 96.3693 333.558 97.2216C338.15 98.0265 342.577 99.7074 346.839 102.264C351.147 104.821 354.722 108.68 357.563 113.841C360.404 119.002 361.825 125.915 361.825 134.58V206.455H345.063V191.682H344.211C343.075 194.049 341.181 196.582 338.529 199.281C335.878 201.98 332.35 204.277 327.947 206.17C323.543 208.064 318.169 209.011 311.825 209.011ZM314.381 193.955C321.01 193.955 326.597 192.652 331.143 190.048C335.736 187.444 339.192 184.082 341.512 179.963C343.879 175.844 345.063 171.511 345.063 166.966V151.625C344.353 152.477 342.79 153.259 340.376 153.969C338.008 154.632 335.262 155.223 332.137 155.744C329.059 156.218 326.053 156.644 323.117 157.023C320.229 157.354 317.885 157.638 316.086 157.875C311.73 158.443 307.658 159.366 303.87 160.645C300.129 161.876 297.099 163.746 294.779 166.256C292.506 168.718 291.37 172.08 291.37 176.341C291.37 182.165 293.524 186.568 297.833 189.551C302.189 192.487 307.705 193.955 314.381 193.955Z" fill="#3B82F6"/>
<path d="M433.611 208.727C424.52 208.727 416.494 206.431 409.534 201.838C402.574 197.198 397.129 190.664 393.199 182.236C389.269 173.76 387.304 163.746 387.304 152.193C387.304 140.735 389.269 130.792 393.199 122.364C397.129 113.936 402.598 107.425 409.605 102.832C416.613 98.2396 424.709 95.9432 433.895 95.9432C440.997 95.9432 446.608 97.1269 450.727 99.4943C454.894 101.814 458.066 104.466 460.244 107.449C462.47 110.384 464.198 112.799 465.429 114.693H466.849V61H483.611V206.455H467.418V189.693H465.429C464.198 191.682 462.446 194.191 460.173 197.222C457.901 200.205 454.657 202.88 450.443 205.247C446.229 207.567 440.618 208.727 433.611 208.727ZM435.884 193.67C442.607 193.67 448.289 191.919 452.929 188.415C457.569 184.864 461.097 179.963 463.511 173.713C465.926 167.416 467.134 160.148 467.134 151.909C467.134 143.765 465.95 136.639 463.582 130.531C461.215 124.376 457.711 119.594 453.071 116.185C448.431 112.728 442.702 111 435.884 111C428.781 111 422.863 112.823 418.128 116.469C413.44 120.067 409.913 124.968 407.545 131.17C405.225 137.326 404.065 144.239 404.065 151.909C404.065 159.674 405.249 166.729 407.616 173.074C410.031 179.371 413.582 184.39 418.27 188.131C423.005 191.824 428.876 193.67 435.884 193.67Z" fill="#3B82F6"/>
<path d="M28 448.455V303H124.307V328.355H58.7528V363.014H117.915V388.369H58.7528V448.455H28Z" fill="#3B82F6"/>
<path d="M174.165 450.514C167.205 450.514 161.002 449.307 155.557 446.892C150.112 444.43 145.803 440.808 142.631 436.026C139.506 431.196 137.943 425.183 137.943 417.986C137.943 411.925 139.056 406.835 141.281 402.716C143.507 398.597 146.537 395.282 150.372 392.773C154.207 390.263 158.563 388.369 163.44 387.091C168.365 385.813 173.526 384.913 178.923 384.392C185.268 383.729 190.382 383.114 194.264 382.545C198.147 381.93 200.964 381.03 202.716 379.847C204.468 378.663 205.344 376.911 205.344 374.591V374.165C205.344 369.667 203.923 366.187 201.082 363.724C198.289 361.262 194.312 360.031 189.151 360.031C183.705 360.031 179.373 361.239 176.153 363.653C172.934 366.021 170.803 369.004 169.761 372.602L141.778 370.33C143.199 363.701 145.992 357.972 150.159 353.142C154.326 348.265 159.7 344.525 166.281 341.92C172.91 339.269 180.58 337.943 189.293 337.943C195.353 337.943 201.153 338.653 206.693 340.074C212.28 341.494 217.228 343.696 221.537 346.679C225.893 349.662 229.326 353.497 231.835 358.185C234.345 362.825 235.599 368.388 235.599 374.875V448.455H206.906V433.327H206.054C204.302 436.736 201.958 439.742 199.023 442.347C196.087 444.903 192.56 446.916 188.44 448.384C184.321 449.804 179.563 450.514 174.165 450.514ZM182.83 429.634C187.28 429.634 191.21 428.758 194.619 427.006C198.028 425.206 200.704 422.792 202.645 419.761C204.586 416.731 205.557 413.298 205.557 409.463V397.886C204.61 398.502 203.308 399.07 201.651 399.591C200.041 400.064 198.218 400.514 196.182 400.94C194.146 401.319 192.11 401.674 190.074 402.006C188.038 402.29 186.191 402.55 184.534 402.787C180.983 403.308 177.882 404.136 175.23 405.273C172.579 406.409 170.519 407.948 169.051 409.889C167.583 411.783 166.849 414.151 166.849 416.991C166.849 421.111 168.341 424.259 171.324 426.438C174.354 428.568 178.189 429.634 182.83 429.634Z" fill="#3B82F6"/>
<path d="M339.612 363.795L324.555 368.057C323.608 365.547 322.212 363.109 320.365 360.741C318.566 358.327 316.104 356.338 312.979 354.776C309.854 353.213 305.853 352.432 300.976 352.432C294.3 352.432 288.736 353.971 284.285 357.048C279.882 360.079 277.68 363.938 277.68 368.625C277.68 372.792 279.196 376.082 282.226 378.497C285.256 380.912 289.991 382.924 296.43 384.534L312.624 388.511C322.377 390.879 329.645 394.501 334.428 399.378C339.21 404.207 341.601 410.434 341.601 418.057C341.601 424.307 339.802 429.894 336.203 434.818C332.652 439.742 327.68 443.625 321.288 446.466C314.896 449.307 307.463 450.727 298.987 450.727C287.86 450.727 278.651 448.313 271.359 443.483C264.068 438.653 259.451 431.599 257.51 422.318L273.419 418.341C274.934 424.212 277.799 428.616 282.013 431.551C286.274 434.487 291.838 435.955 298.703 435.955C306.516 435.955 312.718 434.297 317.311 430.983C321.951 427.621 324.271 423.597 324.271 418.909C324.271 415.121 322.946 411.949 320.294 409.392C317.643 406.788 313.571 404.847 308.078 403.568L289.896 399.307C279.906 396.939 272.567 393.27 267.879 388.298C263.239 383.279 260.919 377.006 260.919 369.477C260.919 363.322 262.647 357.877 266.104 353.142C269.607 348.407 274.366 344.69 280.379 341.991C286.44 339.293 293.305 337.943 300.976 337.943C311.771 337.943 320.247 340.311 326.402 345.045C332.605 349.78 337.008 356.03 339.612 363.795Z" fill="#3B82F6"/>
<path d="M414.275 339.364V353.568H357.741V339.364H414.275ZM374.218 313.227H390.979V417.205C390.979 421.939 391.666 425.491 393.039 427.858C394.46 430.178 396.259 431.741 398.437 432.545C400.662 433.303 403.006 433.682 405.468 433.682C407.315 433.682 408.83 433.587 410.013 433.398C411.197 433.161 412.144 432.972 412.854 432.83L416.263 447.886C415.127 448.313 413.541 448.739 411.505 449.165C409.469 449.638 406.888 449.875 403.763 449.875C399.029 449.875 394.388 448.857 389.843 446.821C385.345 444.785 381.604 441.684 378.621 437.517C375.686 433.35 374.218 428.095 374.218 421.75V313.227Z" fill="#3B82F6"/>
</svg>