<svg width="512" height="512" viewBox="0 0 512 512" fill="none" xmlns="http://www.w3.org/2000/svg">
<path d="M258.56 359.04C258.56 361.856 260.736 364.16 263.36 364.16H381.76C384.384 364.16 386.56 361.856 386.56 359.04V328.32C386.56 325.504 384.384 323.2 381.76 323.2H263.36C260.736 323.2 258.56 325.504 258.56 328.32V359.04ZM133.824 362.944L256.704 259.904C259.136 257.856 259.136 254.08 256.704 252.032L133.824 149.056C133.082 148.425 132.175 148.02 131.21 147.89C130.245 147.759 129.263 147.909 128.38 148.32C127.497 148.731 126.751 149.386 126.23 150.209C125.709 151.031 125.435 151.986 125.44 152.96V193.088C125.44 194.624 126.08 196.032 127.296 196.992L197.568 256L127.296 315.008C126.724 315.487 126.262 316.084 125.942 316.757C125.621 317.431 125.45 318.166 125.44 318.912V359.04C125.44 363.392 130.496 365.76 133.824 362.944ZM491.52 0H20.48C9.152 0 0 9.152 0 20.48V491.52C0 502.848 9.152 512 20.48 512H491.52C502.848 512 512 502.848 512 491.52V20.48C512 9.152 502.848 0 491.52 0ZM465.92 465.92H46.08V46.08H465.92V465.92Z" fill="#3B82F6"/>
</svg>