<svg width="512" height="512" viewBox="0 0 512 512" fill="none" xmlns="http://www.w3.org/2000/svg">
<g clip-path="url(#clip0)">
<path d="M10.654 383.913C4.765 383.913 0 388.693 0 394.582V501.229C0 507.119 4.765 511.883 10.654 511.883H501.197C507.101 511.883 511.883 507.118 511.883 501.229V394.582C511.883 388.693 507.102 383.913 501.197 383.913H10.654Z" fill="#DBEAFE"/>
<path d="M498.198 326.16L457.364 227.636C455.115 222.199 448.866 219.606 443.43 221.871L0.000976562 405.547V461.034L21.059 511.882H77.671L492.42 340.093C497.855 337.845 500.448 331.612 498.198 326.16Z" fill="#BFDBFE"/>
<path d="M0.000976562 473.547L38.336 511.882H89.824L418.499 183.223C422.653 179.052 422.653 172.304 418.499 168.133L343.078 92.728C338.923 88.557 332.175 88.557 328.004 92.728L0.000976562 420.747V473.547Z" fill="#93C5FD"/>
<path d="M0.000976562 490.654L51.239 511.883H106.726L290.403 68.438C292.668 63.002 290.091 56.753 284.638 54.504L186.114 13.701C180.678 11.436 174.429 14.029 172.18 19.466L0.000976562 435.181V490.654Z" fill="#60A5FA"/>
<path d="M0.001 501.228C0.001 507.118 4.766 511.882 10.655 511.882H117.287C123.192 511.882 127.972 507.117 127.972 501.228V10.67C127.972 4.78 123.192 0 117.287 0H10.654C4.765 0.001 0 4.781 0 10.67V501.228H0.001Z" fill="#3B82F6"/>
<path d="M0.000976562 383.927V501.228C0.000976562 507.118 4.76598 511.882 10.655 511.882H117.287C123.192 511.882 127.972 507.117 127.972 501.228V383.927H0.000976562Z" fill="#EFF6FF"/>
<path d="M63.986 437.243C58.081 437.243 53.301 442.008 53.301 447.897C53.301 453.786 58.081 458.566 63.986 458.566C69.86 458.566 74.64 453.787 74.64 447.897C74.64 442.007 69.859 437.243 63.986 437.243Z" fill="#3B82F6"/>
<path d="M68.0469 458.161C62.6099 460.41 56.3779 457.833 54.1119 452.381C51.8619 446.944 54.4559 440.712 59.8919 438.446C65.3279 436.197 71.5769 438.79 73.8259 444.226C76.0749 449.662 73.4839 455.911 68.0469 458.161Z" fill="#3B82F6"/>
<path d="M71.609 454.693C67.454 458.848 60.705 458.848 56.534 454.693C52.363 450.522 52.363 443.774 56.534 439.603C60.705 435.448 67.453 435.448 71.609 439.603C75.78 443.773 75.78 450.521 71.609 454.693Z" fill="#3B82F6"/>
<path d="M73.8271 451.991C71.5771 457.428 65.3291 460.005 59.8931 457.756C54.4561 455.506 51.863 449.258 54.113 443.821C56.378 438.384 62.611 435.792 68.048 438.056C73.499 440.306 76.0771 446.538 73.8271 451.991Z" fill="#3B82F6"/>
<path d="M53.301 447.897C53.301 453.787 58.081 458.566 63.986 458.566C69.86 458.566 74.64 453.787 74.64 447.897C74.64 442.007 69.86 437.243 63.986 437.243C58.081 437.243 53.301 442.008 53.301 447.897Z" fill="#3B82F6"/>
</g>
<defs>
<clipPath id="clip0">
<rect width="511.883" height="511.883" fill="white"/>
</clipPath>
</defs>
</svg>