<svg width="300" height="300" viewBox="0 0 300 300" fill="none" xmlns="http://www.w3.org/2000/svg">
<path d="M106.935 256.936C165.994 256.936 213.871 209.059 213.871 150C213.871 90.9412 165.994 43.0645 106.935 43.0645C47.8767 43.0645 0 90.9412 0 150C0 209.059 47.8767 256.936 106.935 256.936Z" fill="#93C5FD"/>
<path d="M193.065 256.936C252.123 256.936 300 209.059 300 150C300 90.9412 252.123 43.0645 193.065 43.0645C134.006 43.0645 86.129 90.9412 86.129 150C86.129 209.059 134.006 256.936 193.065 256.936Z" fill="#2563EB"/>
<path d="M150 51.7742C112.258 68.2258 85.6452 105.968 85.6452 150C85.6452 194.032 112.258 231.774 150 248.226C187.742 231.774 214.355 194.032 214.355 150C214.355 105.968 187.742 68.2258 150 51.7742Z" fill="#3B82F6"/>
</svg>