<svg width="512" height="512" viewBox="0 0 512 512" fill="none" xmlns="http://www.w3.org/2000/svg">
  <path d="M15 90L75 90C83.2852 90 90 83.2851 90 75L90 60.2968C285.977 68.0039 443.996 226.023 451.699 422L437 422C428.715 422 422 428.715 422 437L422 497C422 505.285 428.715 512 437 512L497 512C505.285 512 512 505.285 512 497L512 437C512 428.715 505.285 422 497 422L481.996 422L481.996 200C481.996 191.715 475.281 185 466.996 185C458.715 185 451.996 191.715 451.996 200L451.996 283.805C451.316 282.137 450.625 280.469 449.918 278.809C429.371 230.371 399.984 186.844 362.57 149.43C325.152 112.012 281.625 82.625 233.191 62.0781C231.527 61.375 229.863 60.6836 228.195 60L312 60C320.285 60 327 53.2851 327 45C327 36.7148 320.285 30 312 30L90 30L90 15C90 6.71481 83.2852 -3.74794e-05 75 -3.82038e-05L15 -4.34491e-05C6.71489 -4.41734e-05 4.41734e-05 6.7148 4.34491e-05 15L3.82038e-05 75C3.74794e-05 83.2851 6.71488 90 15 90ZM482 482L452 482L452 452L482 452L482 482ZM30 30L60 30L60 44.9609C60 44.9726 59.9961 44.9882 59.9961 45C59.9961 45.0117 60 45.0273 60 45.039L60 60L30 60L30 30Z" fill="#3B82F6"/>
  <path d="M30 482L422 482L422 452L30 452L30 482Z" fill="#3B82F6"/>
  <path d="M60 482L60 87L30 87L30 482L60 482Z" fill="#3B82F6"/>
  <path d="M120 392.023V189H200.065C218.747 189 233.902 194.91 245.531 206.729C257.16 218.548 262.974 233.036 262.974 250.193C262.974 275.737 249.725 293.18 223.227 302.521L295 392.023H240.384L172.614 308.24H165.466V392.023H120ZM165.466 269.637H194.632C201.495 269.637 207.023 267.826 211.217 264.204C215.602 260.582 217.794 255.912 217.794 250.193C217.794 244.093 215.602 239.327 211.217 235.895C207.023 232.464 201.495 230.748 194.632 230.748H165.466V269.637Z" fill="#3B82F6"/>
</svg>