<svg width="512" height="512" viewBox="0 0 512 512" fill="none" xmlns="http://www.w3.org/2000/svg">
<path d="M157.356 511.693C139.701 511.693 125.061 505.883 113.437 494.263C101.812 482.643 96 468.338 96 451.347C96 434.355 101.812 420.05 113.437 408.43C125.061 396.81 139.701 391 157.356 391C170.406 391 182.304 394.892 193.051 402.675C203.908 410.348 210.926 420.488 214.107 433.094H185.649C183.127 427.723 179.288 423.613 174.115 420.762C168.98 417.803 163.387 416.323 157.356 416.323C146.829 416.323 138.33 419.666 131.86 426.353C125.499 433.039 122.319 441.371 122.319 451.347C122.319 461.322 125.499 469.654 131.86 476.34C138.33 483.027 146.829 486.37 157.356 486.37C163.387 486.37 168.98 484.945 174.135 482.096C179.288 479.135 183.127 474.97 185.649 469.599H214.107C210.926 482.205 203.908 492.4 193.051 500.183C182.304 507.856 170.406 511.693 157.356 511.693Z" fill="#3B82F6"/>
<path d="M269.427 511.693C255.829 511.693 244.863 507.747 236.529 499.854C228.194 491.961 223.808 482.753 223.369 472.229H249.523C250.4 477.053 252.595 480.835 256.103 483.576C259.722 486.206 264.163 487.521 269.427 487.521C273.924 487.521 277.543 486.59 280.284 484.727C283.135 482.863 284.561 480.341 284.561 477.162C284.561 471.572 279.461 467.352 269.263 464.501L257.913 461.542C248.152 458.91 240.476 454.635 234.884 448.716C229.291 442.796 226.439 435.396 226.33 426.517C226.33 415.665 229.948 407.059 237.187 400.702C244.534 394.234 254.294 391 266.466 391C278.749 391 288.728 394.727 296.404 402.181C304.08 409.526 308.138 417.967 308.577 427.504H282.586C281.38 423.229 279.297 420.105 276.336 418.131C273.375 416.158 270.085 415.172 266.466 415.172C262.409 415.172 259.119 415.993 256.597 417.638C254.074 419.282 252.758 421.639 252.649 424.709C252.54 427.778 253.636 430.299 255.939 432.272C258.352 434.245 261.97 435.89 266.795 437.206L280.119 440.659C289.879 443.29 297.446 447.62 302.82 453.649C308.303 459.677 311.044 467.242 311.044 476.34C311.044 486.425 307.206 494.866 299.529 501.663C291.853 508.35 281.819 511.693 269.427 511.693Z" fill="#3B82F6"/>
<path d="M368.383 511.693C354.785 511.693 343.818 507.747 335.484 499.854C327.15 491.961 322.763 482.753 322.324 472.229H348.479C349.357 477.053 351.55 480.835 355.059 483.576C358.677 486.206 363.119 487.521 368.383 487.521C372.879 487.521 376.498 486.59 379.239 484.727C382.091 482.863 383.516 480.341 383.516 477.162C383.516 471.572 378.417 467.352 368.218 464.501L356.868 461.542C347.109 458.91 339.432 454.635 333.839 448.716C328.246 442.796 325.396 435.396 325.286 426.517C325.286 415.665 328.904 407.059 336.142 400.702C343.49 394.234 353.249 391 365.422 391C377.704 391 387.683 394.727 395.359 402.181C403.036 409.526 407.093 417.967 407.532 427.504H381.542C380.335 423.229 378.252 420.105 375.292 418.131C372.33 416.158 369.04 415.172 365.422 415.172C361.364 415.172 358.074 415.993 355.552 417.638C353.03 419.282 351.715 421.639 351.605 424.709C351.495 427.778 352.592 430.299 354.894 432.272C357.307 434.245 360.925 435.89 365.751 437.206L379.075 440.659C388.835 443.29 396.401 447.62 401.775 453.649C407.258 459.677 409.999 467.242 409.999 476.34C409.999 486.425 406.161 494.866 398.485 501.663C390.808 508.35 380.774 511.693 368.383 511.693Z" fill="#3B82F6"/>
<g clip-path="url(#clip0)">
<path d="M425.462 31.9603H271.615C266.308 31.9603 262 24.9741 262 16.366C262 7.75787 266.308 0.771597 271.615 0.771597H425.462C430.77 0.771597 435.078 7.75787 435.078 16.366C435.078 24.9741 430.77 31.9603 425.462 31.9603Z" fill="#3B82F6"/>
<path d="M502.386 104.044H271.615C266.308 104.044 262 97.0574 262 88.4493C262 79.8412 266.308 72.8549 271.615 72.8549H502.386C507.694 72.8549 512.001 79.8412 512.001 88.4493C512.001 97.0574 507.694 104.044 502.386 104.044Z" fill="#3B82F6"/>
<path d="M425.462 176.127H271.615C266.308 176.127 262 169.141 262 160.533C262 151.925 266.308 144.938 271.615 144.938H425.462C430.77 144.938 435.078 151.925 435.078 160.533C435.078 169.141 430.77 176.127 425.462 176.127Z" fill="#3B82F6"/>
<path d="M502.386 248.21H271.615C266.308 248.21 262 241.224 262 232.616C262 224.008 266.308 217.022 271.615 217.022H502.386C507.694 217.022 512.001 224.008 512.001 232.616C512.001 241.224 507.694 248.21 502.386 248.21Z" fill="#3B82F6"/>
<path d="M425.462 320.294H271.615C266.308 320.294 262 313.307 262 304.699C262 296.091 266.308 289.105 271.615 289.105H425.462C430.77 289.105 435.078 296.091 435.078 304.699C435.078 313.307 430.77 320.294 425.462 320.294Z" fill="#3B82F6"/>
<path d="M205.408 151.972L163.534 115.232C158.375 110.709 150.427 111.101 145.787 116.146C141.147 121.166 141.566 128.912 146.725 133.434L164.254 148.821H38.5625C31.6196 148.821 26 154.298 26 161.065C26 167.832 31.6196 173.309 38.5625 173.309H164.271L146.716 188.696C141.557 193.226 141.139 200.964 145.778 205.984C148.266 208.67 151.691 210.041 155.125 210.041C158.123 210.041 161.13 209.004 163.525 206.898L205.4 170.175C208.047 167.856 209.562 164.542 209.562 161.073C209.562 157.604 208.047 154.29 205.408 151.972Z" fill="#3B82F6"/>
</g>
<defs>
<clipPath id="clip0">
<rect width="512" height="346" fill="white"/>
</clipPath>
</defs>
</svg>