<svg width="512" height="512" viewBox="0 0 512 512" fill="none" xmlns="http://www.w3.org/2000/svg">
<g clip-path="url(#clip0_427_1027)">
<path d="M267.636 0C254.783 0 244.363 10.42 244.363 23.273V116.364C244.363 129.217 254.783 139.637 267.636 139.637C280.489 139.637 290.909 129.217 290.909 116.364V23.273C290.909 10.42 280.489 0 267.636 0Z" fill="#3B82F6"/>
<path d="M267.638 372.364C254.785 372.364 244.365 382.784 244.365 395.637V488.728C244.365 501.581 254.785 512.001 267.638 512.001C280.491 512.001 290.911 501.581 290.911 488.728V395.637C290.911 382.784 280.491 372.364 267.638 372.364Z" fill="#93C5FD"/>
<path d="M185.355 140.808L119.529 74.9798C110.443 65.8908 95.7066 65.8908 86.6166 74.9798C77.5276 84.0688 77.5276 98.8038 86.6166 107.892L152.443 173.72C156.987 178.264 162.944 180.537 168.898 180.537C174.853 180.537 180.811 178.264 185.353 173.72C194.444 164.631 194.444 149.897 185.355 140.808Z" fill="#60A5FA"/>
<path d="M477.09 232.727H430.545C417.692 232.727 407.272 243.147 407.272 256C407.272 268.853 417.692 279.273 430.545 279.273H477.09C489.943 279.273 500.363 268.853 500.363 256C500.363 243.147 489.943 232.727 477.09 232.727Z" fill="#DBEAFE"/>
<path d="M382.83 338.283C373.743 329.194 359.007 329.196 349.918 338.283C340.829 347.372 340.831 362.106 349.918 371.195L415.746 437.02C420.29 441.564 426.247 443.836 432.203 443.836C438.159 443.836 444.116 441.563 448.658 437.02C457.747 427.931 457.747 413.196 448.658 404.108L382.83 338.283Z" fill="#BFDBFE"/>
<path d="M151.273 256C151.273 243.147 140.853 232.727 128 232.727H34.9087C22.0557 232.727 11.6357 243.147 11.6357 256C11.6357 268.853 22.0557 279.273 34.9087 279.273H128C140.853 279.273 151.273 268.853 151.273 256Z" fill="#60A5FA"/>
<path d="M185.355 338.283C176.268 329.194 161.531 329.194 152.443 338.283L86.6175 404.108C77.5285 413.195 77.5285 427.932 86.6175 437.02C91.1615 441.564 97.1185 443.836 103.075 443.836C109.031 443.836 114.988 441.565 119.53 437.02L185.355 371.195C194.444 362.108 194.444 347.372 185.355 338.283Z" fill="#93C5FD"/>
</g>
<defs>
<clipPath id="clip0_427_1027">
<rect width="512" height="512" fill="white"/>
</clipPath>
</defs>
</svg>