<svg width="800" height="800" viewBox="0 0 800 800" fill="none" xmlns="http://www.w3.org/2000/svg">
<g clip-path="url(#clip0_10592_134)">
<path d="M720.001 199.999C720 133.725 666.274 79.9995 600.001 79.9993H199.999C133.725 79.9995 79.9995 133.725 79.9993 199.999V600.001C79.9995 666.274 133.725 720 199.999 720.001H600.001C666.274 720 720 666.274 720.001 600.001V199.999ZM800 600.001C800 710.457 710.457 800 600.001 800H199.999C89.5427 800 0.00021771 710.457 0 600.001V199.999C0.000207868 89.5427 89.5427 0.000207814 199.999 0H600.001C710.457 0.000217767 800 89.5427 800 199.999V600.001Z" fill="#3B82F6"/>
<path fill-rule="evenodd" clip-rule="evenodd" d="M441.165 313.75H522.3C570.264 313.75 609.15 352.591 609.15 400.5C609.15 448.409 570.264 487.25 522.3 487.25H441.165C455.941 461.728 464.4 432.1 464.4 400.5C464.4 368.9 455.941 339.272 441.165 313.75ZM290.7 313.75C242.734 313.75 203.85 352.591 203.85 400.5C203.85 448.409 242.734 487.25 290.7 487.25C338.664 487.25 377.55 448.409 377.55 400.5C377.55 352.591 338.664 313.75 290.7 313.75ZM290.7 227H522.3C618.235 227 696 304.676 696 400.5C696 496.324 618.235 574 522.3 574H290.7C194.768 574 117 496.324 117 400.5C117 304.676 194.768 227 290.7 227Z" fill="#3B82F6"/>
<rect x="394" y="282" width="220" height="234" fill="#3B82F6" fill-opacity="0.35"/>
</g>
<defs>
<clipPath id="clip0_10592_134">
<rect width="800" height="800" fill="white"/>
</clipPath>
</defs>
</svg>