<svg width="512" height="512" viewBox="0 0 512 512" fill="none" xmlns="http://www.w3.org/2000/svg">
<g clip-path="url(#clip0)">
<path d="M511.752 381.071C501.351 310.787 474.141 241.555 409.741 219.387C434.744 203.839 451.343 176.104 451.343 144.586C451.343 95.9448 411.842 56.4431 363.2 56.4431C314.559 56.4431 275.057 95.9448 275.057 144.586C275.057 176.209 291.656 203.839 316.66 219.387C287.874 229.368 266.442 248.803 250.684 273.492C264.971 285.889 277.368 301.437 287.769 320.032C301.006 343.67 311.092 372.561 317.71 405.864H490.11C503.452 405.864 513.748 394.203 511.752 381.071ZM363.305 115.801C347.442 115.801 334.625 128.723 334.625 144.481C334.625 151.73 328.741 157.614 321.492 157.614C314.243 157.614 308.36 151.73 308.36 144.481C308.36 114.12 333.049 89.4312 363.41 89.4312C370.659 89.4312 376.542 95.3144 376.542 102.563C376.437 109.917 370.554 115.801 363.305 115.801Z" fill="#3B82F6" fill-opacity="0.65"/>
<path d="M195.318 269.185C220.322 253.636 236.921 225.901 236.921 194.384C236.921 145.742 197.42 106.24 148.778 106.24C100.136 106.24 60.6346 145.637 60.6346 194.279C60.6346 225.901 77.2337 253.531 102.237 269.08C37.9422 291.352 10.7323 360.585 0.226524 430.763C-1.66451 443.895 8.52607 455.557 21.7633 455.557H275.687C288.925 455.557 299.22 443.79 297.224 430.763C286.929 360.585 259.614 291.352 195.318 269.185ZM148.778 165.598C132.914 165.598 120.097 178.52 120.097 194.279C120.097 201.528 114.214 207.411 106.965 207.411C99.716 207.411 93.8328 201.528 93.8328 194.279C93.8328 163.917 118.521 139.229 148.883 139.229C156.132 139.229 162.015 145.112 162.015 152.361C161.91 159.715 156.027 165.598 148.778 165.598Z" fill="#3B82F6"/>
<path d="M74 409.574L109.448 326H126.24L161.688 409.574H142.332L134.985 391.917H100.703L93.3567 409.574H74ZM117.844 350.601L107.35 375.673H128.222L117.844 350.601Z" fill="white"/>
<path d="M190.534 410.868C182.993 410.868 176.58 407.847 171.294 401.805C166.085 395.762 163.481 388.543 163.481 380.146C163.481 371.75 166.085 364.53 171.294 358.488C176.58 352.445 182.993 349.424 190.534 349.424C197.219 349.424 202.505 351.818 206.392 356.604V350.719H224V409.574H206.392V403.688C202.505 408.475 197.219 410.868 190.534 410.868ZM184.82 390.622C187.308 393.369 190.534 394.742 194.498 394.742C198.463 394.742 201.65 393.369 204.06 390.622C206.548 387.876 207.792 384.384 207.792 380.146C207.792 375.909 206.548 372.417 204.06 369.67C201.65 366.924 198.463 365.55 194.498 365.55C190.534 365.55 187.308 366.924 184.82 369.67C182.41 372.417 181.205 375.909 181.205 380.146C181.205 384.384 182.41 387.876 184.82 390.622Z" fill="white"/>
<path d="M374.408 314.024C378.376 315.24 381.416 317.288 383.528 320.168C385.64 322.984 386.696 326.472 386.696 330.632C386.696 334.344 385.704 337.608 383.72 340.424C381.8 343.176 379.016 345.32 375.368 346.856C371.784 348.392 367.56 349.16 362.696 349.16H337.16C334.536 349.16 332.52 348.456 331.112 347.048C329.704 345.64 329 343.624 329 341V289.64C329 287.016 329.704 285 331.112 283.592C332.52 282.184 334.536 281.48 337.16 281.48H361.736C368.84 281.48 374.472 283.08 378.632 286.28C382.856 289.416 384.968 293.672 384.968 299.048C384.968 302.504 384.04 305.576 382.184 308.264C380.328 310.888 377.736 312.808 374.408 314.024ZM346.184 308.072H358.76C362.088 308.072 364.52 307.56 366.056 306.536C367.592 305.512 368.36 303.88 368.36 301.64C368.36 299.272 367.592 297.544 366.056 296.456C364.52 295.368 362.088 294.824 358.76 294.824H346.184V308.072ZM360.488 335.816C364.008 335.816 366.504 335.272 367.976 334.184C369.512 333.032 370.28 331.176 370.28 328.616C370.28 326.056 369.512 324.232 367.976 323.144C366.504 321.992 364.008 321.416 360.488 321.416H346.184V335.816H360.488Z" fill="white"/>
<path d="M425.894 300.776C429.99 300.776 433.606 301.768 436.742 303.752C439.878 305.736 442.31 308.584 444.038 312.296C445.83 315.944 446.726 320.2 446.726 325.064C446.726 329.928 445.83 334.248 444.038 338.024C442.31 341.8 439.846 344.744 436.646 346.856C433.51 348.904 429.926 349.928 425.894 349.928C422.758 349.928 419.878 349.288 417.254 348.008C414.694 346.728 412.742 344.968 411.398 342.728C411.206 344.904 410.342 346.632 408.806 347.912C407.334 349.128 405.382 349.736 402.95 349.736C400.39 349.736 398.342 349.032 396.806 347.624C395.334 346.152 394.598 344.232 394.598 341.864V288.68C394.598 286.44 395.398 284.616 396.998 283.208C398.598 281.736 400.71 281 403.334 281C405.83 281 407.846 281.672 409.382 283.016C410.918 284.36 411.686 286.152 411.686 288.392V307.496C413.094 305.448 415.046 303.816 417.542 302.6C420.102 301.384 422.886 300.776 425.894 300.776ZM420.614 337.16C423.558 337.16 425.83 336.136 427.43 334.088C429.03 331.976 429.83 328.968 429.83 325.064C429.83 321.352 429.03 318.504 427.43 316.52C425.894 314.536 423.654 313.544 420.71 313.544C417.702 313.544 415.398 314.568 413.798 316.616C412.198 318.6 411.398 321.48 411.398 325.256C411.398 329.096 412.198 332.04 413.798 334.088C415.398 336.136 417.67 337.16 420.614 337.16Z" fill="white"/>
</g>
<defs>
<clipPath id="clip0">
<rect width="512" height="512" fill="white"/>
</clipPath>
</defs>
</svg>