<svg width="300" height="300" viewBox="0 0 300 300" fill="none" xmlns="http://www.w3.org/2000/svg">
<path d="M264.844 26.9531V220.312C264.844 225.233 260.978 229.102 256.055 229.102H224.59L133.008 202.382L0 163.886V26.9531C0 22.0299 3.86581 18.1641 8.78906 18.1641H256.055C260.978 18.1641 264.844 22.0299 264.844 26.9531Z" fill="#DBEAFE"/>
<path d="M264.844 26.9531V220.312C264.844 225.233 260.978 229.102 256.055 229.102H133.008V18.1641H256.055C260.978 18.1641 264.844 22.0299 264.844 26.9531Z" fill="#BFDBFE"/>
<path d="M224.59 229.102H8.78906C3.86581 229.102 0 225.233 0 220.312V163.886L74.1211 91.1133C77.4605 87.5977 83.0864 87.5977 86.4258 91.1133L133.008 137.695L224.59 229.102Z" fill="#3B82F6"/>
<path d="M224.59 229.102H133.008V137.695L224.59 229.102Z" fill="#2563EB"/>
<path d="M185.742 106.055C171.204 106.055 159.375 94.2261 159.375 79.6875C159.375 65.1489 171.204 53.3203 185.742 53.3203C200.281 53.3203 212.109 65.1489 212.109 79.6875C212.109 94.2261 200.281 106.055 185.742 106.055Z" fill="#F8FAFC"/>
<path d="M300 132.422V234.199H106.641V132.422C106.641 127.499 110.506 123.633 115.43 123.633H291.211C296.134 123.633 300 127.499 300 132.422Z" fill="#DBEAFE"/>
<path d="M300 132.422V234.199H203.32V123.633H291.211C296.134 123.633 300 127.499 300 132.422V132.422Z" fill="#BFDBFE"/>
<path d="M247.266 167.578C247.266 172.433 243.331 176.367 238.477 176.367C233.622 176.367 229.688 172.433 229.688 167.578C229.688 162.724 233.622 158.789 238.477 158.789C243.331 158.789 247.266 162.724 247.266 167.578Z" fill="#F8FAFC"/>
<path d="M300 234.199V273.047C300 277.968 296.134 281.836 291.211 281.836H115.43C110.506 281.836 106.641 277.968 106.641 273.047V234.199L162.012 179.004C165.351 175.488 170.977 175.488 174.316 179.004L203.32 207.832L220.898 225.41L249.905 196.582C253.244 193.066 258.868 193.066 262.207 196.582L300 234.199Z" fill="#3B82F6"/>
<path d="M300 234.199V273.047C300 277.968 296.134 281.836 291.211 281.836H203.32V207.832L220.898 225.41L249.902 196.582C253.242 193.066 258.868 193.066 262.207 196.582L300 234.199Z" fill="#1D4ED8"/>
</svg>