<svg width="300" height="300" viewBox="0 0 300 300" fill="none" xmlns="http://www.w3.org/2000/svg">
<path d="M48 190V48H251.5V193L213 167.5L175 193L116 144.5L48 190Z" fill="#DBEAFE"/>
<circle cx="177" cy="103" r="14" fill="#93C5FD"/>
<path d="M117 142.5L48 195V253.5H251V198L212.5 167L176.5 193.5L117 142.5Z" fill="#60A5FA"/>
<path d="M261.586 244.008V38.4141H55.9922V0H38.4141V38.4141H0V55.9922H38.4141V261.586H244.008V300H261.586V261.586H300V244.008H261.586ZM55.9922 55.9922H244.008V178.789L212.871 155.143L176.905 182.413L117.117 130.996L55.9922 176.262V55.9922ZM244.008 244.008H55.9922V198.135L116.299 153.476L176.211 205.001L212.864 177.209L244.008 200.862V244.008Z" fill="#3B82F6"/>
<path d="M176.858 76.3172C161.968 76.3172 149.855 88.4309 149.855 103.321C149.855 118.21 161.968 130.324 176.858 130.324C191.747 130.324 203.861 118.21 203.861 103.321C203.861 88.4309 191.747 76.3172 176.858 76.3172ZM176.858 112.746C171.661 112.746 167.433 108.517 167.433 103.321C167.433 98.1234 171.661 93.8953 176.858 93.8953C182.055 93.8953 186.283 98.1234 186.283 103.321C186.283 108.517 182.055 112.746 176.858 112.746Z" fill="#1E40AF"/>
</svg>