<svg width="512" height="512" viewBox="0 0 512 512" fill="none" xmlns="http://www.w3.org/2000/svg">
<rect width="512" height="512" rx="32" fill="#DBEAFE"/>
<path fill-rule="evenodd" clip-rule="evenodd" d="M356.44 421.415H278.967L264.137 421.59L264.262 421.415H77.107C71.511 421.415 69.3347 417.758 72.3814 413.21L203.887 213.464C206.872 208.928 211.784 208.836 214.862 213.249L310.304 351.28L346.118 296.75C349.103 292.232 354.077 292.109 357.248 296.479L439.944 410.094C443.115 414.457 438.647 421.258 433.113 421.421L361.962 421.415L356.409 421.421L356.44 421.415Z" fill="#93C5FD"/>

<path d="M362.159 201.492L290.714 272.936C283.443 280.207 273.707 284.106 263.749 284.106C260.133 284.106 256.484 283.588 252.916 282.528C252.168 282.305 251.36 282.491 250.807 283.043L239.786 294.064C236.488 297.362 232.178 299.006 227.868 299.006C226.212 299.006 224.555 298.765 222.957 298.281C222.957 298.281 218.628 295.231 216.6 293.197C210.014 286.611 211.617 277.806 218.203 271.22L229.221 260.202C229.774 259.649 229.962 258.837 229.739 258.087C225.774 244.717 231.801 228.313 241.711 218.402L257.384 198.963C267.755 209.334 287.83 201.216 306.955 196.475C328.638 191.101 349.561 188.894 362.159 201.492V201.492Z" fill="#3B82F6"/>

<path d="M405.942 157.708L362.159 201.492C338.449 177.782 279.513 221.092 257.384 198.963L303.368 163.652L352.295 104.062L405.942 157.708Z" fill="#E0F2FE"/>

<path d="M248.659 231.925C239.249 241.335 235.487 254.907 238.521 267.7C239.027 269.818 238.363 272.031 236.835 273.559L227.531 282.863C223.347 287.047 221.819 292.887 222.956 298.281C220.385 297.501 217.962 296.097 215.939 294.064C209.354 287.478 209.354 276.803 215.939 270.217L226.958 259.199C227.511 258.646 227.698 257.834 227.475 257.084C223.511 243.714 227.157 229.188 237.067 219.279L257.384 198.962L269.737 197.281L275.129 205.453L248.659 231.925Z" fill="#1E40AF"/>

<path d="M363.887 116.707L275.129 205.454C268.069 205.307 261.947 203.526 257.384 198.963L352.295 104.062L363.887 116.707Z" fill="#BFDBFE" fill-opacity="0.6"/>

<path d="M452.887 110.764L433.508 130.143L421.433 135.672L405.942 157.709L355.448 107.215L402.393 60.2702C409.801 52.8623 415.562 47.2679 425.267 47.2679C428.303 47.2679 435.094 47.0867 435.094 47.0867C441.616 48.6799 447.794 52.0246 452.887 57.1174C467.703 71.9332 467.703 95.9482 452.887 110.764Z" fill="#2563EB"/>
<path d="M435.16 47.1033C432.178 46.3762 429.114 46 426.057 46C416.352 46 406.647 49.7092 399.239 57.1171L352.294 104.062L405.941 157.709L433.507 130.142L398.025 94.6592C395.145 91.7783 395.144 87.1091 398.025 84.2281L435.16 47.1033Z" fill="#1E40AF"/>

<path d="M395.05 181.091L335.153 121.195L330.226 114.417C320.761 104.952 320.358 91.3945 329.822 81.9297C339.287 72.4649 352.71 72.6661 362.175 82.131L369.434 86.9245L429.325 146.816C438.79 156.281 438.79 171.626 429.325 181.091C419.86 190.556 404.515 190.556 395.05 181.091V181.091Z" fill="#3B82F6"/>
<path d="M369.435 86.9235L335.157 121.192L328.912 114.947C319.45 105.484 319.45 90.1416 328.912 80.6789C333.644 75.9476 339.84 73.5872 346.046 73.5872C352.253 73.5872 358.449 75.9476 363.191 80.6789L369.435 86.9235Z" fill="#1D4ED8"/>
</svg>