<svg width="512" height="512" viewBox="0 0 512 512" fill="none" xmlns="http://www.w3.org/2000/svg">
<rect width="512" height="512" rx="48" fill="#DBEAFE"/>
<path d="M204.8 417.85L212.14 464.09L204.8 506.46H102.4L94.3 465.72L102.4 417.85H204.8Z" fill="#3B82F6"/>
<path d="M409.6 417.85L420.45 462.63L409.6 503.87H307.2L297.1 462.87L307.2 417.85H409.6Z" fill="#93C5FD"/>
<path d="M102.4 425.06V511.6L23.9 506.45C12.52 506.45 3.3 497.23 3.3 485.85L0 425.07L102.4 425.07Z" fill="#2563EB"/>
<path d="M204.8 417.86H307.2V506.46H204.8V417.86Z" fill="#60A5FA"/>
<path d="M512 425.07V491C512 492.78 511.77 494.5 511.35 496.15C511.35 496.15 496.94 509.14 487.33 509.14L409.6 508.74V417.86L512 425.07Z" fill="#BFDBFE"/>

<path d="M512 32.07V425H3.21L1 35.64C1 20.69 6.3 4.56 15.2 1.01C16.85 0.35 18.57 0 20.35 0H491.38C502.77 0 512 14.35 512 32.07Z" fill="#F8FAFC"/>

<path fill-rule="evenodd" clip-rule="evenodd" d="M343.66 168.6C358.89 168.6 371.22 156.83 371.22 142.3C371.22 127.77 358.89 116 343.66 116C328.43 116 316.08 127.77 316.08 142.3C316.08 156.83 328.43 168.6 343.66 168.6V168.6ZM345.27 327.84H276.25L263.04 328L263.15 327.84H96.44C91.45 327.84 89.51 324.58 92.23 320.53L209.37 142.61C212.03 138.57 216.41 138.49 219.15 142.42L304.17 265.37L336.07 216.8C338.73 212.77 343.16 212.66 345.99 216.56L419.65 317.76C422.48 321.65 420.7 324.91 415.77 325.06L350.14 326.98L345.27 327.84Z" fill="#3B82F6"/>
</svg>