<svg width="300" height="300" viewBox="0 0 300 300" fill="none" xmlns="http://www.w3.org/2000/svg">
  <path d="M241.16 150C241.16 200.35 200.35 241.16 150 241.16V300C232.85 300 300 232.85 300 150H241.16Z" fill="#DBEAFE"/>
  <path d="M150 0C67.15 0 0 67.15 0 150H58.84C58.84 99.65 99.65 58.84 150 58.84V0Z" fill="#60A5FA"/>
  <path d="M0 150C0 232.85 67.15 300 150 300V241.16C99.65 241.16 58.84 200.35 58.84 150H0Z" fill="#93C5FD"/>
  <path d="M300 150C300 67.15 232.85 0 150 0V58.84C200.35 58.84 241.16 99.65 241.16 150H300Z" fill="#3B82F6"/>

  <path d="M212.68 55.19L134.77 133.1C130.17 137.7 130.17 145.15 134.77 149.75L150.22 165.2C154.82 169.8 162.27 169.8 166.87 165.2L244.78 87.29L212.68 55.19Z" fill="#BFDBFE"/>
  <path d="M259 81.96C255.03 77.99 255.03 71.56 259 67.59L275.31 51.28C282.66 43.93 282.66 32.01 275.31 24.66C267.96 17.31 256.04 17.31 248.69 24.66L232.38 40.97C228.41 44.94 221.98 44.94 218.01 40.97C214.2 37.16 208.03 37.16 204.22 40.97C200.42 44.78 200.42 50.95 204.22 54.75L245.22 95.74C249.02 99.55 255.19 99.55 259 95.74C262.8 91.94 262.8 85.77 259 81.96Z" fill="#1E40AF"/>
</svg>