<svg width="300" height="300" viewBox="0 0 300 300" fill="none" xmlns="http://www.w3.org/2000/svg">
<g clip-path="url(#clip0)">
<path d="M272.5 45V155.3C267.071 147.074 260.312 139.808 252.5 133.8V45C252.5 33.9543 243.546 25 232.5 25H52.5C41.4543 25 32.5 33.9543 32.5 45V185C32.5 196.046 41.4543 205 52.5 205H107.5C107.5 254.706 147.794 295 197.5 295H52.5C30.4086 295 12.5 277.091 12.5 255V45C12.5 22.9086 30.4086 4.99999 52.5 4.99999H232.5C254.591 4.99999 272.5 22.9086 272.5 45Z" fill="#DBEAFE"/>
<path d="M232.5 4.99999H217.5C239.591 4.99999 257.5 22.9086 257.5 45V138C263.228 143.096 268.27 148.915 272.5 155.31V45C272.5 22.9086 254.591 4.99999 232.5 4.99999Z" fill="#EFF6FF"/>
<path d="M252.5 45V115L193.55 56.05C191.585 54.1001 188.415 54.1001 186.45 56.05L123.4 119.1L111.05 131.45C109.085 133.4 105.915 133.4 103.95 131.45L93.55 121.05C91.585 119.1 88.415 119.1 86.45 121.05L32.5 175V45C32.5 33.9543 41.4543 25 52.5 25H232.5C243.546 25 252.5 33.9543 252.5 45Z" fill="#EFF6FF"/>
<path d="M252.5 115V133.8C219.19 108.021 172.446 108.832 140.05 135.75C139 136.6 138 137.5 137 138.4C118.179 155.421 107.458 179.624 107.5 205H52.5C41.4543 205 32.5 196.046 32.5 185V175L86.45 121.05C88.415 119.1 91.585 119.1 93.55 121.05L103.95 131.45C105.915 133.4 109.085 133.4 111.05 131.45L123.4 119.1L186.45 56.05C188.415 54.1001 191.585 54.1001 193.55 56.05L252.5 115Z" fill="#3B82F6"/>
<path d="M182.5 115C161.509 114.966 141.174 122.31 125.05 135.75C124 136.6 123 137.5 122 138.4C103.179 155.421 92.4581 179.624 92.4999 205H107.5C107.458 179.624 118.179 155.421 137 138.4C138 137.5 139 136.6 140.05 135.75C154.253 123.924 171.771 116.788 190.195 115.325C187.655 115.108 185.09 115 182.5 115V115Z" fill="#93C5FD"/>
<path d="M193.55 56.05C191.585 54.1001 188.415 54.1001 186.45 56.05L182.5 60L237.5 115V124.455C242.796 127.067 247.821 130.198 252.5 133.8V115L193.55 56.05Z" fill="#93C5FD"/>
<path d="M287.5 205C287.514 246.277 259.449 282.272 219.415 292.323C179.38 302.373 137.641 283.903 118.157 247.514C98.6738 211.125 106.441 166.147 137 138.4C138 137.5 139 136.6 140.05 135.75C166.897 113.487 204.19 108.739 235.759 123.565C267.328 138.392 287.489 170.123 287.5 205Z" fill="#EFF6FF"/>
<path d="M77.5 90C88.5457 90 97.5 81.0457 97.5 70C97.5 58.9543 88.5457 50 77.5 50C66.4543 50 57.5 58.9543 57.5 70C57.5 81.0457 66.4543 90 77.5 90Z" fill="#EFF6FF"/>
<path d="M152.5 240C160.784 240 167.5 233.284 167.5 225C167.5 216.716 160.784 210 152.5 210C144.216 210 137.5 216.716 137.5 225C137.5 233.284 144.216 240 152.5 240Z" fill="#EFF6FF"/>
<path d="M242.5 240C250.784 240 257.5 233.284 257.5 225C257.5 216.716 250.784 210 242.5 210C234.216 210 227.5 216.716 227.5 225C227.5 233.284 234.216 240 242.5 240Z" fill="#EFF6FF"/>
<path d="M197.5 200C205.784 200 212.5 193.284 212.5 185C212.5 176.716 205.784 170 197.5 170C189.216 170 182.5 176.716 182.5 185C182.5 193.284 189.216 200 197.5 200Z" fill="#EFF6FF"/>
<path d="M12.5 255C12.5 277.091 30.4086 295 52.5 295H67.5C45.4086 295 27.5 277.091 27.5 255V45C27.5 22.9086 45.4086 4.99999 67.5 4.99999H52.5C30.4086 4.99999 12.5 22.9086 12.5 45V255Z" fill="#DBEAFE"/>
<path d="M7.49999 45H17.5V85H7.49999V45Z" fill="#DBEAFE"/>
<path d="M12.6 70C9.83857 70.0138 7.5888 67.7864 7.575 65.025C7.56119 62.2636 9.78857 60.0138 12.55 60H12.6C15.3614 60 17.6 62.2386 17.6 65C17.6 67.7614 15.3614 70 12.6 70V70Z" fill="#3B82F6"/>
<path d="M277.5 45C277.472 20.1586 257.341 0.027549 232.5 -6.67572e-06H52.5C27.6586 0.027549 7.52755 20.1586 7.49999 45C7.49999 46.7863 8.45299 48.437 9.99999 49.3301C11.547 50.2233 13.453 50.2233 15 49.3301C16.547 48.437 17.5 46.7863 17.5 45C17.522 25.6792 33.1792 10.022 52.5 9.99999H232.5C251.821 10.022 267.478 25.6792 267.5 45V141C264.402 137.571 261.06 134.371 257.5 131.425V45C257.483 31.1997 246.3 20.0165 232.5 20H52.5C38.6997 20.0165 27.5165 31.1997 27.5 45V185C27.5165 198.8 38.6997 209.983 52.5 210H102.755C103.768 230.121 111.186 249.392 123.925 265H102.5C99.7386 265 97.5 267.239 97.5 270C97.5 272.761 99.7386 275 102.5 275H133.5C140.042 280.993 147.39 286.042 155.33 290H52.5C33.1792 289.978 17.522 274.321 17.5 255V85C17.5 82.2386 15.2614 80 12.5 80C9.73857 80 7.49999 82.2386 7.49999 85V255C7.52755 279.841 27.6586 299.972 52.5 300H197.5C232.202 300.059 264.165 281.161 280.838 250.727C297.511 220.293 296.23 183.183 277.5 153.97V45ZM52.5 30H232.5C240.784 30 247.5 36.7157 247.5 45V102.93L197.07 52.5C193.165 48.5962 186.835 48.5962 182.93 52.5L107.5 127.93L97.07 117.5C93.1142 113.721 86.8858 113.721 82.93 117.5L37.5 162.93V45C37.5 36.7157 44.2157 30 52.5 30V30ZM37.5 185V177.07L90 124.57L100.43 135C104.335 138.904 110.665 138.904 114.57 135L190 59.57L247.5 117.07V124.375C219.018 106.588 183.247 105.215 153.485 120.764C123.723 136.314 104.421 166.462 102.755 200H52.5C44.2157 200 37.5 193.284 37.5 185V185ZM197.5 290C150.556 290 112.5 251.944 112.5 205C112.5 158.056 150.556 120 197.5 120C244.444 120 282.5 158.056 282.5 205C282.448 251.923 244.423 289.948 197.5 290Z" fill="#1D4ED8"/>
<path d="M72.5 275C75.2614 275 77.5 272.761 77.5 270C77.5 267.239 75.2614 265 72.5 265H57.5C54.7386 265 52.5 267.239 52.5 270C52.5 272.761 54.7386 275 57.5 275H72.5Z" fill="#1D4ED8"/>
<path d="M77.5 95C91.3071 95 102.5 83.8071 102.5 70C102.5 56.1929 91.3071 45 77.5 45C63.6929 45 52.5 56.1929 52.5 70C52.5165 83.8003 63.6997 94.9835 77.5 95ZM77.5 55C85.7843 55 92.5 61.7157 92.5 70C92.5 78.2843 85.7843 85 77.5 85C69.2157 85 62.5 78.2843 62.5 70C62.5 61.7157 69.2157 55 77.5 55Z" fill="#1D4ED8"/>
<path d="M157.5 205.71V160C157.5 157.239 155.261 155 152.5 155C149.739 155 147.5 157.239 147.5 160V205.71C138.679 207.955 132.505 215.898 132.505 225C132.505 234.102 138.679 242.045 147.5 244.29V250C147.5 252.761 149.739 255 152.5 255C155.261 255 157.5 252.761 157.5 250V244.29C166.321 242.045 172.495 234.102 172.495 225C172.495 215.898 166.321 207.955 157.5 205.71V205.71ZM152.5 235C146.977 235 142.5 230.523 142.5 225C142.5 219.477 146.977 215 152.5 215C158.023 215 162.5 219.477 162.5 225C162.5 230.523 158.023 235 152.5 235Z" fill="#1D4ED8"/>
<path d="M247.5 205.71V160C247.5 157.239 245.261 155 242.5 155C239.739 155 237.5 157.239 237.5 160V205.71C228.679 207.955 222.505 215.898 222.505 225C222.505 234.102 228.679 242.045 237.5 244.29V250C237.5 252.761 239.739 255 242.5 255C245.261 255 247.5 252.761 247.5 250V244.29C256.321 242.045 262.495 234.102 262.495 225C262.495 215.898 256.321 207.955 247.5 205.71V205.71ZM242.5 235C236.977 235 232.5 230.523 232.5 225C232.5 219.477 236.977 215 242.5 215C248.023 215 252.5 219.477 252.5 225C252.5 230.523 248.023 235 242.5 235Z" fill="#1D4ED8"/>
<path d="M202.5 165.71V160C202.5 157.239 200.261 155 197.5 155C194.739 155 192.5 157.239 192.5 160V165.71C183.679 167.955 177.505 175.898 177.505 185C177.505 194.102 183.679 202.045 192.5 204.29V250C192.5 252.761 194.739 255 197.5 255C200.261 255 202.5 252.761 202.5 250V204.29C211.321 202.045 217.495 194.102 217.495 185C217.495 175.898 211.321 167.955 202.5 165.71V165.71ZM197.5 195C191.977 195 187.5 190.523 187.5 185C187.5 179.477 191.977 175 197.5 175C203.023 175 207.5 179.477 207.5 185C207.5 190.523 203.023 195 197.5 195Z" fill="#1D4ED8"/>
</g>
<defs>
<clipPath id="clip0">
<rect width="300" height="300" fill="white"/>
</clipPath>
</defs>
</svg>