<svg width="512" height="512" viewBox="0 0 512 512" fill="none" xmlns="http://www.w3.org/2000/svg">
<path d="M420.571 0H91.4282C40.9585 0.06 0.06 40.9585 0 91.4282V420.571C0.06 471.04 40.9585 511.939 91.4282 511.999H420.571C471.04 511.939 511.939 471.04 511.999 420.571V91.4282C511.939 40.9585 471.04 0.06 420.571 0ZM475.428 420.571C475.428 450.868 450.868 475.428 420.571 475.428H91.4282C61.1314 475.428 36.571 450.868 36.571 420.571V91.4282C36.571 61.1314 61.1314 36.571 91.4282 36.571H420.571C450.868 36.571 475.428 61.1314 475.428 91.4282V420.571Z" fill="#3B82F6"/>
<path d="M347.429 237.714H274.285V164.571C274.285 154.472 266.099 146.285 255.999 146.285C245.9 146.285 237.713 154.472 237.713 164.571V237.714H164.571C154.472 237.714 146.285 245.901 146.285 256C146.285 266.1 154.472 274.285 164.571 274.285H237.714V347.429C237.714 357.528 245.901 365.715 256 365.715C266.1 365.715 274.285 357.527 274.285 347.429V274.285H347.429C357.528 274.285 365.715 266.099 365.715 255.999C365.715 245.9 357.527 237.714 347.429 237.714Z" fill="#2563EB"/>
</svg>