<svg width="512" height="512" viewBox="0 0 512 512" fill="none" xmlns="http://www.w3.org/2000/svg">
<path d="M384 256C384 185.31 326.69 128 256 128C185.31 128 128 185.31 128 256C128 326.69 185.31 384 256 384C326.69 384 384 326.69 384 256ZM320.61 241.78L256 348.5L191.39 241.78H226.203V176.295C226.203 176.295 244.364 176.295 256 176.295C267.637 176.295 285.798 176.295 285.798 176.295V241.78L320.61 241.78Z" fill="#3B82F6"/>
<path fill-rule="evenodd" clip-rule="evenodd" d="M144 32C82.4366 32 32 82.4366 32 144V368C32 429.563 82.4366 480 144 480H368C429.563 480 480 429.563 480 368V144C480 82.4366 429.563 32 368 32H144ZM0 144C0 64.7634 64.7634 0 144 0H368C447.237 0 512 64.7634 512 144V368C512 447.237 447.237 512 368 512H144C64.7634 512 0 447.237 0 368V144Z" fill="#3B82F6"/>
<path fill-rule="evenodd" clip-rule="evenodd" d="M352 112C352 94.3269 366.327 80 384 80C401.673 80 416 94.3269 416 112C416 129.673 401.673 144 384 144C366.327 144 352 129.673 352 112Z" fill="#2563EB"/>
</svg>