<svg width="512" height="512" viewBox="0 0 512 512" fill="none" xmlns="http://www.w3.org/2000/svg">
<g clip-path="url(#clip0)">
<path d="M425.462 31.9603H271.615C266.308 31.9603 262 24.9741 262 16.366C262 7.75787 266.308 0.771597 271.615 0.771597H425.462C430.77 0.771597 435.078 7.75787 435.078 16.366C435.078 24.9741 430.77 31.9603 425.462 31.9603Z" fill="#2563EB"/>
<path d="M502.386 104.044H271.615C266.308 104.044 262 97.0574 262 88.4493C262 79.8412 266.308 72.8549 271.615 72.8549H502.386C507.694 72.8549 512.001 79.8412 512.001 88.4493C512.001 97.0574 507.694 104.044 502.386 104.044Z" fill="#2563EB"/>
<path d="M425.462 176.127H271.615C266.308 176.127 262 169.141 262 160.533C262 151.925 266.308 144.938 271.615 144.938H425.462C430.77 144.938 435.078 151.925 435.078 160.533C435.078 169.141 430.77 176.127 425.462 176.127Z" fill="#2563EB"/>
<path d="M502.386 248.21H271.615C266.308 248.21 262 241.224 262 232.616C262 224.008 266.308 217.022 271.615 217.022H502.386C507.694 217.022 512.001 224.008 512.001 232.616C512.001 241.224 507.694 248.21 502.386 248.21Z" fill="#2563EB"/>
<path d="M425.462 320.294H271.615C266.308 320.294 262 313.307 262 304.699C262 296.091 266.308 289.105 271.615 289.105H425.462C430.77 289.105 435.078 296.091 435.078 304.699C435.078 313.307 430.77 320.294 425.462 320.294Z" fill="#2563EB"/>
<path d="M205.408 151.972L163.534 115.232C158.375 110.709 150.427 111.101 145.787 116.146C141.147 121.166 141.566 128.912 146.725 133.434L164.254 148.821H38.5625C31.6196 148.821 26 154.298 26 161.065C26 167.832 31.6196 173.309 38.5625 173.309H164.271L146.716 188.696C141.557 193.226 141.139 200.964 145.778 205.984C148.266 208.67 151.691 210.041 155.125 210.041C158.123 210.041 161.13 209.004 163.525 206.898L205.4 170.175C208.047 167.856 209.562 164.542 209.562 161.073C209.562 157.604 208.047 154.29 205.408 151.972Z" fill="#3B82F6"/>
</g>
<path d="M208.392 512C198.623 512 190.448 509.252 183.869 503.757C177.29 498.163 174 489.92 174 479.03H197.476C197.476 482.527 198.473 485.224 200.467 487.123C202.561 488.921 205.202 489.82 208.392 489.82C211.483 489.82 214.074 488.921 216.168 487.123C218.261 485.324 219.308 482.827 219.308 479.629V403.798H243.084V481.128C243.084 491.319 239.794 499.012 233.215 504.207C226.635 509.402 218.361 512 208.392 512Z" fill="#3B82F6"/>
<path d="M300.169 512C287.807 512 277.838 508.403 270.262 501.21C262.686 494.016 258.698 485.624 258.3 476.033H282.075C282.873 480.429 284.866 483.876 288.056 486.373C291.346 488.771 295.383 489.97 300.169 489.97C304.256 489.97 307.545 489.121 310.038 487.422C312.629 485.724 313.925 483.426 313.925 480.529C313.925 475.433 309.29 471.587 300.019 468.989L289.701 466.292C280.829 463.894 273.851 459.997 268.767 454.602C263.683 449.207 261.091 442.463 260.991 434.371C260.991 424.48 264.281 416.637 270.86 410.842C277.539 404.947 286.412 402 297.477 402C308.642 402 317.714 405.397 324.692 412.191C331.67 418.885 335.358 426.578 335.757 435.27H312.131C311.034 431.373 309.14 428.526 306.449 426.728C303.757 424.929 300.767 424.03 297.477 424.03C293.788 424.03 290.798 424.779 288.505 426.278C286.212 427.777 285.016 429.925 284.916 432.722C284.817 435.52 285.813 437.817 287.907 439.616C290.1 441.414 293.39 442.913 297.776 444.112L309.888 447.259C318.76 449.657 325.639 453.603 330.523 459.098C335.508 464.593 338 471.487 338 479.779C338 488.971 334.511 496.664 327.533 502.858C320.555 508.953 311.433 512 300.169 512Z" fill="#3B82F6"/>
<defs>
<clipPath id="clip0">
<rect width="512" height="346" fill="white"/>
</clipPath>
</defs>
</svg>