<svg width="300" height="300" viewBox="0 0 300 300" fill="none" xmlns="http://www.w3.org/2000/svg">
<path d="M214.523 53.7575V264.608C214.523 280.264 201.788 293 186.126 293H34.3973C18.7356 293 6 280.264 6 264.608V53.7575C6 38.1014 18.7356 25.3658 34.3973 25.3658H186.126C201.788 25.3652 214.523 38.1008 214.523 53.7575Z" fill="#3B82F6"/>
<path d="M214.523 53.7575V264.608C214.523 280.264 201.788 293 186.126 293H110.262V25.3652H186.126C201.788 25.3652 214.523 38.1008 214.523 53.7575Z" fill="#3B82F6"/>

<path d="M55.7205 6C51.0769 6 47.3123 9.76463 47.3123 14.4082V49.7709C47.3123 54.4144 51.0769 58.1791 55.7205 58.1791C60.3641 58.1791 64.1287 54.4144 64.1287 49.7709V14.4082C64.1287 9.76463 60.3641 6 55.7205 6Z" fill="#1D4ED8"/>
<path d="M91.9884 6C87.3449 6 83.5802 9.76463 83.5802 14.4082V49.7709C83.5802 54.4144 87.3449 58.1791 91.9884 58.1791C96.632 58.1791 100.397 54.4144 100.397 49.7709V14.4082C100.397 9.76463 96.6326 6 91.9884 6Z" fill="#1D4ED8"/>
<path d="M164.803 6C160.159 6 156.395 9.76463 156.395 14.4082V49.7709C156.395 54.4144 160.159 58.1791 164.803 58.1791C169.446 58.1791 173.211 54.4144 173.211 49.7709V14.4082C173.211 9.76463 169.446 6 164.803 6Z" fill="#1D4ED8"/>
<path d="M128.535 6C123.891 6 120.127 9.76463 120.127 14.4082V49.7709C120.127 54.4144 123.891 58.1791 128.535 58.1791C133.179 58.1791 136.943 54.4144 136.943 49.7709V14.4082C136.943 9.76463 133.179 6 128.535 6Z" fill="#1D4ED8"/>

<path d="M173.211 97.5194C173.211 102.166 169.444 105.928 164.803 105.928H55.7205C51.0792 105.928 47.3123 102.166 47.3123 97.5194C47.3123 92.878 51.0792 89.1112 55.7205 89.1112H164.803C169.444 89.1112 173.211 92.878 173.211 97.5194Z" fill="#2563EB"/>
<path d="M173.211 131.034C173.211 135.681 169.444 139.443 164.803 139.443H55.7205C51.0792 139.443 47.3123 135.681 47.3123 131.034C47.3123 126.393 51.0792 122.626 55.7205 122.626H164.803C169.444 122.626 173.211 126.393 173.211 131.034Z" fill="#2563EB"/>
<path d="M156.395 164.668C156.395 169.315 152.628 173.076 147.987 173.076H55.7205C51.0792 173.076 47.3123 169.315 47.3123 164.668C47.3123 160.027 51.0792 156.26 55.7205 156.26H147.987C152.628 156.26 156.395 160.027 156.395 164.668Z" fill="#2563EB"/>
<path d="M173.211 198.424C173.211 203.065 169.444 206.832 164.803 206.832H55.7205C51.0792 206.832 47.3123 203.065 47.3123 198.424C47.3123 193.777 51.0792 190.016 55.7205 190.016H164.803C169.444 190.016 173.211 193.777 173.211 198.424Z" fill="#2563EB"/>
<path d="M156.395 232.057C156.395 236.698 152.628 240.465 147.987 240.465H55.7205C51.0792 240.465 47.3123 236.698 47.3123 232.057C47.3123 227.41 51.0792 223.649 55.7205 223.649H147.987C152.628 223.649 156.395 227.41 156.395 232.057Z" fill="#2563EB"/>

<path d="M272.159 47.7316L293 64.548V257.517C293 271.481 286.088 284.474 274.508 292.277C273.801 292.759 272.977 292.994 272.159 292.994C271.34 292.994 270.516 292.759 269.81 292.277C258.229 284.474 251.318 271.481 251.318 257.517V64.548L272.159 47.7316Z" fill="#2563EB"/>
<path d="M272.159 6.00392C283.65 6.00392 293 15.3538 293 26.8507V64.5474H251.318V26.8507C251.318 15.3538 260.668 6.00392 272.159 6.00392Z" fill="#3B82F6"/>
</svg>