<svg width="512" height="512" viewBox="0 0 512 512" fill="none" xmlns="http://www.w3.org/2000/svg">
<path d="M455.262 187.91C448.472 181.121 440.233 177.729 430.532 177.729H418.902V163.907C418.902 119.302 402.906 81.0023 370.905 49.0022C338.906 17.0007 300.61 1 255.999 1C211.388 1 173.085 17.0007 141.088 49.0009C109.087 81.0023 93.0914 119.301 93.0914 163.907V177.729H81.4567C71.763 177.729 63.5188 181.121 56.7303 187.91C49.9418 194.693 46.5488 202.937 46.5488 212.64V477.092C46.5488 486.786 49.9431 495.033 56.7303 501.822C63.5188 508.604 71.763 512 81.4567 512H430.541C440.242 512 448.48 508.608 455.271 501.822C462.053 495.033 465.452 486.786 465.452 477.092V212.636C465.457 202.941 462.053 194.698 455.262 187.91ZM349.088 177.73H162.91V163.907C162.91 138.212 172.002 116.271 190.183 98.092C208.367 79.9108 230.304 70.8221 256.002 70.8221C281.703 70.8221 303.635 79.9095 321.82 98.092C339.996 116.269 349.088 138.212 349.088 163.907V177.73Z" fill="#3B82F6"/>
<path d="M96 292H118.563L152.951 339.534L187.651 292H210.214V402.291H185.317V334.408L153.107 378.835L120.741 334.252V402.291H96V292Z" fill="white"/>
<path d="M233.522 402.291V292H271.179C286.739 292 300.017 297.385 311.014 308.155C322.01 318.926 327.508 331.922 327.508 347.146C327.508 362.369 322.01 375.366 311.014 386.136C300.017 396.906 286.739 402.291 271.179 402.291H233.522ZM258.263 379.612H271.179C280.307 379.612 287.776 376.505 293.586 370.291C299.499 363.974 302.455 356.259 302.455 347.146C302.455 338.032 299.499 330.369 293.586 324.155C287.776 317.838 280.307 314.68 271.179 314.68H258.263V379.612Z" fill="white"/>
<path d="M377.744 404C367.266 404 358.086 400.79 350.202 394.369C342.318 387.845 338.168 379.612 337.753 369.67H362.028C362.858 372.984 364.725 375.676 367.63 377.748C370.534 379.819 373.906 380.854 377.744 380.854C382.619 380.854 386.406 379.456 389.103 376.66C391.8 373.864 393.149 370.188 393.149 365.631C393.149 361.282 391.696 357.657 388.792 354.757C385.887 351.858 382.256 350.408 377.899 350.408C373.854 350.408 370.43 351.495 367.63 353.67C364.829 355.741 362.806 358.485 361.561 361.903L341.177 355.534L353.936 292H408.242V314.68H371.986L368.252 332.233C371.883 330.265 376.603 329.282 382.412 329.282C392.786 329.282 401.085 332.803 407.309 339.845C413.533 346.887 416.645 356.052 416.645 367.34C416.645 378.731 413.118 387.689 406.064 394.214C399.114 400.738 389.674 404 377.744 404Z" fill="white"/>
</svg>