<svg width="64" height="64" viewBox="0 0 64 64" fill="none" xmlns="http://www.w3.org/2000/svg">
<g clip-path="url(#clip0)">
<path d="M14.3865 -4.30302e-07C10.3595 2.95725 9.2983 8.837 12.118 13.0611L26.6188 34.7809L21.3453 42.6787C16.5042 39.738 10.2396 41.1212 6.97107 46.0175C3.52016 51.188 4.71775 58.3119 9.6468 61.9326C14.5761 65.5517 21.3701 64.2967 24.8224 59.1261C27.1911 55.5781 27.3687 51.109 25.6546 47.485L32.1126 37.8115L38.57 47.4841C36.8567 51.1081 37.0343 55.577 39.4022 59.1252C42.8545 64.2956 49.6478 65.5507 54.5769 61.9317C59.5068 58.311 60.7044 51.1864 57.2535 46.0167C53.9849 41.1211 47.7204 39.7381 42.8793 42.678L37.6058 34.7801L52.1057 13.0612C54.9263 8.83712 53.8643 2.95737 49.8373 0.000123829L32.1125 26.5514L14.3865 -4.30302e-07ZM21.5691 52.5466C21.5691 55.8182 19.0401 58.4706 15.9206 58.4706C12.8012 58.4706 10.2722 55.8181 10.2722 52.5466C10.2722 49.2742 12.8012 46.6226 15.9206 46.6226C19.0401 46.6226 21.5691 49.2742 21.5691 52.5466ZM53.9536 52.5466C53.9536 55.8182 51.4246 58.4706 48.3051 58.4706C45.1857 58.4706 42.6567 55.8182 42.6567 52.5466C42.6567 49.2742 45.1857 46.6226 48.3051 46.6226C51.4245 46.6226 53.9536 49.2742 53.9536 52.5466Z" fill="#3B82F6"/>
<line x1="23" y1="6" x2="41" y2="6" stroke="#1D4ED8" stroke-width="4"/>
<line x1="24.5" y1="2" x2="24.5" y2="10" stroke="#1D4ED8" stroke-width="3" stroke-linejoin="round"/>
<line x1="39.5" y1="2" x2="39.5" y2="10" stroke="#1D4ED8" stroke-width="3"/>
</g>
<defs>
<clipPath id="clip0">
<rect width="64" height="64" fill="white"/>
</clipPath>
</defs>
</svg>