<svg width="300" height="300" viewBox="0 0 300 300" fill="none" xmlns="http://www.w3.org/2000/svg">
<g clip-path="url(#clip0)">
<path d="M224.278 247.075H5.85879C2.62324 247.075 0 244.452 0 241.216V71.1697L2.9291 62.7662H227.207L230.136 71.1697V241.216C230.136 244.452 227.514 247.075 224.278 247.075Z" fill="#D7D8FF"/>
<path d="M227.207 62.7668H208.107V219.187C208.107 222.422 205.484 225.046 202.248 225.046H0V241.217C0 244.453 2.62324 247.076 5.85879 247.076H224.278C227.514 247.076 230.137 244.453 230.137 241.217V71.1697L227.207 62.7668Z" fill="#D7D8FF"/>

<path d="M230.136 71.1697H0V19.0295C0 15.7934 2.62324 13.1701 5.85938 13.1701H224.277C227.513 13.1701 230.136 15.7934 230.136 19.0295V71.1697Z" fill="#9B9DFF"/>
<path d="M224.278 13.1701H208.107V71.1697H230.136V19.0289C230.136 15.7934 227.514 13.1701 224.278 13.1701V13.1701Z" fill="#9B9DFF"/>

<path d="M28.0846 50.5734C32.8166 50.5734 36.6527 46.7373 36.6527 42.0053C36.6527 37.2732 32.8166 33.4371 28.0846 33.4371C23.3525 33.4371 19.5164 37.2732 19.5164 42.0053C19.5164 46.7373 23.3525 50.5734 28.0846 50.5734Z" fill="#3B82F6"/>
<path d="M54.1406 50.5734C58.8727 50.5734 62.7088 46.7373 62.7088 42.0053C62.7088 37.2732 58.8727 33.4371 54.1406 33.4371C49.4086 33.4371 45.5725 37.2732 45.5725 42.0053C45.5725 46.7373 49.4086 50.5734 54.1406 50.5734Z" fill="#3B82F6"/>
<path d="M80.1967 50.5734C84.9287 50.5734 88.7648 46.7373 88.7648 42.0053C88.7648 37.2732 84.9287 33.4371 80.1967 33.4371C75.4646 33.4371 71.6285 37.2732 71.6285 42.0053C71.6285 46.7373 75.4646 50.5734 80.1967 50.5734Z" fill="#3B82F6"/>

<path d="M272.983 264.207C271.916 264.207 270.846 263.821 270.001 263.04L196.67 195.221C195.717 194.34 195.202 193.082 195.265 191.785C195.327 190.488 195.959 189.285 196.993 188.498L270.323 132.703C272.254 131.234 275.012 131.607 276.48 133.539C277.949 135.47 277.576 138.227 275.644 139.696L206.479 192.323L275.968 256.588C277.749 258.236 277.857 261.016 276.21 262.797C275.344 263.733 274.165 264.207 272.983 264.207V264.207Z" fill="#3B82F6"/>

<path d="M199.654 214.624C212.152 214.624 222.283 204.493 222.283 191.995C222.283 179.498 212.152 169.366 199.654 169.366C187.157 169.366 177.025 179.498 177.025 191.995C177.025 204.493 187.157 214.624 199.654 214.624Z" fill="#3B82F6"/>
<path d="M272.984 286.83C287.904 286.83 300 274.734 300 259.813C300 244.893 287.904 232.797 272.984 232.797C258.063 232.797 245.967 244.893 245.967 259.813C245.967 274.734 258.063 286.83 272.984 286.83Z" fill="#3B82F6"/>
<path d="M272.984 153.82C282.715 153.82 290.604 145.931 290.604 136.199C290.604 126.468 282.715 118.579 272.984 118.579C263.252 118.579 255.363 126.468 255.363 136.199C255.363 145.931 263.252 153.82 272.984 153.82Z" fill="#3B82F6"/>
<path d="M209.797 171.768C211.33 174.82 212.198 178.263 212.198 181.911C212.198 194.408 202.067 204.54 189.57 204.54C185.921 204.54 182.479 203.671 179.427 202.138C183.146 209.541 190.805 214.624 199.654 214.624C212.152 214.624 222.283 204.493 222.283 191.995C222.283 183.146 217.199 175.488 209.797 171.768Z" fill="#3B82F6"/>
<path d="M285.093 235.665C286.924 239.308 287.96 243.419 287.96 247.774C287.96 262.695 275.865 274.79 260.944 274.79C256.588 274.79 252.478 273.754 248.835 271.923C253.276 280.761 262.419 286.83 272.984 286.83C287.905 286.83 300.001 274.734 300.001 259.813C300 249.248 293.931 240.105 285.093 235.665V235.665Z" fill="#3B82F6"/>
<path d="M277.872 119.272C278.32 120.824 278.565 122.463 278.565 124.16C278.565 133.891 270.676 141.78 260.944 141.78C259.247 141.78 257.609 141.535 256.056 141.087C258.176 148.44 264.95 153.82 272.985 153.82C282.717 153.82 290.605 145.931 290.605 136.199C290.604 128.165 285.224 121.391 277.872 119.272V119.272Z" fill="#3B82F6"/>

<path d="M72.7862 160.74C75.8891 163.887 79.6278 165.46 84.0024 165.46C88.377 165.46 92.0903 163.887 95.1423 160.74C98.1943 157.593 99.7203 153.846 99.7203 149.5C99.7203 145.154 98.1943 141.407 95.1423 138.26C92.0903 135.113 88.377 133.54 84.0024 133.54C79.6278 133.54 75.8891 135.113 72.7862 138.26C69.7341 141.407 68.2081 145.154 68.2081 149.5C68.2081 153.846 69.7341 157.593 72.7862 160.74ZM103.764 168.907C98.3215 174.302 91.7342 177 84.0024 177C76.2706 177 69.6578 174.327 64.1642 168.982C58.7214 163.587 56 157.093 56 149.5C56 141.907 58.7214 135.438 64.1642 130.093C69.6578 124.698 76.2706 122 84.0024 122C91.7342 122 98.3215 124.698 103.764 130.093C109.258 135.488 112.005 141.957 112.005 149.5C112.005 157.043 109.258 163.512 103.764 168.907Z" fill="#3B82F6"/>
<path d="M146.013 177C137.721 177 130.88 174.352 125.488 169.057C120.096 163.762 117.4 157.243 117.4 149.5C117.4 141.757 120.096 135.238 125.488 129.943C130.88 124.648 137.671 122 145.86 122C151.507 122 156.695 123.499 161.426 126.496C166.156 129.493 169.463 133.54 171.345 138.635H157.382C154.686 135.238 150.845 133.54 145.86 133.54C140.977 133.54 137.035 135.063 134.034 138.11C131.083 141.158 129.608 144.954 129.608 149.5C129.608 154.046 131.109 157.842 134.11 160.89C137.111 163.937 141.079 165.46 146.013 165.46C153.999 165.46 158.679 161.989 160.052 155.045H144.487V143.88H172.642C173.303 149.325 173.049 154.221 171.879 158.567C170.76 162.863 168.929 166.335 166.385 168.982C163.893 171.58 160.917 173.578 157.458 174.977C153.999 176.326 150.184 177 146.013 177Z" fill="#3B82F6"/>
</g>
<defs>
<clipPath id="clip0">
<rect width="300" height="300" fill="white"/>
</clipPath>
</defs>
</svg>