<svg width="512" height="512" viewBox="0 0 512 512" fill="none" xmlns="http://www.w3.org/2000/svg">
<g clip-path="url(#clip0)">
<path d="M266.18 501.921C266.18 507.475 261.654 512 256.091 512C250.537 512 246.012 507.475 246.012 501.921C246.012 496.368 250.537 491.843 256.091 491.843C261.654 491.843 266.18 496.368 266.18 501.921ZM44.3465 501.921V489.172C44.3465 421.975 89.9225 385.33 109.878 373.367C136.981 357.13 166.093 344.854 196.535 336.788V320.56C191.46 316.08 186.82 310.986 182.72 305.307C170.647 288.588 160.794 270.46 153.368 251.32C146.572 250.392 140.359 246.067 137.164 239.302C134.117 232.852 112.983 193.757 109.744 186.799C101.535 169.161 112.264 151.734 125.865 146.125C128.13 145.19 130.458 144.5 132.827 144.106C130.625 135.096 129.512 125.831 129.512 116.41C129.512 52.221 181.733 0 245.921 0C257.201 0 267.885 4.31471 276.002 12.1489C276.089 12.2326 276.225 12.2326 276.312 12.1489C284.431 4.31471 295.114 0 306.394 0C350.02 0 385.512 35.4923 385.512 79.1181V97.4725C385.512 113.277 383.342 128.835 379.059 143.914C381.479 144.306 383.895 144.938 386.187 145.975C402.922 153.554 409.457 172.281 402.307 186.65C398.889 193.519 377.936 232.7 374.888 239.152C371.694 245.914 365.482 250.239 358.691 251.17C351.261 270.356 341.393 288.526 329.297 305.283C325.192 310.968 320.546 316.07 315.465 320.555V336.787C345.906 344.853 375.019 357.129 402.122 373.366C422.077 385.329 467.654 421.974 467.654 489.171V501.921C467.654 507.488 463.141 512 457.575 512H301.465C301.455 512 301.455 512 301.445 512C295.669 512 291.004 507.115 291.388 501.247C291.739 495.89 296.431 491.843 301.799 491.843H447.496C447.496 449.284 426.139 411.263 391.751 390.662C367.474 376.114 341.475 364.934 314.311 357.355C308.878 384.582 284.801 405.165 256 405.165C227.2 405.165 203.122 384.583 197.689 357.355C170.531 364.934 144.525 376.114 120.249 390.662C85.8608 411.263 64.5039 448.114 64.5039 491.843H210.746C216.532 491.843 221.19 496.753 220.792 502.622C220.428 507.969 215.739 512 210.381 512H54.4252C48.8587 512 44.3465 507.488 44.3465 501.921ZM149.706 117.955C150.636 116.861 164.544 99.7795 188.48 99.7795C200.419 99.7795 211.886 103.94 220.967 111.358C229.333 118.19 239.984 121.953 250.961 121.953C276.937 121.953 297.745 101.061 298.333 74.3902C298.454 68.9124 302.928 64.5342 308.407 64.5332C313.886 64.5322 318.362 68.9083 318.486 74.3861C318.775 87.2567 325.703 98.4169 336.566 103.512C347.251 108.523 356.192 116.109 362.749 125.392C364.483 116.227 365.355 106.9 365.355 97.4735V79.1181C365.355 46.6071 338.906 20.1575 306.395 20.1575C300.364 20.1575 294.652 22.4645 290.311 26.6532C282.375 34.3151 269.941 34.3141 262.004 26.6532C257.664 22.4645 251.952 20.1575 245.921 20.1575C192.848 20.1575 149.198 62.7805 149.706 117.955ZM295.307 333.982C271.444 345.246 243.873 346.546 216.693 333.986V345.701C216.693 367.375 234.326 385.008 256 385.008C277.674 385.008 295.307 367.375 295.307 345.701V333.982ZM312.953 293.485C325.455 276.168 335.366 257.208 342.388 237.125C343.621 233.6 348.302 228.267 356.235 231.389C359.974 223.423 381.03 184.49 384.082 178.04C386.407 173.127 383.595 166.728 378.311 164.53C375.326 163.29 372.024 163.506 369.123 164.989C362.867 168.185 355.129 164.413 354.331 157.499C352.518 141.804 342.344 128.486 328.007 121.762C320.76 118.364 314.58 113.379 309.765 107.278C306.732 112.735 302.796 117.644 298.473 122.302C279.343 142.924 239.353 152.092 208.216 126.971C196.069 117.17 178.004 117.76 166.858 129.067C160.794 135.218 157.228 143.521 157.228 152.005V155.973C157.261 163.375 149.393 168.317 142.628 164.981C139.826 163.599 136.623 163.538 133.741 164.683C129.17 166.497 125.269 172.414 127.97 178.191C130.993 184.658 152.514 224.173 155.7 231.391C164.576 228.302 168.741 234.641 169.663 237.27C176.692 257.305 186.584 276.227 199.062 293.509C212.482 312.094 233.235 322.754 255.997 322.751C278.768 322.747 299.528 312.081 312.953 293.485ZM472.693 60.4724V10.0787C472.693 4.51225 468.181 0 462.614 0H412.22C406.654 0 402.142 4.51225 402.142 10.0787C402.142 15.6452 406.654 20.1575 412.22 20.1575H452.535V60.4724C452.535 66.0389 457.048 70.5512 462.614 70.5512C468.181 70.5512 472.693 66.0389 472.693 60.4724ZM472.693 335.622V285.228C472.693 279.662 468.181 275.15 462.614 275.15C457.048 275.15 452.535 279.662 452.535 285.228V325.543H412.22C406.654 325.543 402.142 330.056 402.142 335.622C402.142 341.189 406.654 345.701 412.22 345.701H462.614C468.181 345.701 472.693 341.189 472.693 335.622ZM59.4646 60.4724V20.1575H99.7795C105.346 20.1575 109.858 15.6452 109.858 10.0787C109.858 4.51225 105.346 0 99.7795 0H49.3858C43.8194 0 39.3071 4.51225 39.3071 10.0787V60.4724C39.3071 66.0389 43.8194 70.5512 49.3858 70.5512C54.9523 70.5512 59.4646 66.0389 59.4646 60.4724ZM109.858 335.622C109.858 330.056 105.346 325.543 99.7795 325.543H59.4646V285.228C59.4646 279.662 54.9523 275.15 49.3858 275.15C43.8194 275.15 39.3071 279.662 39.3071 285.228V335.622C39.3071 341.189 43.8194 345.701 49.3858 345.701H99.7795C105.346 345.701 109.858 341.189 109.858 335.622Z" fill="#3B82F6"/>

<rect x="87" y="129" width="338" height="114" fill="#1D4ED8"/>
</g>
<defs>
<clipPath id="clip0">
<rect width="512" height="512" fill="white"/>
</clipPath>
</defs>
</svg>