<svg width="512" height="512" viewBox="0 0 512 512" fill="none" xmlns="http://www.w3.org/2000/svg">
<g filter="url(#filter0_d_466_1202)">
<rect width="480" height="480" rx="32" fill="white"/>
</g>
<path d="M375.324 174.117C370.967 172.617 366.453 171.198 361.804 169.856C362.568 166.738 363.269 163.66 363.893 160.635C374.127 110.955 367.436 70.9324 344.585 57.7553C322.675 45.1202 286.842 58.2944 250.652 89.789C247.172 92.8175 243.683 96.024 240.194 99.3844C237.87 97.161 235.55 95.0125 233.235 92.9573C195.307 59.2812 157.291 45.0896 134.463 58.3048C112.573 70.9765 106.091 108.601 115.304 155.683C116.193 160.231 117.233 164.875 118.409 169.597C113.029 171.124 107.834 172.753 102.864 174.485C58.3981 189.988 30 214.284 30 239.487C30 265.516 60.4854 291.623 106.8 307.453C110.455 308.703 114.248 309.884 118.156 311.005C116.888 316.112 115.784 321.116 114.858 325.997C106.074 372.262 112.934 408.998 134.765 421.59C157.315 434.594 195.159 421.228 232.01 389.015C234.923 386.469 237.846 383.769 240.775 380.938C244.57 384.593 248.36 388.052 252.129 391.297C287.824 422.013 323.078 434.417 344.889 421.79C367.416 408.749 374.737 369.285 365.233 321.272C364.507 317.605 363.662 313.859 362.713 310.046C365.371 309.26 367.98 308.449 370.524 307.606C418.673 291.653 450 265.863 450 239.487C450 214.193 420.686 189.733 375.324 174.117ZM364.881 290.575C362.585 291.335 360.228 292.07 357.827 292.783C352.511 275.955 345.338 258.061 336.559 239.574C344.936 221.527 351.833 203.862 356.999 187.144C361.296 188.387 365.466 189.698 369.484 191.082C408.35 204.462 432.058 224.244 432.058 239.487C432.058 255.723 406.454 276.8 364.881 290.575ZM347.631 324.756C351.834 345.987 352.434 365.183 349.65 380.188C347.149 393.672 342.118 402.662 335.898 406.262C322.662 413.924 294.357 403.965 263.83 377.696C260.331 374.685 256.806 371.469 253.27 368.066C265.104 355.123 276.932 340.076 288.476 323.365C308.779 321.563 327.962 318.618 345.358 314.597C346.214 318.053 346.976 321.442 347.631 324.756ZM173.187 404.938C160.256 409.505 149.956 409.636 143.73 406.046C130.482 398.405 124.974 368.909 132.487 329.344C133.347 324.812 134.372 320.158 135.552 315.4C152.757 319.205 171.799 321.943 192.152 323.592C203.773 339.945 215.942 354.975 228.206 368.136C225.527 370.722 222.858 373.185 220.204 375.505C203.908 389.749 187.579 399.855 173.187 404.938ZM112.603 290.476C92.1236 283.476 75.2108 274.378 63.6178 264.451C53.2008 255.53 47.9415 246.673 47.9415 239.487C47.9415 224.193 70.7424 204.686 108.77 191.427C113.384 189.819 118.215 188.303 123.227 186.878C128.483 203.974 135.377 221.849 143.697 239.923C135.27 258.266 128.277 276.425 122.97 293.722C119.397 292.694 115.934 291.613 112.603 290.476ZM132.912 152.238C125.018 111.899 130.261 81.469 143.452 73.8331C157.503 65.6985 188.574 77.2967 221.321 106.374C223.415 108.233 225.516 110.178 227.624 112.191C215.421 125.294 203.363 140.211 191.844 156.467C172.092 158.298 153.183 161.239 135.799 165.177C134.706 160.781 133.738 156.461 132.912 152.238ZM314.081 196.973C309.925 189.795 305.658 182.786 301.309 175.969C314.709 177.663 327.549 179.912 339.606 182.663C335.986 194.265 331.474 206.394 326.163 218.829C322.353 211.596 318.324 204.303 314.081 196.973ZM240.2 125.013C248.476 133.979 256.764 143.99 264.916 154.851C256.701 154.463 248.385 154.261 240 154.261C231.694 154.261 223.439 154.458 215.276 154.839C223.436 144.079 231.795 134.082 240.2 125.013ZM165.847 197.097C161.695 204.296 157.741 211.549 153.991 218.816C148.766 206.424 144.296 194.239 140.645 182.474C152.628 179.792 165.407 177.599 178.722 175.937C174.311 182.817 170.009 189.878 165.847 197.096V197.097ZM179.105 304.316C165.348 302.781 152.377 300.701 140.397 298.093C144.107 286.118 148.675 273.673 154.011 261.014C157.771 268.276 161.741 275.532 165.918 282.746H165.919C170.173 290.096 174.581 297.295 179.105 304.316ZM240.697 355.225C232.193 346.049 223.711 335.9 215.427 324.983C223.468 325.298 231.667 325.46 240 325.46C248.561 325.46 257.023 325.267 265.353 324.896C257.174 336.01 248.917 346.175 240.697 355.225ZM326.334 260.369C331.948 273.164 336.68 285.544 340.438 297.316C328.26 300.094 315.112 302.332 301.259 303.994C305.619 297.085 309.923 289.956 314.152 282.623C318.431 275.204 322.493 267.773 326.334 260.369ZM298.611 273.659C292.045 285.043 285.305 295.91 278.462 306.168C265.999 307.059 253.123 307.518 240 307.518C226.93 307.518 214.216 307.112 201.974 306.317C194.855 295.925 187.968 285.026 181.445 273.757H181.446C174.94 262.519 168.952 251.186 163.526 239.917C168.95 228.622 174.923 217.276 181.392 206.059L181.39 206.061C187.876 194.813 194.703 183.967 201.755 173.64C214.246 172.696 227.055 172.203 239.999 172.203H240C253.003 172.203 265.828 172.699 278.315 173.652C285.26 183.904 292.04 194.715 298.552 205.964C305.137 217.339 311.187 228.609 316.658 239.662C311.203 250.905 305.167 262.289 298.611 273.659ZM335.623 73.2993C349.688 81.41 355.157 114.12 346.321 157.013C345.757 159.75 345.122 162.538 344.433 165.363C327.008 161.343 308.086 158.351 288.276 156.492C276.735 140.058 264.776 125.117 252.772 112.182C255.999 109.078 259.222 106.117 262.432 103.323C293.439 76.339 322.419 65.6851 335.623 73.2993ZM240 201.982C260.713 201.982 277.505 218.773 277.505 239.487C277.505 260.199 260.713 276.991 240 276.991C219.287 276.991 202.495 260.199 202.495 239.487C202.495 218.773 219.287 201.982 240 201.982Z" fill="#3B82F6"/>
<defs>
<filter id="filter0_d_466_1202" x="0" y="0" width="512" height="512" filterUnits="userSpaceOnUse" color-interpolation-filters="sRGB">
<feFlood flood-opacity="0" result="BackgroundImageFix"/>
<feColorMatrix in="SourceAlpha" type="matrix" values="0 0 0 0 0 0 0 0 0 0 0 0 0 0 0 0 0 0 127 0" result="hardAlpha"/>
<feOffset dx="32" dy="32"/>
<feComposite in2="hardAlpha" operator="out"/>
<feColorMatrix type="matrix" values="0 0 0 0 0.231 0 0 0 0 0.51 0 0 0 0 0.965 0 0 0 0.2 0"/>
<feBlend mode="normal" in2="BackgroundImageFix" result="effect1_dropShadow_466_1202"/>
<feBlend mode="normal" in="SourceGraphic" in2="effect1_dropShadow_466_1202" result="shape"/>
</filter>
</defs>
</svg>