<svg width="512" height="512" viewBox="0 0 512 512" fill="none" xmlns="http://www.w3.org/2000/svg">
<path d="M455.262 187.91C448.472 181.121 440.233 177.729 430.532 177.729H418.902V163.907C418.902 119.302 402.906 81.0023 370.905 49.0022C338.906 17.0007 300.61 1 255.999 1C211.388 1 173.085 17.0007 141.088 49.0009C109.087 81.0023 93.0914 119.301 93.0914 163.907V177.729H81.4567C71.763 177.729 63.5188 181.121 56.7303 187.91C49.9418 194.693 46.5488 202.937 46.5488 212.64V477.092C46.5488 486.786 49.9431 495.033 56.7303 501.822C63.5188 508.604 71.763 512 81.4567 512H430.541C440.242 512 448.48 508.608 455.271 501.822C462.053 495.033 465.452 486.786 465.452 477.092V212.636C465.457 202.941 462.053 194.698 455.262 187.91ZM349.088 177.73H162.91V163.907C162.91 138.212 172.002 116.271 190.183 98.092C208.367 79.9108 230.304 70.8221 256.002 70.8221C281.703 70.8221 303.635 79.9095 321.82 98.092C339.996 116.269 349.088 138.212 349.088 163.907V177.73Z" fill="#3B82F6"/>
<path d="M182.88 305.464C174.944 305.464 168.544 303.16 163.68 298.552C158.816 293.944 156.256 288.568 156 282.424H171.264C171.776 285.24 173.056 287.448 175.104 289.048C177.216 290.584 179.808 291.352 182.88 291.352C185.504 291.352 187.616 290.808 189.216 289.72C190.88 288.632 191.712 287.16 191.712 285.304C191.712 282.04 188.736 279.576 182.784 277.912L176.16 276.184C170.464 274.648 165.984 272.152 162.72 268.696C159.456 265.24 157.792 260.92 157.728 255.736C157.728 249.4 159.84 244.376 164.064 240.664C168.352 236.888 174.048 235 181.152 235C188.32 235 194.144 237.176 198.624 241.528C203.104 245.816 205.472 250.744 205.728 256.312H190.56C189.856 253.816 188.64 251.992 186.912 250.84C185.184 249.688 183.264 249.112 181.152 249.112C178.784 249.112 176.864 249.592 175.392 250.552C173.92 251.512 173.152 252.888 173.088 254.68C173.024 256.472 173.664 257.944 175.008 259.096C176.416 260.248 178.528 261.208 181.344 261.976L189.12 263.992C194.816 265.528 199.232 268.056 202.368 271.576C205.568 275.096 207.168 279.512 207.168 284.824C207.168 290.712 204.928 295.64 200.448 299.608C195.968 303.512 190.112 305.464 182.88 305.464Z" fill="white"/>
<path d="M217.878 304.312V236.152H233.142V262.84H260.598V236.152H275.862V304.312H260.598V277.336H233.142V304.312H217.878Z" fill="white"/>
<path d="M282.957 304.312L312.141 236.152H325.965L355.149 304.312H339.213L333.165 289.912H304.941L298.893 304.312H282.957ZM319.053 256.216L310.413 276.664H327.597L319.053 256.216Z" fill="white"/>
<path d="M201.397 431.806V456.199H121V447.85C121 444.685 121.328 441.629 121.984 438.682C122.641 435.626 123.406 433.007 124.281 430.824C125.157 428.532 126.524 426.186 128.383 423.784C130.243 421.383 131.829 419.419 133.142 417.891C134.454 416.363 136.423 414.562 139.048 412.488C141.673 410.306 143.697 408.723 145.119 407.741C146.541 406.649 148.783 405.067 151.846 402.993C154.909 400.81 157.042 399.282 158.245 398.409C169.949 390.115 175.801 382.693 175.801 376.145C175.801 372.106 174.598 368.832 172.191 366.322C169.894 363.703 166.503 362.393 162.019 362.393C157.315 362.393 153.487 363.812 150.533 366.649C147.689 369.487 146.268 372.925 146.268 376.963H121.492C121.492 365.613 125.375 356.281 133.142 348.969C141.017 341.656 150.916 338 162.839 338C173.34 338 182.255 341.22 189.583 347.659C196.912 353.989 200.576 362.884 200.576 374.344C200.576 381.001 199.428 386.95 197.131 392.188C194.834 397.427 192.154 401.629 189.091 404.794C186.028 407.959 181.872 411.506 176.621 415.435C176.403 415.544 174.215 416.963 170.058 419.692C166.011 422.311 162.894 424.548 160.706 426.404C158.518 428.259 156.932 430.06 155.948 431.806H201.397Z" fill="white"/>
<path d="M256.386 458C245.338 458 235.658 454.617 227.345 447.85C219.032 440.974 214.656 432.297 214.219 421.82H239.814C240.69 425.312 242.658 428.15 245.721 430.333C248.784 432.516 252.339 433.607 256.386 433.607C261.527 433.607 265.52 432.134 268.363 429.187C271.207 426.24 272.629 422.366 272.629 417.563C272.629 412.98 271.098 409.16 268.035 406.104C264.973 403.048 261.144 401.52 256.55 401.52C252.284 401.52 248.675 402.666 245.721 404.958C242.768 407.141 240.635 410.033 239.322 413.634L217.828 406.922L231.283 339.965H288.545V363.866H250.315L246.377 382.366C250.206 380.292 255.183 379.255 261.308 379.255C272.247 379.255 280.997 382.966 287.56 390.387C294.123 397.809 297.405 407.468 297.405 419.364C297.405 431.37 293.686 440.81 286.248 447.686C278.919 454.562 268.965 458 256.386 458Z" fill="white"/>
<path d="M380.291 446.54C372.853 454.18 362.899 458 350.429 458C337.959 458 328.006 454.18 320.567 446.54C313.129 438.9 309.41 429.187 309.41 417.4C309.41 413.689 310.012 410.142 311.215 406.759C312.418 403.266 313.731 400.374 315.153 398.082C316.684 395.681 319.364 391.697 323.193 386.131L355.679 339.965H386.197L357.648 380.565C366.508 381.329 374.329 385.04 381.111 391.697C388.002 398.246 391.448 406.868 391.448 417.563C391.448 429.241 387.729 438.9 380.291 446.54ZM350.429 434.262C355.023 434.262 358.852 432.679 361.914 429.514C364.977 426.349 366.508 422.475 366.508 417.891C366.508 413.307 364.977 409.432 361.914 406.267C358.852 403.102 355.023 401.52 350.429 401.52C345.616 401.52 341.733 403.102 338.78 406.267C335.826 409.323 334.35 413.198 334.35 417.891C334.35 422.584 335.826 426.513 338.78 429.678C341.733 432.734 345.616 434.262 350.429 434.262Z" fill="white"/>
</svg>
