<svg width="512" height="512" viewBox="0 0 512 512" fill="none" xmlns="http://www.w3.org/2000/svg">
<path d="M455.262 187.91C448.472 181.121 440.233 177.729 430.532 177.729H418.902V163.907C418.902 119.302 402.906 81.0023 370.905 49.0022C338.906 17.0007 300.61 1 255.999 1C211.388 1 173.085 17.0007 141.088 49.0009C109.087 81.0023 93.0914 119.301 93.0914 163.907V177.729H81.4567C71.763 177.729 63.5188 181.121 56.7303 187.91C49.9418 194.693 46.5488 202.937 46.5488 212.64V477.092C46.5488 486.786 49.9431 495.033 56.7303 501.822C63.5188 508.604 71.763 512 81.4567 512H430.541C440.242 512 448.48 508.608 455.271 501.822C462.053 495.033 465.452 486.786 465.452 477.092V212.636C465.457 202.941 462.053 194.698 455.262 187.91ZM349.088 177.73H162.91V163.907C162.91 138.212 172.002 116.271 190.183 98.092C208.367 79.9108 230.304 70.8221 256.002 70.8221C281.703 70.8221 303.635 79.9095 321.82 98.092C339.996 116.269 349.088 138.212 349.088 163.907V177.73Z" fill="#3B82F6"/>
<path d="M182.88 305.464C174.944 305.464 168.544 303.16 163.68 298.552C158.816 293.944 156.256 288.568 156 282.424H171.264C171.776 285.24 173.056 287.448 175.104 289.048C177.216 290.584 179.808 291.352 182.88 291.352C185.504 291.352 187.616 290.808 189.216 289.72C190.88 288.632 191.712 287.16 191.712 285.304C191.712 282.04 188.736 279.576 182.784 277.912L176.16 276.184C170.464 274.648 165.984 272.152 162.72 268.696C159.456 265.24 157.792 260.92 157.728 255.736C157.728 249.4 159.84 244.376 164.064 240.664C168.352 236.888 174.048 235 181.152 235C188.32 235 194.144 237.176 198.624 241.528C203.104 245.816 205.472 250.744 205.728 256.312H190.56C189.856 253.816 188.64 251.992 186.912 250.84C185.184 249.688 183.264 249.112 181.152 249.112C178.784 249.112 176.864 249.592 175.392 250.552C173.92 251.512 173.152 252.888 173.088 254.68C173.024 256.472 173.664 257.944 175.008 259.096C176.416 260.248 178.528 261.208 181.344 261.976L189.12 263.992C194.816 265.528 199.232 268.056 202.368 271.576C205.568 275.096 207.168 279.512 207.168 284.824C207.168 290.712 204.928 295.64 200.448 299.608C195.968 303.512 190.112 305.464 182.88 305.464Z" fill="white"/>
<path d="M217.878 304.312V236.152H233.142V262.84H260.598V236.152H275.862V304.312H260.598V277.336H233.142V304.312H217.878Z" fill="white"/>
<path d="M282.957 304.312L312.141 236.152H325.965L355.149 304.312H339.213L333.165 289.912H304.941L298.893 304.312H282.957ZM319.053 256.216L310.413 276.664H327.597L319.053 256.216Z" fill="white"/>
<path d="M155.711 466C144.033 466 133.937 462.507 125.424 455.523C116.911 448.428 112.437 438.551 112 425.891H136.557C137.102 431.13 139.067 435.059 142.45 437.678C145.834 440.297 150.254 441.607 155.711 441.607C160.513 441.607 164.333 440.461 167.171 438.169C170.117 435.768 171.645 432.658 171.754 428.838C171.864 424.69 170.336 421.307 167.171 418.688C164.005 416.068 159.804 414.759 154.565 414.759H144.415V394.95H153.255C163.187 394.95 168.262 390.748 168.48 382.344C168.589 378.851 167.389 376.014 164.879 373.831C162.368 371.539 159.149 370.393 155.22 370.393C150.417 370.393 146.488 371.812 143.432 374.649C140.377 377.487 138.903 380.925 139.012 384.963H114.292C114.292 373.176 118.385 363.735 126.57 356.641C134.865 349.547 144.415 346 155.22 346C167.116 346 176.447 349.329 183.214 355.986C189.981 362.535 193.364 370.611 193.364 380.216C193.364 385.454 192.164 390.311 189.763 394.786C187.471 399.151 184.633 402.644 181.25 405.263C185.615 407.446 189.271 410.72 192.218 415.086C195.165 419.452 196.638 424.745 196.638 430.966C196.638 441.225 192.819 449.629 185.179 456.177C177.648 462.726 167.825 466 155.711 466Z" fill="white"/>
<path d="M251.783 466C239.778 466 229.792 462.453 221.824 455.359C213.857 448.265 209.873 439.261 209.873 428.347C209.873 416.014 214.512 406.9 223.789 401.007C217.568 395.113 214.457 387.419 214.457 377.924C214.457 368.647 217.841 361.007 224.607 355.004C231.483 349.001 240.542 346 251.783 346C263.025 346 272.029 349.001 278.796 355.004C285.672 361.007 289.109 368.647 289.109 377.924C289.109 387.31 285.944 395.004 279.614 401.007C289 407.01 293.693 416.123 293.693 428.347C293.693 439.261 289.655 448.265 281.579 455.359C273.612 462.453 263.68 466 251.783 466ZM251.783 443.244C256.695 443.244 260.624 441.716 263.571 438.66C266.627 435.495 268.154 431.839 268.154 427.692C268.154 423.544 266.627 419.943 263.571 416.887C260.624 413.722 256.695 412.139 251.783 412.139C246.763 412.139 242.779 413.722 239.833 416.887C236.886 419.943 235.412 423.544 235.412 427.692C235.412 431.839 236.886 435.495 239.833 438.66C242.779 441.716 246.763 443.244 251.783 443.244ZM242.124 389.22C244.744 391.512 247.963 392.658 251.783 392.658C255.603 392.658 258.768 391.512 261.279 389.22C263.898 386.819 265.208 383.817 265.208 380.216C265.208 376.614 263.898 373.667 261.279 371.375C258.768 368.974 255.603 367.774 251.783 367.774C247.963 367.774 244.744 368.974 242.124 371.375C239.614 373.667 238.359 376.614 238.359 380.216C238.359 383.817 239.614 386.819 242.124 389.22Z" fill="white"/>
<path d="M359.963 464.199V438.988H303.155V419.015L362.419 347.965H384.683V416.396H399.581V438.988H384.683V464.199H359.963ZM333.278 416.396H359.963V384.472L333.278 416.396Z" fill="white"/>
</svg>
