<svg width="512" height="512" viewBox="0 0 512 512" fill="none" xmlns="http://www.w3.org/2000/svg">
<path d="M455.262 187.91C448.472 181.121 440.233 177.729 430.532 177.729H418.902V163.907C418.902 119.302 402.906 81.0023 370.905 49.0022C338.906 17.0007 300.61 1 255.999 1C211.388 1 173.085 17.0007 141.088 49.0009C109.087 81.0023 93.0914 119.301 93.0914 163.907V177.729H81.4567C71.763 177.729 63.5188 181.121 56.7303 187.91C49.9418 194.693 46.5488 202.937 46.5488 212.64V477.092C46.5488 486.786 49.9431 495.033 56.7303 501.822C63.5188 508.604 71.763 512 81.4567 512H430.541C440.242 512 448.48 508.608 455.271 501.822C462.053 495.033 465.452 486.786 465.452 477.092V212.636C465.457 202.941 462.053 194.698 455.262 187.91ZM349.088 177.73H162.91V163.907C162.91 138.212 172.002 116.271 190.183 98.092C208.367 79.9108 230.304 70.8221 256.002 70.8221C281.703 70.8221 303.635 79.9095 321.82 98.092C339.996 116.269 349.088 138.212 349.088 163.907V177.73Z" fill="#3B82F6"/>
<path d="M182.88 305.464C174.944 305.464 168.544 303.16 163.68 298.552C158.816 293.944 156.256 288.568 156 282.424H171.264C171.776 285.24 173.056 287.448 175.104 289.048C177.216 290.584 179.808 291.352 182.88 291.352C185.504 291.352 187.616 290.808 189.216 289.72C190.88 288.632 191.712 287.16 191.712 285.304C191.712 282.04 188.736 279.576 182.784 277.912L176.16 276.184C170.464 274.648 165.984 272.152 162.72 268.696C159.456 265.24 157.792 260.92 157.728 255.736C157.728 249.4 159.84 244.376 164.064 240.664C168.352 236.888 174.048 235 181.152 235C188.32 235 194.144 237.176 198.624 241.528C203.104 245.816 205.472 250.744 205.728 256.312H190.56C189.856 253.816 188.64 251.992 186.912 250.84C185.184 249.688 183.264 249.112 181.152 249.112C178.784 249.112 176.864 249.592 175.392 250.552C173.92 251.512 173.152 252.888 173.088 254.68C173.024 256.472 173.664 257.944 175.008 259.096C176.416 260.248 178.528 261.208 181.344 261.976L189.12 263.992C194.816 265.528 199.232 268.056 202.368 271.576C205.568 275.096 207.168 279.512 207.168 284.824C207.168 290.712 204.928 295.64 200.448 299.608C195.968 303.512 190.112 305.464 182.88 305.464Z" fill="white"/>
<path d="M217.878 304.312V236.152H233.142V262.84H260.598V236.152H275.862V304.312H260.598V277.336H233.142V304.312H217.878Z" fill="white"/>
<path d="M282.957 304.312L312.141 236.152H325.965L355.149 304.312H339.213L333.165 289.912H304.941L298.893 304.312H282.957ZM319.053 256.216L310.413 276.664H327.597L319.053 256.216Z" fill="white"/>
<path d="M180.074 458C169.05 458 159.392 454.617 151.097 447.85C142.802 440.974 138.437 432.297 138 421.82H163.539C164.412 425.312 166.377 428.15 169.432 430.333C172.488 432.516 176.035 433.607 180.074 433.607C185.203 433.607 189.187 432.134 192.025 429.187C194.862 426.24 196.281 422.366 196.281 417.563C196.281 412.98 194.753 409.16 191.697 406.104C188.641 403.048 184.821 401.52 180.237 401.52C175.981 401.52 172.379 402.666 169.432 404.958C166.486 407.141 164.357 410.033 163.048 413.634L141.602 406.922L155.026 339.965H212.161V363.866H174.016L170.087 382.366C173.907 380.292 178.873 379.255 184.985 379.255C195.899 379.255 204.63 382.966 211.179 390.387C217.727 397.809 221.001 407.468 221.001 419.364C221.001 431.37 217.291 440.81 209.869 447.686C202.557 454.562 192.625 458 180.074 458Z" fill="white"/>
<path d="M251.187 456.199V364.357H225.975L243.656 339.965H275.907V456.199H251.187Z" fill="white"/>
<path d="M374.769 431.806V456.199H294.551V447.85C294.551 444.685 294.878 441.629 295.533 438.682C296.188 435.626 296.952 433.007 297.825 430.824C298.698 428.532 300.063 426.186 301.918 423.784C303.773 421.383 305.356 419.419 306.666 417.891C307.975 416.363 309.94 414.562 312.559 412.488C315.179 410.306 317.198 408.723 318.616 407.741C320.035 406.649 322.273 405.067 325.329 402.993C328.385 400.81 330.513 399.282 331.713 398.409C343.391 390.115 349.23 382.693 349.23 376.145C349.23 372.106 348.03 368.832 345.629 366.322C343.337 363.703 339.953 362.393 335.479 362.393C330.786 362.393 326.966 363.812 324.019 366.649C321.181 369.487 319.762 372.925 319.762 376.963H295.042C295.042 365.613 298.917 356.281 306.666 348.969C314.524 341.656 324.401 338 336.297 338C346.775 338 355.67 341.22 362.982 347.659C370.295 353.989 373.951 362.884 373.951 374.344C373.951 381.001 372.805 386.95 370.513 392.188C368.221 397.427 365.547 401.629 362.491 404.794C359.435 407.959 355.288 411.506 350.049 415.435C349.831 415.544 347.648 416.963 343.501 419.692C339.462 422.311 336.352 424.548 334.169 426.404C331.986 428.259 330.404 430.06 329.421 431.806H374.769Z" fill="white"/>
</svg>
