<svg width="512" height="512" viewBox="0 0 512 512" fill="none" xmlns="http://www.w3.org/2000/svg">
<path d="M84.1417 389.58C82.1433 386.109 77.6207 384.952 74.1499 386.951L55.8491 397.573V376.433C55.8491 372.436 52.5887 369.176 48.592 369.176C44.5952 369.176 41.3348 372.436 41.3348 376.433V397.573L23.034 386.951C19.5632 384.952 15.0406 386.109 13.0422 389.58C11.0439 393.051 12.2008 397.573 15.6717 399.572L34.0776 410.3L15.6717 421.028C12.2008 423.026 11.0439 427.549 13.0422 431.02C15.0406 434.49 19.5632 435.647 23.034 433.649L41.3348 423.026V444.167C41.3348 448.163 44.5952 451.424 48.592 451.424C52.5887 451.424 55.8491 448.163 55.8491 444.167V423.026L74.1499 433.649C77.6207 435.647 82.1433 434.49 84.1417 431.02C86.14 427.549 84.9831 423.026 81.5122 421.028L63.1063 410.3L81.5122 399.572C84.9831 397.468 86.2452 393.051 84.1417 389.58Z" fill="#3B82F6"/>
<path d="M151.349 430.915C153.347 434.386 157.87 435.543 161.341 433.545L179.641 422.922V444.062C179.641 448.059 182.902 451.319 186.899 451.319C190.895 451.319 194.156 448.059 194.156 444.062V422.922L212.457 433.545C215.927 435.543 220.45 434.386 222.448 430.915C224.447 427.444 223.29 422.922 219.819 420.923L201.413 410.195L219.819 399.467C223.29 397.469 224.447 392.946 222.448 389.476C220.45 386.005 215.927 384.848 212.457 386.846L194.156 397.469V376.328C194.156 372.332 190.895 369.071 186.899 369.071C182.902 369.071 179.641 372.332 179.641 376.328V397.469L161.341 386.951C157.87 384.953 153.347 386.11 151.349 389.581C149.351 393.052 150.507 397.574 153.978 399.573L172.384 410.301L153.978 420.923C150.507 422.922 149.351 427.444 151.349 430.915Z" fill="#3B82F6"/>
<path d="M138.307 486.027V498.859C138.307 501.909 140.831 504.433 143.881 504.433H230.021C233.071 504.433 235.595 501.909 235.595 498.859V486.027C235.595 482.977 233.071 480.453 230.021 480.453H143.881C140.726 480.453 138.307 482.977 138.307 486.027Z" fill="#3B82F6"/>
<path d="M348.24 127.375H347.609V98.7669C347.609 49.0184 306.906 6.73734 257.262 7.57875C208.986 8.42017 169.86 47.9666 169.86 96.453V99.1876C169.86 103.29 173.226 106.655 177.328 106.655H201.203C205.305 106.655 208.671 103.29 208.671 99.1876V98.3462C208.671 71.6313 228.759 48.1769 255.474 46.4941C284.503 44.7061 308.694 67.7398 308.694 96.3479V127.27H235.07V127.375H167.021C154.399 127.796 144.197 137.998 144.197 150.724V280.091C144.197 293.028 154.715 303.546 167.652 303.546H348.135C361.072 303.546 371.589 293.028 371.589 280.091V150.829C371.694 137.893 361.177 127.375 348.24 127.375ZM271.882 221.298C270.094 222.56 269.568 223.927 269.568 226.031C269.673 235.497 269.673 244.962 269.568 254.534C269.778 258.53 267.78 262.317 264.204 264.105C255.895 268.312 247.586 262.422 247.586 254.534C247.586 254.534 247.586 254.534 247.586 254.428C247.586 244.962 247.586 235.391 247.586 225.926C247.586 224.032 247.165 222.665 245.482 221.403C236.858 215.092 234.018 204.259 238.33 194.688C242.537 185.432 252.74 179.963 262.311 181.962C273.039 184.065 280.506 192.795 280.611 203.418C280.927 210.885 277.877 216.985 271.882 221.298Z" fill="#3B82F6"/>
<path d="M276.51 486.027V498.859C276.51 501.909 279.034 504.433 282.084 504.433H368.224C371.274 504.433 373.798 501.909 373.798 498.859V486.027C373.798 482.977 371.274 480.453 368.224 480.453H282.084C279.034 480.453 276.51 482.977 276.51 486.027Z" fill="#3B82F6"/>
<path d="M289.552 430.915C291.55 434.386 296.073 435.543 299.544 433.545L317.845 422.922V444.062C317.845 448.059 321.105 451.319 325.102 451.319C329.098 451.319 332.359 448.059 332.359 444.062V422.922L350.66 433.545C354.13 435.543 358.653 434.386 360.651 430.915C362.65 427.444 361.493 422.922 358.022 420.923L339.616 410.195L358.022 399.467C361.493 397.469 362.65 392.946 360.651 389.476C358.653 386.005 354.13 384.848 350.66 386.846L332.359 397.469V376.328C332.359 372.332 329.098 369.071 325.102 369.071C321.105 369.071 317.845 372.332 317.845 376.328V397.469L299.544 386.846C296.073 384.848 291.55 386.005 289.552 389.476C287.554 392.946 288.711 397.469 292.181 399.467L310.587 410.195L292.181 420.923C288.711 422.922 287.554 427.444 289.552 430.915Z" fill="#3B82F6"/>
<path d="M506.425 480.453H420.285C417.235 480.453 414.711 482.977 414.711 486.027V498.859C414.711 501.909 417.235 504.433 420.285 504.433H506.425C509.475 504.433 511.999 501.909 511.999 498.859V486.027C511.999 482.977 509.475 480.453 506.425 480.453Z" fill="#3B82F6"/>
<path d="M5.57436 504.433H91.714C94.7642 504.433 97.2884 501.909 97.2884 498.859V486.027C97.2884 482.977 94.7642 480.453 91.714 480.453H5.57436C2.52424 480.453 0 482.977 0 486.027V498.859C0 501.909 2.52424 504.433 5.57436 504.433Z" fill="#3B82F6"/>
<path d="M427.859 430.915C429.857 434.386 434.379 435.543 437.85 433.545L456.151 422.922V444.062C456.151 448.059 459.412 451.319 463.408 451.319C467.405 451.319 470.665 448.059 470.665 444.062V422.922L488.966 433.545C492.437 435.543 496.96 434.386 498.958 430.915C500.956 427.444 499.799 422.922 496.329 420.923L477.923 410.195L496.329 399.467C499.799 397.469 500.956 392.946 498.958 389.476C496.96 386.005 492.437 384.848 488.966 386.846L470.665 397.469V376.328C470.665 372.332 467.405 369.071 463.408 369.071C459.412 369.071 456.151 372.332 456.151 376.328V397.469L437.85 386.846C434.379 384.848 429.857 386.005 427.859 389.476C425.86 392.946 427.017 397.469 430.488 399.467L448.894 410.195L430.488 420.923C427.017 422.922 425.755 427.444 427.859 430.915Z" fill="#3B82F6"/>
</svg>
