<svg width="512" height="512" viewBox="0 0 512 512" fill="none" xmlns="http://www.w3.org/2000/svg">
<path d="M381.433 236.117C379.9 237.2 348.1 270.833 348.1 294.45C348.1 319.35 363.917 335.25 381.433 336.117C396.533 336.85 414.767 321.267 414.767 294.45C414.767 269.45 382.967 237.2 381.433 236.117ZM105 219.45C105 228.35 108.467 236.717 114.767 243.017L207.867 336.117C214.167 342.417 222.533 345.883 231.433 345.883C240.333 345.883 248.7 342.417 255 336.117L371.667 219.45L359.883 207.667L231.433 79.2167L193.217 41L169.65 64.5667L207.867 102.783L114.767 195.883C108.467 202.183 105 210.55 105 219.45ZM231.433 126.35L324.533 219.45L231.433 312.55H231.45L231.433 329.217V312.55L138.333 219.45L231.433 126.35Z" fill="#3B82F6"/>
<rect x="228.273" y="107" width="157.105" height="162.818" transform="rotate(44.5738 228.273 107)" fill="#3B82F6" fill-opacity="0.29"/>
<rect x="48" y="395" width="66" height="49" fill="#3B82F6" fill-opacity="0.29"/>
<rect x="393" y="395" width="66" height="49" fill="#3B82F6" fill-opacity="0.29"/>
<rect x="126" y="401" width="268" height="43" fill="#3B82F6"/>
<mask id="path-6-inside-1_10476_273" fill="white">
<rect x="34" y="369" width="101" height="102" rx="12"/>
</mask>
<rect x="34" y="369" width="101" height="102" rx="12" stroke="#3B82F6" stroke-width="56" mask="url(#path-6-inside-1_10476_273)"/>
<mask id="path-7-inside-2_10476_273" fill="white">
<rect x="375" y="369" width="101" height="102" rx="12"/>
</mask>
<rect x="375" y="369" width="101" height="102" rx="12" stroke="#3B82F6" stroke-width="56" mask="url(#path-7-inside-2_10476_273)"/>
</svg>
