<svg width="512" height="512" viewBox="0 0 512 512" fill="none" xmlns="http://www.w3.org/2000/svg">
<path d="M56 444H200C210.605 443.988 220.772 439.77 228.271 432.271C235.77 424.772 239.988 414.605 240 404V228C240 226.949 239.793 225.909 239.391 224.938C238.989 223.968 238.4 223.086 237.657 222.343L173.657 158.343C172.914 157.6 172.032 157.011 171.062 156.609C170.091 156.207 169.051 156 168 156H56C45.395 156.012 35.2278 160.23 27.7289 167.729C20.23 175.228 16.0119 185.395 16 196V404C16.0119 414.605 20.23 424.772 27.7289 432.271C35.2278 439.77 45.395 443.988 56 444ZM176 183.313L212.687 220H200C193.637 219.993 187.537 217.462 183.038 212.962C178.538 208.463 176.007 202.363 176 196V183.313ZM32 196C32.0074 189.637 34.5384 183.537 39.0376 179.038C43.5369 174.538 49.6371 172.007 56 172H160V196C160.012 206.605 164.23 216.772 171.729 224.271C179.228 231.77 189.395 235.988 200 236H224V404C223.993 410.363 221.462 416.463 216.962 420.962C212.463 425.462 206.363 427.993 200 428H56C49.6371 427.993 43.5369 425.462 39.0376 420.962C34.5384 416.463 32.0074 410.363 32 404V196Z" fill="#3B82F6"/>
<path d="M429.657 158.343C428.914 157.6 428.032 157.011 427.062 156.609C426.091 156.207 425.051 156 424 156H312C301.395 156.012 291.228 160.23 283.729 167.729C276.23 175.228 272.012 185.395 272 196V404C272.012 414.605 276.23 424.772 283.729 432.271C291.228 439.77 301.395 443.988 312 444H456C466.605 443.988 476.772 439.77 484.271 432.271C491.77 424.772 495.988 414.605 496 404V228C496 226.949 495.793 225.909 495.391 224.938C494.989 223.968 494.4 223.086 493.657 222.343L429.657 158.343ZM432 183.313L468.687 220H456C449.637 219.993 443.537 217.462 439.038 212.962C434.538 208.463 432.007 202.363 432 196V183.313ZM480 404C479.993 410.363 477.462 416.463 472.962 420.962C468.463 425.462 462.363 427.993 456 428H312C305.637 427.993 299.537 425.462 295.038 420.962C290.538 416.463 288.007 410.363 288 404V196C288.007 189.637 290.538 183.537 295.038 179.038C299.537 174.538 305.637 172.007 312 172H416V196C416.012 206.605 420.23 216.772 427.729 224.271C435.228 231.77 445.395 235.988 456 236H480V404Z" fill="#3B82F6"/>
<path d="M328 116C328 118.122 328.843 120.157 330.343 121.657C331.843 123.157 333.878 124 336 124H376C378.122 124 380.157 123.157 381.657 121.657C383.157 120.157 384 118.122 384 116V76C384 73.8783 383.157 71.8434 381.657 70.3431C380.157 68.8429 378.122 68 376 68C373.878 68 371.843 68.8429 370.343 70.3431C368.843 71.8434 368 73.8783 368 76V91.573C362.061 87.586 354.07 83.689 343.383 80.126C319.924 72.307 288.891 68 256 68C223.109 68 192.076 72.307 168.617 80.126C135.047 91.316 128 105.811 128 116C128 118.122 128.843 120.157 130.343 121.657C131.843 123.157 133.878 124 136 124C138.122 124 140.157 123.157 141.657 121.657C143.157 120.157 144 118.122 144 116C144 102.952 187.631 84 256 84C311.231 84 350.312 96.368 363.294 108H336C333.878 108 331.843 108.843 330.343 110.343C328.843 111.843 328 113.878 328 116Z" fill="#3B82F6"/>
<rect x="16" y="326.4" width="224" height="83.2" fill="#3B82F6"/>
<rect x="272" y="326.4" width="224" height="83.2" fill="#3B82F6"/>
<path d="M75.8624 394.464C69.9104 394.464 65.1104 392.736 61.4624 389.28C57.8144 385.824 55.8944 381.792 55.7024 377.184H67.1504C67.5344 379.296 68.4944 380.952 70.0304 382.152C71.6144 383.304 73.5584 383.88 75.8624 383.88C77.8304 383.88 79.4144 383.472 80.6144 382.656C81.8624 381.84 82.4864 380.736 82.4864 379.344C82.4864 376.896 80.2544 375.048 75.7904 373.8L70.8224 372.504C66.5504 371.352 63.1904 369.48 60.7424 366.888C58.2944 364.296 57.0464 361.056 56.9984 357.168C56.9984 352.416 58.5824 348.648 61.7504 345.864C64.9664 343.032 69.2384 341.616 74.5664 341.616C79.9424 341.616 84.3104 343.248 87.6704 346.512C91.0304 349.728 92.8064 353.424 92.9984 357.6H81.6224C81.0944 355.728 80.1824 354.36 78.8864 353.496C77.5904 352.632 76.1504 352.2 74.5664 352.2C72.7904 352.2 71.3504 352.56 70.2464 353.28C69.1424 354 68.5664 355.032 68.5184 356.376C68.4704 357.72 68.9504 358.824 69.9584 359.688C71.0144 360.552 72.5984 361.272 74.7104 361.848L80.5424 363.36C84.8144 364.512 88.1264 366.408 90.4784 369.048C92.8784 371.688 94.0784 375 94.0784 378.984C94.0784 383.4 92.3984 387.096 89.0384 390.072C85.6784 393 81.2864 394.464 75.8624 394.464Z" fill="white"/>
<path d="M115.836 393.6L94.8845 342.48H107.34L120.948 376.536L134.484 342.48H147.084L126.132 393.6H115.836Z" fill="white"/>
<path d="M174.467 394.464C166.643 394.464 160.187 391.92 155.099 386.832C150.011 381.744 147.467 375.48 147.467 368.04C147.467 360.6 150.011 354.336 155.099 349.248C160.187 344.16 166.595 341.616 174.323 341.616C179.651 341.616 184.547 343.056 189.011 345.936C193.475 348.816 196.595 352.704 198.371 357.6H185.195C182.651 354.336 179.027 352.704 174.323 352.704C169.715 352.704 165.995 354.168 163.163 357.096C160.379 360.024 158.987 363.672 158.987 368.04C158.987 372.408 160.403 376.056 163.235 378.984C166.067 381.912 169.811 383.376 174.467 383.376C182.003 383.376 186.419 380.04 187.715 373.368H173.027V362.64H199.595C200.219 367.872 199.979 372.576 198.875 376.752C197.819 380.88 196.091 384.216 193.691 386.76C191.339 389.256 188.531 391.176 185.267 392.52C182.003 393.816 178.403 394.464 174.467 394.464Z" fill="white"/>
<path d="M340.853 347.52C344.309 350.88 346.037 355.032 346.037 359.976C346.037 364.92 344.309 369.072 340.853 372.432C337.445 375.744 333.173 377.4 328.037 377.4H322.133V393.6H310.685V342.48H328.037C333.173 342.48 337.445 344.16 340.853 347.52ZM334.949 359.976C334.949 358.056 334.277 356.472 332.933 355.224C331.637 353.928 329.957 353.28 327.893 353.28H322.133V366.672H327.893C329.909 366.672 331.589 366.024 332.933 364.728C334.277 363.432 334.949 361.848 334.949 359.976Z" fill="white"/>
<path d="M399.589 393.6H389.725L364.813 361.992V393.6H353.365V342.48H363.229L388.069 374.088V342.48H399.589V393.6Z" fill="white"/>
<path d="M434.58 394.464C426.756 394.464 420.3 391.92 415.212 386.832C410.124 381.744 407.58 375.48 407.58 368.04C407.58 360.6 410.124 354.336 415.212 349.248C420.3 344.16 426.708 341.616 434.436 341.616C439.764 341.616 444.66 343.056 449.124 345.936C453.588 348.816 456.708 352.704 458.484 357.6H445.308C442.764 354.336 439.14 352.704 434.436 352.704C429.828 352.704 426.108 354.168 423.276 357.096C420.492 360.024 419.1 363.672 419.1 368.04C419.1 372.408 420.516 376.056 423.348 378.984C426.18 381.912 429.924 383.376 434.58 383.376C442.116 383.376 446.532 380.04 447.828 373.368H433.14V362.64H459.708C460.332 367.872 460.092 372.576 458.988 376.752C457.932 380.88 456.204 384.216 453.804 386.76C451.452 389.256 448.644 391.176 445.38 392.52C442.116 393.816 438.516 394.464 434.58 394.464Z" fill="white"/>
</svg>
