<svg width="300" height="300" viewBox="0 0 300 300" fill="none" xmlns="http://www.w3.org/2000/svg">
<path d="M25 84L49.32 27.2H60.84L85.16 84H71.88L66.84 72H43.32L38.28 84H25ZM55.08 43.92L47.88 60.96H62.2L55.08 43.92Z" fill="#3B82F6"/>
<path d="M113 84.88C110.547 84.88 108.333 84.4 106.36 83.44C104.387 82.4267 102.973 81.28 102.12 80V84H90.04V24H102.12V48C102.973 46.72 104.387 45.6 106.36 44.64C108.333 43.6267 110.547 43.12 113 43.12C118.173 43.12 122.547 45.1733 126.12 49.28C129.747 53.3867 131.56 58.2933 131.56 64C131.56 69.7067 129.747 74.6133 126.12 78.72C122.547 82.8267 118.173 84.88 113 84.88ZM103.64 71.12C105.347 72.9867 107.56 73.92 110.28 73.92C113 73.92 115.187 72.9867 116.84 71.12C118.547 69.2533 119.4 66.88 119.4 64C119.4 61.12 118.547 58.7467 116.84 56.88C115.187 55.0133 113 54.08 110.28 54.08C107.56 54.08 105.347 55.0133 103.64 56.88C101.987 58.7467 101.16 61.12 101.16 64C101.16 66.88 101.987 69.2533 103.64 71.12Z" fill="#3B82F6"/>
<path d="M157.743 84.88C151.716 84.88 146.702 82.88 142.702 78.88C138.702 74.8267 136.702 69.8667 136.702 64C136.702 58.1333 138.702 53.2 142.702 49.2C146.702 45.1467 151.716 43.12 157.743 43.12C163.236 43.12 167.769 44.64 171.342 47.68C174.916 50.72 177.263 54.6933 178.383 59.6H165.902C164.142 55.8667 161.423 54 157.743 54C155.129 54 152.996 54.9067 151.342 56.72C149.689 58.48 148.863 60.9067 148.863 64C148.863 67.0933 149.689 69.5467 151.342 71.36C152.996 73.12 155.129 74 157.743 74C161.423 74 164.142 72.1333 165.902 68.4H178.383C177.263 73.3067 174.916 77.28 171.342 80.32C167.769 83.36 163.236 84.88 157.743 84.88Z" fill="#3B82F6"/>
<path d="M201.512 84.88C196.339 84.88 191.939 82.8267 188.312 78.72C184.739 74.6133 182.952 69.7067 182.952 64C182.952 58.2933 184.739 53.3867 188.312 49.28C191.939 45.1733 196.339 43.12 201.512 43.12C206.099 43.12 209.726 44.7467 212.393 48V24H224.473V84H212.393V80C209.726 83.2533 206.099 84.88 201.512 84.88ZM197.592 71.12C199.299 72.9867 201.512 73.92 204.232 73.92C206.952 73.92 209.139 72.9867 210.792 71.12C212.499 69.2533 213.353 66.88 213.353 64C213.353 61.12 212.499 58.7467 210.792 56.88C209.139 55.0133 206.952 54.08 204.232 54.08C201.512 54.08 199.299 55.0133 197.592 56.88C195.939 58.7467 195.113 61.12 195.113 64C195.113 66.88 195.939 69.2533 197.592 71.12Z" fill="#3B82F6"/>
<path d="M253.215 84.88C247.028 84.88 241.935 82.9067 237.935 78.96C233.988 75.0133 232.015 70 232.015 63.92C232.015 57.9467 234.015 52.9867 238.015 49.04C242.068 45.0933 247.135 43.12 253.215 43.12C256.148 43.12 258.895 43.6267 261.455 44.64C264.068 45.6533 266.362 47.12 268.335 49.04C270.362 50.96 271.935 53.44 273.055 56.48C274.175 59.52 274.682 62.96 274.575 66.8H243.775C243.988 68.9867 244.948 70.8267 246.655 72.32C248.362 73.76 250.762 74.48 253.855 74.48C255.615 74.48 257.215 74.1333 258.655 73.44C260.095 72.6933 261.055 71.7867 261.535 70.72H274.175C272.895 74.9333 270.335 78.3467 266.495 80.96C262.655 83.5733 258.228 84.88 253.215 84.88ZM252.895 52.72C250.602 52.72 248.682 53.3067 247.135 54.48C245.642 55.6533 244.628 57.2 244.095 59.12H261.215C260.628 56.9333 259.535 55.3333 257.935 54.32C256.388 53.2533 254.708 52.72 252.895 52.72Z" fill="#3B82F6"/>
<path d="M151.962 174.678L170.194 156.446C170.714 155.926 171 155.232 171 154.493C171 153.752 170.714 153.059 170.194 152.538L168.538 150.883C168.019 150.363 167.324 150.077 166.584 150.077C165.845 150.077 165.127 150.363 164.608 150.883L153.948 161.519L153.948 127.727C153.948 126.204 152.755 125 151.231 125L148.891 125C147.367 125 146.054 126.204 146.054 127.727L146.054 161.64L135.334 150.883C134.814 150.363 134.139 150.077 133.399 150.077C132.66 150.077 131.974 150.363 131.454 150.883L129.804 152.539C129.284 153.059 129 153.752 129 154.493C129 155.233 129.287 155.926 129.808 156.447L148.04 174.679C148.562 175.2 149.259 175.487 150 175.485C150.743 175.487 151.44 175.2 151.962 174.678Z" fill="#3B82F6"/>
<path d="M26.624 266.757C26.0827 266.757 25.6687 266.49 25.3821 265.956C25.1274 265.422 25 264.668 25 263.694C25 263.537 25 263.364 25 263.175C25 262.955 25.0318 262.547 25.0955 261.95C25.1911 259.688 26.3215 258.368 28.4868 257.991L29.5854 257.897C30.3178 257.803 30.891 257.583 31.3049 257.237C31.7189 256.86 32.0214 256.342 32.2125 255.682C32.7538 253.891 33.2951 252.084 33.8365 250.262C34.3778 248.44 34.951 246.633 35.556 244.842C35.8744 243.837 36.1928 242.769 36.5113 241.638C36.8615 240.475 37.2277 239.328 37.6099 238.197C38.0238 237.066 38.4855 235.951 38.995 234.851C39.5364 233.752 40.1414 232.746 40.8101 231.835C41.0967 231.458 41.4947 231.065 42.0042 230.657C42.5137 230.248 43.0869 229.887 43.7237 229.573C44.3924 229.227 45.093 228.96 45.8254 228.772C46.5896 228.552 47.3379 228.442 48.0703 228.442C49.0256 228.442 49.965 228.74 50.8884 229.337C52.1303 230.186 53.3563 231.207 54.5663 232.401C55.7763 233.595 57.1297 235.118 58.6263 236.972C60.1229 238.826 61.8584 241.072 63.8326 243.711C65.8069 246.319 68.1792 249.477 70.9496 253.184C71.3635 253.655 71.7934 254.017 72.2392 254.268C72.7169 254.488 73.2741 254.598 73.911 254.598H76.6335C77.7481 254.598 78.6078 254.865 79.2128 255.399C79.8497 255.902 80.1681 256.609 80.1681 257.52C80.1681 257.708 80.1522 257.928 80.1204 258.18C80.1204 258.431 80.0726 258.682 79.9771 258.934L79.0695 261.573C79.0059 261.824 78.9581 262.044 78.9263 262.233C78.8944 262.421 78.8785 262.61 78.8785 262.798C78.8785 263.458 79.1014 264.134 79.5472 264.825L84.658 271.705C85.2312 272.554 85.5178 273.355 85.5178 274.109C85.5178 275.24 84.865 276.23 83.5594 277.078L81.7444 278.351C81.2986 278.633 80.8687 278.853 80.4547 279.01C80.0726 279.167 79.6746 279.246 79.2606 279.246C78.6874 279.246 78.1461 279.073 77.6366 278.728C77.159 278.413 76.6972 277.973 76.2514 277.408C74.723 275.271 73.1786 273.166 71.6183 271.093C70.0898 269.019 68.5295 266.961 66.9373 264.919C66.2049 263.914 65.2337 263.411 64.0237 263.411C60.1388 263.568 56.2858 263.788 52.4647 264.071C48.6753 264.322 44.8701 264.636 41.0489 265.013C39.6797 265.139 38.8199 265.862 38.4696 267.181L36.3202 274.957C35.747 277.031 34.4733 278.068 32.499 278.068H31.7348L30.2541 277.879C29.1714 277.785 28.3435 277.455 27.7703 276.89C27.229 276.324 26.9583 275.586 26.9583 274.675C26.9583 274.486 26.9743 274.282 27.0061 274.062C27.038 273.842 27.0857 273.606 27.1494 273.355C27.3086 272.727 27.4678 272.082 27.6271 271.423C27.8181 270.763 28.0092 270.119 28.2002 269.49C28.2639 269.239 28.3117 269.019 28.3435 268.831C28.3754 268.611 28.3913 268.406 28.3913 268.218C28.3913 267.244 28.0092 266.757 27.2449 266.757H26.624ZM49.36 241.873C49.0415 241.591 48.7549 241.355 48.5002 241.166C48.2454 240.978 47.9748 240.884 47.6882 240.884C46.8921 240.884 46.3349 241.433 46.0164 242.533C45.3796 244.387 44.7586 246.225 44.1536 248.047C43.5804 249.838 42.9913 251.676 42.3863 253.561C42.3226 253.718 42.2908 253.86 42.2908 253.985C42.2908 254.111 42.2908 254.252 42.2908 254.409C42.2908 255.572 42.9117 256.153 44.1536 256.153H44.6313C46.5418 255.902 48.4524 255.713 50.363 255.588C52.2736 255.431 54.1842 255.305 56.0948 255.211C56.7316 255.148 57.2252 254.991 57.5755 254.739C57.9576 254.457 58.1486 254.095 58.1486 253.655C58.1486 253.247 57.9576 252.76 57.5755 252.194C56.2381 250.435 54.8847 248.707 53.5155 247.01C52.1781 245.282 50.7929 243.57 49.36 241.873Z" fill="#3B82F6"/>
<path d="M87.1895 265.249C86.5845 257.897 85.884 250.592 85.0879 243.334C84.3237 236.077 83.1932 228.835 81.6966 221.608C81.6329 221.357 81.6011 221.137 81.6011 220.948C81.6011 220.729 81.6011 220.524 81.6011 220.336C81.6011 219.613 81.7444 218.985 82.031 218.451C82.3494 217.917 82.7633 217.477 83.2728 217.131C83.7823 216.754 84.3555 216.471 84.9924 216.283C85.6611 216.094 86.3616 216 87.094 216C89.0364 216 90.3738 216.895 91.1062 218.686C91.4247 219.597 91.7431 220.901 92.0615 222.598C92.4118 224.295 92.7621 226.258 93.1123 228.489C93.4945 230.72 93.8607 233.17 94.2109 235.841C94.5612 238.48 94.8956 241.198 95.214 243.994C95.3095 244.78 95.5643 245.172 95.9782 245.172C96.3285 245.172 96.6947 244.937 97.0768 244.465C101.726 238.433 107.235 235.417 113.603 235.417C115.992 235.417 118.221 235.935 120.29 236.972C122.36 238.009 124.159 239.423 125.688 241.214C127.216 243.004 128.41 245.125 129.27 247.576C130.162 250.027 130.608 252.666 130.608 255.493C130.608 258.133 130.178 260.583 129.318 262.845C128.49 265.108 127.328 267.055 125.831 268.689C124.334 270.323 122.551 271.611 120.481 272.554C118.444 273.465 116.214 273.92 113.794 273.92C110.801 273.92 107.872 273.355 105.006 272.224C102.14 271.061 99.4332 269.506 96.8857 267.558C96.5992 267.307 96.2966 267.181 95.9782 267.181C95.5643 267.181 95.1821 267.401 94.8319 267.841C94.3224 268.406 93.781 268.784 93.2079 268.972C92.6347 269.129 91.9341 269.208 91.1062 269.208C88.5906 269.208 87.2851 267.888 87.1895 265.249ZM111.932 244.183C110.658 244.183 109.384 244.481 108.11 245.078C106.869 245.644 105.69 246.46 104.576 247.529C103.461 248.597 102.426 249.885 101.471 251.393C100.548 252.87 99.7675 254.519 99.1307 256.342C99.067 256.436 99.0192 256.577 98.9874 256.766C98.9555 256.954 98.9396 257.111 98.9396 257.237C98.9396 257.771 99.1307 258.18 99.5128 258.462C100.659 259.436 101.837 260.348 103.047 261.196C104.289 262.044 105.515 262.783 106.725 263.411C107.935 264.039 109.129 264.542 110.308 264.919C111.486 265.265 112.584 265.437 113.603 265.437C115.896 265.437 117.632 264.778 118.81 263.458C120.02 262.138 120.625 260.222 120.625 257.708C120.625 255.76 120.402 253.97 119.956 252.336C119.51 250.671 118.905 249.241 118.141 248.047C117.377 246.822 116.453 245.879 115.371 245.219C114.32 244.528 113.173 244.183 111.932 244.183Z" fill="#3B82F6"/>
<path d="M153.821 237.255C155.477 237.255 157.085 237.49 158.645 237.962C160.206 238.433 161.575 239.077 162.753 239.894C163.963 240.679 164.934 241.591 165.667 242.627C166.399 243.633 166.765 244.67 166.765 245.738C166.765 246.429 166.622 247.105 166.335 247.764C166.049 248.393 165.667 248.958 165.189 249.461C164.711 249.932 164.17 250.325 163.565 250.639C162.96 250.922 162.323 251.063 161.655 251.063C160.922 251.063 160.253 250.796 159.648 250.262C159.043 249.697 158.391 249.084 157.69 248.424C157.021 247.733 156.257 247.12 155.397 246.586C154.569 246.021 153.566 245.738 152.388 245.738C151.242 245.738 150.207 246.005 149.284 246.539C148.36 247.073 147.58 247.827 146.943 248.801C146.338 249.744 145.86 250.875 145.51 252.194C145.192 253.483 145.032 254.896 145.032 256.436C145.032 260.835 145.876 264.196 147.564 266.521C149.252 268.815 151.672 269.962 154.824 269.962C156.321 269.962 157.595 269.726 158.645 269.255C159.728 268.784 160.667 268.265 161.464 267.7C162.291 267.134 163.04 266.616 163.708 266.144C164.377 265.673 165.062 265.437 165.762 265.437C166.144 265.437 166.527 265.563 166.909 265.814C167.291 266.034 167.625 266.333 167.912 266.71C168.23 267.055 168.485 267.448 168.676 267.888C168.899 268.328 169.01 268.768 169.01 269.208C169.01 270.244 168.485 271.313 167.434 272.412C166.415 273.512 165.094 274.517 163.47 275.429C161.846 276.308 160.031 277.031 158.024 277.596C156.05 278.162 154.124 278.445 152.245 278.445C149.729 278.445 147.421 277.958 145.319 276.984C143.217 276.041 141.402 274.722 139.874 273.025C138.345 271.297 137.151 269.239 136.292 266.851C135.464 264.463 135.05 261.824 135.05 258.934C135.05 255.792 135.511 252.901 136.435 250.262C137.39 247.623 138.696 245.345 140.352 243.429C142.039 241.481 144.029 239.973 146.322 238.904C148.615 237.805 151.115 237.255 153.821 237.255Z" fill="#3B82F6"/>
<path d="M202.159 241.685C202.286 241.748 202.477 241.779 202.732 241.779C203.433 241.779 203.783 241.324 203.783 240.412V225.756C203.783 223.902 204.197 222.582 205.025 221.797C205.885 221.011 207.302 220.619 209.276 220.619C211.282 220.619 212.699 221.027 213.527 221.844C214.355 222.661 214.769 224.059 214.769 226.038C214.769 226.792 214.721 227.908 214.626 229.384C214.53 230.83 214.419 232.479 214.291 234.333C214.196 236.187 214.1 238.182 214.005 240.318C213.909 242.423 213.861 244.513 213.861 246.586C213.861 249.791 214.084 252.556 214.53 254.881C214.976 257.206 215.613 259.138 216.441 260.677C217.268 262.186 218.256 263.317 219.402 264.071C220.548 264.793 221.838 265.155 223.271 265.155C224.067 265.155 224.783 265.06 225.42 264.872C226.089 264.652 226.869 264.542 227.761 264.542C228.398 264.542 228.923 264.872 229.337 265.532C229.783 266.16 230.006 266.93 230.006 267.841C230.006 268.658 229.751 269.428 229.241 270.15C228.764 270.873 228.095 271.501 227.235 272.035C226.407 272.569 225.436 272.994 224.322 273.308C223.207 273.591 222.045 273.732 220.835 273.732C218.224 273.732 215.836 272.946 213.67 271.376C211.505 269.773 209.881 267.338 208.798 264.071C208.703 263.568 208.543 263.317 208.321 263.317C208.066 263.317 207.859 263.568 207.7 264.071C206.84 266.364 205.709 268.438 204.308 270.292C202.939 272.114 201.331 273.685 199.484 275.004C197.669 276.293 195.663 277.282 193.466 277.973C191.3 278.665 189.008 279.01 186.588 279.01C184.04 279.01 181.7 278.586 179.566 277.738C177.465 276.921 175.65 275.774 174.121 274.297C172.593 272.789 171.399 271.03 170.539 269.019C169.679 266.977 169.249 264.778 169.249 262.421C169.249 259.405 169.886 256.562 171.16 253.891C172.433 251.22 174.153 248.895 176.318 246.916C178.515 244.905 181.063 243.319 183.961 242.156C186.858 240.994 189.947 240.412 193.227 240.412C194.564 240.412 195.981 240.522 197.478 240.742C198.975 240.931 200.535 241.245 202.159 241.685ZM188.451 270.527C190.266 270.527 191.874 270.135 193.275 269.349C194.708 268.564 195.965 267.574 197.048 266.38C198.163 265.155 199.102 263.819 199.866 262.374C200.63 260.897 201.251 259.468 201.729 258.085C202.207 256.703 202.557 255.462 202.78 254.362C203.003 253.263 203.114 252.477 203.114 252.006C203.114 251.66 203.019 251.362 202.828 251.11C202.637 250.828 202.35 250.608 201.968 250.451C201.108 250.231 200.217 250.042 199.293 249.885C198.37 249.697 197.462 249.54 196.57 249.414C195.679 249.288 194.819 249.194 193.991 249.131C193.195 249.068 192.463 249.037 191.794 249.037C189.883 249.037 188.148 249.32 186.588 249.885C185.027 250.451 183.69 251.252 182.575 252.289C181.493 253.325 180.649 254.567 180.044 256.012C179.439 257.426 179.136 258.981 179.136 260.677C179.136 262.186 179.359 263.552 179.805 264.778C180.283 265.972 180.92 266.993 181.716 267.841C182.544 268.689 183.531 269.349 184.677 269.82C185.823 270.292 187.081 270.527 188.451 270.527Z" fill="#3B82F6"/>
<path d="M268.17 265.814C269.093 265.029 270.001 264.636 270.892 264.636C271.402 264.636 271.863 264.762 272.277 265.013C272.691 265.265 273.153 265.657 273.663 266.191C274.14 266.914 274.475 267.511 274.666 267.982C274.889 268.422 275 268.862 275 269.302C275 270.244 274.522 271.14 273.567 271.988C272.039 273.245 270.383 274.376 268.6 275.381C266.816 276.355 264.954 277.188 263.011 277.879C261.069 278.57 259.063 279.089 256.993 279.434C254.923 279.811 252.869 280 250.831 280C248.252 280 245.832 279.67 243.571 279.01C241.31 278.382 239.288 277.471 237.505 276.277C235.753 275.083 234.273 273.653 233.063 271.988C231.853 270.292 230.993 268.391 230.483 266.286C230.197 265.406 229.926 264.84 229.671 264.589C229.448 264.306 229.066 264.165 228.525 264.165C227.347 264.165 226.439 263.882 225.802 263.317C225.166 262.751 224.847 261.934 224.847 260.866C224.847 260.426 224.879 260.143 224.943 260.018L225.038 259.075C225.197 257.944 225.5 257.127 225.946 256.624C226.423 256.122 227.156 255.87 228.143 255.87H228.859C230.197 255.87 231.136 255.258 231.677 254.032C232.665 251.865 233.922 249.885 235.451 248.094C236.979 246.303 238.699 244.78 240.609 243.523C242.52 242.235 244.558 241.245 246.723 240.554C248.921 239.831 251.15 239.47 253.41 239.47C255.767 239.47 257.964 239.815 260.002 240.507C262.072 241.166 263.871 242.093 265.399 243.287C266.928 244.481 268.122 245.879 268.982 247.482C269.873 249.084 270.319 250.812 270.319 252.666C270.319 253.954 270.064 255.132 269.555 256.2C269.045 257.269 268.313 258.211 267.358 259.028C266.402 259.813 265.24 260.458 263.871 260.96C262.533 261.463 261.005 261.793 259.285 261.95L242.711 263.599C242.074 263.599 241.549 263.757 241.135 264.071C240.753 264.385 240.562 264.809 240.562 265.343C240.562 266.16 240.864 266.946 241.469 267.7C242.106 268.454 242.934 269.129 243.953 269.726C245.004 270.292 246.198 270.747 247.535 271.093C248.905 271.438 250.306 271.611 251.739 271.611C253.108 271.611 254.509 271.486 255.942 271.234C257.407 270.951 258.84 270.559 260.241 270.056C261.674 269.553 263.059 268.956 264.396 268.265C265.734 267.542 266.991 266.726 268.17 265.814ZM257.518 253.655C257.996 253.561 258.41 253.341 258.76 252.996C259.11 252.619 259.285 252.163 259.285 251.629C259.285 251.158 259.11 250.718 258.76 250.309C258.41 249.901 257.932 249.54 257.327 249.225C256.722 248.88 256.022 248.613 255.225 248.424C254.429 248.236 253.586 248.141 252.694 248.141C251.388 248.141 250.051 248.33 248.682 248.707C247.312 249.084 246.071 249.587 244.956 250.215C243.842 250.812 242.934 251.487 242.233 252.242C241.533 252.964 241.183 253.687 241.183 254.409C241.183 255.132 241.628 255.493 242.52 255.493C243.061 255.493 243.937 255.431 245.147 255.305C246.357 255.179 247.695 255.038 249.159 254.881C250.624 254.692 252.105 254.488 253.601 254.268C255.098 254.048 256.404 253.844 257.518 253.655Z" fill="#3B82F6"/>
</svg>
