<svg width="512" height="512" viewBox="0 0 512 512" fill="none" xmlns="http://www.w3.org/2000/svg">
<path d="M477.715 34.2914C432.003 -11.4202 357.622 -11.4297 311.904 34.2662L311.914 34.2756L239.581 106.62L272.97 140.002L345.314 67.6417L345.308 67.6354C372.624 40.3665 417.029 40.3822 444.327 67.6795C471.627 94.9768 471.624 139.404 444.327 166.711L335.773 275.258C322.55 288.485 304.966 295.768 286.263 295.768C267.559 295.768 249.972 288.485 236.748 275.258L203.36 308.643C225.505 330.787 254.949 342.985 286.266 342.985C317.583 342.985 347.027 330.787 369.162 308.643L477.718 200.096C523.42 154.375 523.42 79.9935 477.715 34.2914Z" fill="#3B82F6"/>
<path d="M166.705 444.342C139.398 471.633 94.974 471.627 67.6736 444.327C40.3732 417.02 40.3732 372.586 67.6704 345.283L176.211 236.742C203.518 209.439 247.945 209.439 275.246 236.742L308.637 203.357C262.919 157.642 188.538 157.639 142.826 203.357L34.2791 311.898C-11.423 357.612 -11.423 431.997 34.2823 477.715C57.1444 500.574 87.1676 512.003 117.197 512C147.214 512 177.237 500.577 200.087 477.73L200.093 477.727L272.441 405.361L239.05 371.976L166.705 444.342Z" fill="#3B82F6"/>
</svg>
