<svg width="300" height="300" viewBox="0 0 300 300" fill="none" xmlns="http://www.w3.org/2000/svg">
<path d="M173 231.287H43V239.332H173V231.287Z" fill="#3B82F6"/>
<path d="M172.305 261.951H43.6289V269.789H172.305V261.951Z" fill="#A5A7FF"/>
<path d="M172.305 277.342H43.6289V285.179H172.305V277.342Z" fill="#A5A7FF"/>
<path d="M172.305 292.162H43.6289V300H172.305V292.162Z" fill="#A5A7FF"/>
<path d="M255.631 261.951H192.143V269.789H255.631V261.951Z" fill="#A5A7FF"/>
<path d="M255.631 246.56H192.143V254.398H255.631V246.56Z" fill="#A5A7FF"/>
<path d="M255.631 231.74H192.143V239.577H255.631V231.74Z" fill="#A5A7FF"/>
<path d="M255.631 277.342H192.143V285.179H255.631V277.342Z" fill="#A5A7FF"/>
<path d="M255.631 292.162H192.143V300H255.631V292.162Z" fill="#A5A7FF"/>
<path d="M249.474 208.159H50.5263C45.9789 208.159 42 204.185 42 199.644V53.7663C42 49.2253 45.9789 45.252 50.5263 45.252H249.474C254.021 45.252 258 49.2253 258 53.7663V199.644C258 204.185 254.021 208.159 249.474 208.159Z" fill="#3B82F6"/>
<path d="M74 0H36V23.1287H74V0Z" fill="#3B82F6"/>
<path d="M263 0H97V23.1287H263V0Z" fill="#A5A7FF"/>
<path d="M90 103.232L95.9339 110.798C95.9339 110.798 103.351 105.012 106.022 105.012C107.68 105.012 111.214 106.941 113.439 113.617C115.665 120.293 125.034 154.897 125.604 156.49C128.165 163.647 131.538 176.962 141.923 178.891C152.307 180.82 165.51 170.287 172.78 162.572C180.049 154.858 208.68 121.924 209.867 102.194C210.965 83.95 204.98 79.7169 202.301 78.0124C197.406 74.897 189.246 73.8587 181.532 76.5288C173.818 79.1988 162.098 87.9518 158.983 103.529C158.983 103.529 169.516 99.6715 173.373 103.38C177.23 107.089 176.192 115.248 172.928 121.331C169.664 127.413 160.467 141.506 157.054 141.951C153.642 142.396 150.972 135.721 150.527 133.94C150.082 132.16 144.445 107.682 142.368 93.4406C140.291 79.1991 131.242 76.8253 126.939 76.8253C122.637 76.8257 115.22 80.0896 90 103.232Z" fill="white"/>
</svg>
