<svg width="300" height="300" viewBox="0 0 300 300" fill="none" xmlns="http://www.w3.org/2000/svg">
<path d="M173 231.287H43V239.332H173V231.287Z" fill="#3B82F6"/>
<path d="M172.304 261.951H43.6282V269.789H172.304V261.951Z" fill="#A5A7FF"/>
<path d="M172.304 277.342H43.6282V285.179H172.304V277.342Z" fill="#A5A7FF"/>
<path d="M172.304 292.162H43.6282V300H172.304V292.162Z" fill="#A5A7FF"/>
<path d="M255.631 261.951H192.143V269.789H255.631V261.951Z" fill="#A5A7FF"/>
<path d="M255.631 246.56H192.143V254.398H255.631V246.56Z" fill="#A5A7FF"/>
<path d="M255.631 231.74H192.143V239.577H255.631V231.74Z" fill="#A5A7FF"/>
<path d="M255.631 277.342H192.143V285.179H255.631V277.342Z" fill="#A5A7FF"/>
<path d="M255.631 292.162H192.143V300H255.631V292.162Z" fill="#A5A7FF"/>
<path d="M249.474 208.159H50.5263C45.9789 208.159 42 204.185 42 199.644V53.7662C42 49.2252 45.9789 45.2519 50.5263 45.2519H249.474C254.021 45.2519 258 49.2252 258 53.7662V199.644C258 204.185 254.021 208.159 249.474 208.159Z" fill="#3B82F6"/>
<path d="M127 83.4646L195 122.9L127 162.907V83.4646Z" fill="white"/>
<path d="M74 0H36V23.1287H74V0Z" fill="#3B82F6"/>
<path d="M263 0H97V23.1287H263V0Z" fill="#A5A7FF"/>
</svg>
