<svg width="160" height="120" viewBox="0 0 160 120" fill="none" xmlns="http://www.w3.org/2000/svg">
<path d="M111.535 71.1977C111.133 71.4776 102.788 80.3072 102.788 86.5041C102.788 93.0378 106.939 97.2099 111.535 97.4373C115.497 97.6297 120.281 93.5407 120.281 86.5041C120.281 79.9442 111.937 71.4776 111.535 71.1977ZM65.9917 97.4373C67.6448 99.0904 69.8402 100 72.1755 100C74.5109 100 76.7062 99.0904 78.3593 97.4373L108.972 66.8245L105.88 63.7326L72.1755 30.0279L62.1477 20L55.9639 26.1838L65.9917 36.2117L41.5627 60.6407C39.9096 62.2938 39 64.4891 39 66.8245C39 69.1598 39.9096 71.3552 41.5627 73.0082L65.9917 97.4373ZM72.1755 42.3955L96.6046 66.8245H47.7465L72.1755 42.3955Z" fill="#3B82F6"/>
</svg>
