<svg width="160" height="120" viewBox="0 0 160 120" fill="none" xmlns="http://www.w3.org/2000/svg">
<path d="M63.5107 16H72.9637V19.9531H67.4638V23.9062H72.9637V27.8592H63.5107V16Z" fill="#3B82F6"/>
<path d="M74.8545 16H84.3078V19.4375H78.8078V20.1249H84.3078V28.0311H74.8545V24.4218H80.3544V23.7343H74.8545V16Z" fill="#3B82F6"/>
<path d="M86.1982 16H95.6512V19.4375H90.1512V20.1249H95.6512V28.0311H86.1982V24.4218H91.6982V23.7343H86.1982V16Z" fill="#3B82F6"/>
<path fill-rule="evenodd" clip-rule="evenodd" d="M79.9673 104L54.507 96.9319L47 33.2949H112.999L105.498 96.922L79.9673 104ZM61.8401 62.1004L62.5397 69.9052H89.5889L88.6829 80.0273L79.978 82.3769L79.9703 82.3794L71.278 80.0324L70.7223 73.8076H62.8875L63.981 86.0626L79.9684 90.5006L95.9784 86.0622L97.9297 64.1963L98.1204 62.1004L99.5295 46.3031H60.4347L61.1442 54.1079H90.976L90.2658 62.1004H61.8401Z" fill="#3B82F6"/>
</svg>
