<svg width="160" height="120" viewBox="0 0 160 120" fill="none" xmlns="http://www.w3.org/2000/svg">
<path d="M118.325 35.2565H116.203V33.1351C116.203 28.141 112.141 24.0781 107.146 24.0781H42.1351C37.141 24.0781 33.0781 28.1412 33.0781 33.1351V75.6871C33.0781 80.681 37.1412 84.7441 42.1351 84.7441H44.2565V86.8655C44.2565 91.8596 48.3196 95.9225 53.3136 95.9225H118.325C123.319 95.9225 127.382 91.8596 127.382 86.8655V44.3136C127.382 39.3194 123.319 35.2565 118.325 35.2565ZM120.708 86.8653C120.708 88.1817 119.641 89.2487 118.325 89.2487H53.3136C51.9972 89.2487 50.9301 88.1817 50.9301 86.8653V84.7439V81.4071V78.0703V44.3136C50.9301 42.9971 51.9972 41.9301 53.3136 41.9301H109.53H112.866H116.203H118.325C119.641 41.9301 120.708 42.9972 120.708 44.3136V86.8653H120.708ZM39.7517 75.6869V33.1351C39.7517 31.8188 40.8188 30.7517 42.1351 30.7517H107.146C108.463 30.7517 109.53 31.8188 109.53 33.1351V35.2565H53.3136C48.3196 35.2565 44.2565 39.3196 44.2565 44.3136V78.0703H42.1353C40.8188 78.0703 39.7517 77.0032 39.7517 75.6869Z" fill="#3B82F6"/>
<path d="M118.324 96H53.3132C48.2762 96 44.1783 91.9021 44.1783 86.8651V84.8216H42.1349C37.0979 84.8216 33 80.7237 33 75.6867V33.1349C33 28.0979 37.0979 24 42.1349 24H107.146C112.183 24 116.281 28.0979 116.281 33.1349V35.1784H118.325C123.361 35.1784 127.459 39.2764 127.459 44.3133V86.8651C127.459 91.9021 123.361 96 118.324 96ZM42.1349 24.1556C37.1838 24.1556 33.1558 28.1838 33.1558 33.1349V75.6868C33.1558 80.6378 37.1838 84.666 42.1349 84.666H44.3342V86.8653C44.3342 91.8162 48.3622 95.8444 53.3133 95.8444H118.324C123.275 95.8444 127.304 91.8164 127.304 86.8653V44.3133C127.304 39.3622 123.276 35.3342 118.325 35.3342H116.125V33.1349C116.125 28.1838 112.097 24.1558 107.146 24.1558H42.1349V24.1556ZM118.325 89.3264H53.3133C51.9562 89.3264 50.852 88.2222 50.852 86.8651V44.3133C50.852 42.9562 51.9562 41.852 53.3133 41.852H118.325C119.682 41.852 120.786 42.9562 120.786 44.3133V86.8651C120.786 88.2222 119.682 89.3264 118.325 89.3264ZM53.3133 42.0078C52.042 42.0078 51.0078 43.0422 51.0078 44.3133V86.8651C51.0078 88.1364 52.042 89.1706 53.3133 89.1706H118.325C119.596 89.1706 120.63 88.1364 120.63 86.8651V44.3133C120.63 43.042 119.596 42.0078 118.325 42.0078H53.3133ZM44.3342 78.148H42.1351C40.7779 78.148 39.6736 77.0438 39.6736 75.6867V33.1349C39.6736 31.7778 40.7778 30.6736 42.1349 30.6736H107.146C108.503 30.6736 109.607 31.7778 109.607 33.1349V35.3342H53.3133C48.3622 35.3342 44.3342 39.3622 44.3342 44.3133V78.148V78.148ZM42.1349 30.8292C40.8636 30.8292 39.8294 31.8634 39.8294 33.1347V75.6867C39.8294 76.9578 40.8637 77.9922 42.1351 77.9922H44.1786V44.3133C44.1786 39.2764 48.2765 35.1784 53.3135 35.1784H109.452V33.1349C109.452 31.8636 108.417 30.8294 107.146 30.8294H42.1349V30.8292Z" fill="#3B82F6"/>
<path d="M111.206 79.3691L109.01 77.173L98.3776 66.5408C97.4468 65.6099 95.9377 65.6099 95.007 66.5408L88.9654 72.5822L77.679 61.2959C76.7482 60.3649 75.239 60.3649 74.3084 61.2959L57.5311 78.0731L56.235 79.3691C55.6789 79.9252 55.4553 80.6876 55.5636 81.4099C55.6367 81.8966 55.8602 82.3652 56.235 82.7398L57.5834 84.0881C57.9388 84.4434 58.3785 84.6626 58.8381 84.7467C59.1227 84.7988 59.4148 84.7988 59.6992 84.7467C60.1589 84.6628 60.5987 84.4436 60.954 84.0881L63.6322 81.4099L66.969 78.0731L74.3082 70.7339C75.239 69.803 76.7482 69.803 77.6788 70.7339L85.0179 78.0731L88.3547 81.4099L91.033 84.0881C91.3884 84.4434 91.8281 84.6626 92.2878 84.7467C92.5723 84.7988 92.8644 84.7988 93.1488 84.7467C93.6085 84.6628 94.0481 84.4436 94.4036 84.0881L95.7521 82.7398C96.1266 82.365 96.3502 81.8966 96.4233 81.4099C96.5316 80.6876 96.3083 79.9254 95.7521 79.3691L94.456 78.0731L93.6844 77.3014L96.692 74.2935L100.472 78.0731L103.809 81.4099L106.487 84.0881C106.823 84.4238 107.234 84.6378 107.666 84.7313C108.232 84.8539 108.834 84.7685 109.35 84.4749C109.532 84.3715 109.703 84.2431 109.858 84.0882L111.206 82.74C112.08 81.8661 112.133 80.4823 111.366 79.546C111.316 79.4851 111.263 79.4261 111.206 79.3691Z" fill="#3B82F6"/>
<path d="M92.7189 84.8612C92.5701 84.8612 92.4205 84.8475 92.2743 84.8208C91.7814 84.7308 91.3334 84.4956 90.9785 84.1407L77.6241 70.7864C77.1887 70.3508 76.6097 70.1111 75.9939 70.1111C75.3781 70.1111 74.7991 70.3508 74.3637 70.7864L61.0095 84.1407C60.6548 84.4956 60.2066 84.7308 59.7137 84.8208C59.4213 84.8741 59.1171 84.8741 58.8245 84.8208C58.3316 84.7308 57.8836 84.4956 57.5288 84.1407L56.1803 82.7924C55.8054 82.4176 55.5656 81.9427 55.487 81.4191C55.3715 80.6492 55.6307 79.8613 56.1803 79.3117L74.2537 61.2385C74.7186 60.7737 75.3367 60.5176 75.9941 60.5176C76.6515 60.5176 77.2696 60.7737 77.7344 61.2385L88.9658 72.4699L94.9524 66.4835C95.4173 66.0186 96.0353 65.7625 96.6928 65.7625C97.3503 65.7625 97.9683 66.0186 98.4332 66.4835L111.261 79.3117C111.318 79.3684 111.374 79.4298 111.427 79.494C112.231 80.476 112.16 81.8939 111.261 82.7926L109.913 84.1409C109.758 84.2963 109.581 84.4306 109.389 84.5401C109.02 84.7501 108.6 84.861 108.173 84.861C108.173 84.861 108.173 84.861 108.173 84.861C107.998 84.861 107.822 84.8423 107.65 84.8051C107.188 84.7053 106.767 84.4756 106.432 84.1409L96.6928 74.4014L93.7953 77.2992L95.808 79.3119C96.3574 79.8613 96.6165 80.6492 96.501 81.4193C96.4225 81.9425 96.1829 82.4173 95.808 82.7926L94.4595 84.1409C94.1047 84.4957 93.6567 84.731 93.1638 84.821C93.0172 84.8475 92.8676 84.8612 92.7189 84.8612ZM75.9941 69.9553C76.6515 69.9553 77.2696 70.2114 77.7344 70.6762L91.0888 84.0306C91.4212 84.363 91.8409 84.5833 92.3025 84.6676C92.5763 84.7177 92.8617 84.7177 93.1356 84.6676C93.5971 84.5833 94.0168 84.363 94.3493 84.0306L95.6977 82.6823C96.0488 82.3309 96.2733 81.8861 96.347 81.3959C96.4551 80.6745 96.2124 79.9365 95.6977 79.4217L93.5749 77.2989L96.6926 74.1808L106.542 84.0306C106.856 84.3442 107.25 84.5593 107.683 84.6528C108.234 84.7718 108.825 84.682 109.312 84.4046C109.492 84.3021 109.658 84.1761 109.803 84.0306L111.151 82.6823C111.993 81.8406 112.06 80.5123 111.306 79.5927C111.257 79.5326 111.204 79.475 111.151 79.4217L98.323 66.5934C97.8876 66.1579 97.3086 65.9181 96.6928 65.9181C96.077 65.9181 95.498 66.1579 95.0626 66.5934L88.9658 72.69L77.6243 61.3485C77.1889 60.9129 76.6099 60.6732 75.9941 60.6732C75.3783 60.6732 74.7994 60.9129 74.3638 61.3485L56.2906 79.4217C55.7758 79.9365 55.5331 80.6746 55.6413 81.3959C55.7149 81.8863 55.9395 82.3312 56.2906 82.6823L57.639 84.0306C57.9715 84.363 58.3911 84.5833 58.8527 84.6676C59.1269 84.7177 59.412 84.7177 59.686 84.6676C60.1476 84.5833 60.5674 84.363 60.8997 84.0306L74.2539 70.6762C74.7185 70.2114 75.3367 69.9553 75.9941 69.9553Z" fill="#3B82F6"/>
<path d="M109.53 46.1056C108.491 45.6971 107.36 45.4727 106.178 45.4727C101.107 45.4727 96.9814 49.598 96.9814 54.6686C96.9814 59.7394 101.107 63.8646 106.178 63.8646C107.36 63.8646 108.491 63.6401 109.53 63.2317C110.806 62.7304 111.943 61.9521 112.867 60.9713C114.42 59.3241 115.373 57.1058 115.373 54.6686C115.373 52.2316 114.42 50.0132 112.867 48.3659C111.943 47.3852 110.806 46.6067 109.53 46.1056ZM106.177 57.191C104.784 57.191 103.655 56.0616 103.655 54.6686C103.655 53.2757 104.784 52.1464 106.177 52.1464C107.57 52.1464 108.7 53.2758 108.7 54.6686C108.7 56.0616 107.57 57.191 106.177 57.191Z" fill="#3B82F6"/>
<path d="M106.177 63.9403C101.064 63.9403 96.9033 59.78 96.9033 54.6664C96.9033 49.5528 101.064 45.3926 106.177 45.3926C107.343 45.3926 108.481 45.6074 109.559 46.031C110.823 46.5276 111.986 47.3158 112.924 48.3103C114.554 50.0392 115.451 52.2964 115.451 54.6664C115.451 57.0365 114.554 59.2937 112.924 61.0225C111.987 62.0169 110.823 62.805 109.559 63.3021C108.481 63.7255 107.343 63.9403 106.177 63.9403ZM106.177 45.5484C101.15 45.5484 97.0591 49.6387 97.0591 54.6664C97.0591 59.6942 101.15 63.7845 106.177 63.7845C107.324 63.7845 108.442 63.5734 109.502 63.1569C110.745 62.6683 111.889 61.8935 112.81 60.9157C114.413 59.2158 115.295 56.9966 115.295 54.6664C115.295 52.3363 114.413 50.1169 112.81 48.4172C111.889 47.4394 110.744 46.6644 109.502 46.176C108.442 45.7596 107.324 45.5484 106.177 45.5484ZM106.177 57.2669C104.743 57.2669 103.577 56.1004 103.577 54.6666C103.577 53.2328 104.743 52.0665 106.177 52.0665C107.611 52.0665 108.777 53.233 108.777 54.6666C108.778 56.1004 107.611 57.2669 106.177 57.2669ZM106.177 52.2221C104.829 52.2221 103.733 53.3186 103.733 54.6664C103.733 56.0144 104.829 57.1109 106.177 57.1109C107.525 57.1109 108.622 56.0142 108.622 54.6664C108.622 53.3186 107.525 52.2221 106.177 52.2221Z" fill="#3B82F6"/>
</svg>
