<svg width="160" height="120" viewBox="0 0 160 120" fill="none" xmlns="http://www.w3.org/2000/svg">
<path d="M115.962 60.158V58.5814C115.962 57.4443 116.449 56.3538 117.316 55.5497C118.184 54.7457 119.36 54.294 120.587 54.294C121.813 54.294 122.99 54.7457 123.857 55.5497C124.724 56.3538 125.212 57.4443 125.212 58.5814V87.7092C125.213 88.7009 124.843 89.6624 124.165 90.4296C123.487 91.1969 122.543 91.7225 121.494 91.9169C120.445 92.1112 119.356 91.9623 118.412 91.4956C117.468 91.0288 116.728 90.273 116.318 89.357C113.374 91.0815 109.963 91.9956 106.482 91.9931C96.2959 91.9931 87.9808 84.2917 87.9808 74.8597C87.9808 65.4278 96.2959 57.7379 106.482 57.7379C109.821 57.7348 113.099 58.5759 115.962 60.1706V60.158ZM57.2975 58.9031H69.4912L63.0454 38.2799L57.2851 58.9031H57.2975ZM54.9051 67.4698L49.1014 88.2458C48.4618 90.536 45.938 91.9115 43.465 91.3197C42.2784 91.035 41.2624 90.3251 40.6402 89.3462C40.0179 88.3673 39.8404 87.1994 40.1467 86.0993L54.7216 33.9248C56.9554 26.1074 68.7413 26.0108 71.2663 33.7248L87.5693 85.9832C87.9095 87.0756 87.7677 88.2486 87.175 89.2441C86.8816 89.737 86.4863 90.1715 86.0117 90.5228C85.537 90.8741 84.9925 91.1353 84.409 91.2915C83.2305 91.607 81.9652 91.4755 80.8913 90.9261C79.8174 90.3767 79.023 89.4543 78.6827 88.3619L72.165 67.4686H54.9051V67.4698ZM106.484 83.4253C111.56 83.4253 115.734 79.5608 115.734 74.8586C115.734 70.1564 111.56 66.2919 106.484 66.2919C101.408 66.2919 97.2343 70.1564 97.2343 74.8586C97.2343 79.5608 101.407 83.4253 106.484 83.4253Z" fill="#3B82F6"/>
</svg>
