<svg width="256" height="256" viewBox="0 0 256 256" fill="none" xmlns="http://www.w3.org/2000/svg">
<g clip-path="url(#clip0_8463_237)">
<path d="M224 79.5C223.989 71.0336 221.526 62.7508 216.907 55.648C212.289 48.5451 205.711 42.925 197.966 39.4637V37.2967C197.958 29.0587 195.219 21.0547 190.175 14.5317C185.131 8.00871 178.067 3.33307 170.081 1.23322C162.096 -0.866634 153.639 -0.272767 146.028 2.92229C138.416 6.11736 132.078 11.7342 128 18.8977C123.922 11.7342 117.583 6.11736 109.972 2.92229C102.36 -0.272767 93.9031 -0.866634 85.918 1.23322C77.9328 3.33307 70.8681 8.00871 65.8245 14.5317C60.7809 21.0547 58.0416 29.0587 58.0334 37.2967V39.4637C50.2822 42.9134 43.6986 48.5291 39.0786 55.632C34.4586 62.7348 32 71.0207 32 79.4878C32 87.955 34.4586 96.2408 39.0786 103.344C43.6986 110.447 50.2822 116.062 58.0334 119.512V121.703C58.0416 129.941 60.7809 137.945 65.8245 144.468C70.8681 150.991 77.9328 155.667 85.918 157.767C93.9031 159.867 102.36 159.273 109.972 156.078C117.583 152.883 123.922 147.266 128 140.102C132.078 147.266 138.416 152.883 146.028 156.078C153.639 159.273 162.096 159.867 170.081 157.767C178.067 155.667 185.131 150.991 190.175 144.468C195.219 137.945 197.958 129.941 197.966 121.703V119.512C205.711 116.057 212.29 110.442 216.909 103.343C221.528 96.2438 223.99 87.9636 224 79.5ZM95.4572 149.298C88.2681 149.301 81.36 146.512 76.1966 141.522C71.0332 136.532 68.0203 129.732 67.7961 122.564C70.4782 123.071 73.202 123.326 75.9318 123.327H82.4403C83.7349 123.327 84.9765 122.813 85.8919 121.9C86.8073 120.987 87.3216 119.748 87.3216 118.457C87.3216 117.165 86.8073 115.927 85.8919 115.014C84.9765 114.1 83.7349 113.587 82.4403 113.587H75.9318C67.8664 113.594 60.0587 110.754 53.8902 105.57C47.7217 100.387 43.5901 93.1935 42.2264 85.2634C40.8627 77.3333 42.3549 69.1776 46.4389 62.2394C50.5229 55.3013 56.9355 50.0279 64.5419 47.3524C65.494 47.0166 66.3183 46.3945 66.9011 45.5718C67.484 44.749 67.7967 43.7662 67.7961 42.7588V37.2967C67.7961 29.9782 70.7104 22.9594 75.8979 17.7845C81.0854 12.6095 88.1211 9.70223 95.4572 9.70223C102.793 9.70223 109.829 12.6095 115.017 17.7845C120.204 22.9594 123.118 29.9782 123.118 37.2967V96.5842C119.617 92.7356 115.347 89.6606 110.583 87.557C105.82 85.4533 100.667 84.3676 95.4572 84.3696C94.1626 84.3696 92.921 84.8827 92.0056 85.7959C91.0902 86.7091 90.5759 87.9477 90.5759 89.2392C90.5759 90.5307 91.0902 91.7693 92.0056 92.6826C92.921 93.5958 94.1626 94.1088 95.4572 94.1088C102.793 94.1088 109.829 97.0161 115.017 102.191C120.204 107.366 123.118 114.385 123.118 121.703C123.118 129.022 120.204 136.041 115.017 141.216C109.829 146.39 102.793 149.298 95.4572 149.298ZM180.068 113.587H173.559C172.265 113.587 171.023 114.1 170.108 115.014C169.192 115.927 168.678 117.165 168.678 118.457C168.678 119.748 169.192 120.987 170.108 121.9C171.023 122.813 172.265 123.327 173.559 123.327H180.068C182.797 123.326 185.521 123.071 188.203 122.564C188.034 127.981 186.269 133.229 183.128 137.653C179.988 142.076 175.611 145.479 170.544 147.436C165.477 149.393 159.944 149.818 154.636 148.659C149.329 147.499 144.481 144.805 140.698 140.914C136.916 137.023 134.366 132.106 133.366 126.778C132.367 121.45 132.963 115.947 135.079 110.954C137.196 105.962 140.74 101.702 145.268 98.7062C149.796 95.7105 155.109 94.1115 160.542 94.1088C161.837 94.1088 163.078 93.5958 163.994 92.6826C164.909 91.7693 165.424 90.5307 165.424 89.2392C165.424 87.9477 164.909 86.7091 163.994 85.7959C163.078 84.8827 161.837 84.3696 160.542 84.3696C155.332 84.3676 150.18 85.4533 145.416 87.557C140.652 89.6606 136.382 92.7356 132.881 96.5842V37.2967C132.881 29.9782 135.795 22.9594 140.983 17.7845C146.17 12.6095 153.206 9.70223 160.542 9.70223C167.878 9.70223 174.914 12.6095 180.102 17.7845C185.289 22.9594 188.203 29.9782 188.203 37.2967V42.7588C188.203 43.7662 188.515 44.749 189.098 45.5718C189.681 46.3945 190.505 47.0166 191.458 47.3524C199.064 50.0279 205.476 55.3013 209.561 62.2394C213.645 69.1776 215.137 77.3333 213.773 85.2634C212.409 93.1935 208.278 100.387 202.109 105.57C195.941 110.754 188.133 113.594 180.068 113.587ZM191.458 69.7608C191.458 71.0523 190.943 72.2909 190.028 73.2041C189.112 74.1173 187.871 74.6304 186.576 74.6304H183.322C175.986 74.6304 168.95 71.7231 163.763 66.5482C158.575 61.3732 155.661 54.3544 155.661 47.0359V43.7895C155.661 42.498 156.175 41.2594 157.091 40.3462C158.006 39.433 159.248 38.9199 160.542 38.9199C161.837 38.9199 163.078 39.433 163.994 40.3462C164.909 41.2594 165.424 42.498 165.424 43.7895V47.0359C165.424 51.7714 167.309 56.313 170.666 59.6615C174.022 63.01 178.575 64.8912 183.322 64.8912H186.576C187.871 64.8912 189.112 65.4042 190.028 66.3174C190.943 67.2307 191.458 68.4693 191.458 69.7608ZM72.6775 74.6304H69.4233C68.1287 74.6304 66.8871 74.1173 65.9716 73.2041C65.0562 72.2909 64.5419 71.0523 64.5419 69.7608C64.5419 68.4693 65.0562 67.2307 65.9716 66.3174C66.8871 65.4042 68.1287 64.8912 69.4233 64.8912H72.6775C77.4245 64.8912 81.977 63.01 85.3336 59.6615C88.6902 56.313 90.5759 51.7714 90.5759 47.0359V43.7895C90.5759 42.498 91.0902 41.2594 92.0056 40.3462C92.921 39.433 94.1626 38.9199 95.4572 38.9199C96.7519 38.9199 97.9935 39.433 98.9089 40.3462C99.8243 41.2594 100.339 42.498 100.339 43.7895V47.0359C100.339 54.3544 97.4243 61.3732 92.2369 66.5482C87.0494 71.7231 80.0137 74.6304 72.6775 74.6304Z" fill="#3B82F6"/>
<path d="M76.7031 179H179.295V255.704H76.7031V179Z" fill="#3B82F6"/>
<path d="M76.7041 255.704H0V179H76.7041V255.704Z" fill="#93C5FD"/>
<path d="M256.001 255.704H179.297V179H256.001V255.704Z" fill="#1D4ED8"/>
</g>
<defs>
<clipPath id="clip0_8463_237">
<rect width="256" height="256" fill="white"/>
</clipPath>
</defs>
</svg>