<svg width="512" height="512" viewBox="0 0 512 512" fill="none" xmlns="http://www.w3.org/2000/svg">
<path d="M46.1517 10.8653H5.01961C2.24735 10.8653 0 13.1126 0 15.8849V495.755C0 498.527 2.24735 500.775 5.01961 500.775H46.1517C48.924 500.775 51.1713 498.527 51.1713 495.755V15.8849C51.1713 13.1126 48.9225 10.8653 46.1517 10.8653Z" fill="#3B82F6"/>
<path d="M96.4239 416.735H116.989C119.761 416.735 122.008 414.488 122.008 411.715V15.8849C122.008 13.1126 119.761 10.8653 116.989 10.8653H96.4239C93.6516 10.8653 91.4043 13.1126 91.4043 15.8849V411.715C91.4043 414.488 93.6531 416.735 96.4239 416.735Z" fill="#3B82F6"/>
<path d="M174.117 416.735H200.776C203.548 416.735 205.795 414.488 205.795 411.715V15.8849C205.795 13.1126 203.548 10.8653 200.776 10.8653H174.117C171.345 10.8653 169.098 13.1126 169.098 15.8849V411.715C169.098 414.488 171.346 416.735 174.117 416.735Z" fill="#3B82F6"/>
<path d="M244.957 416.735H270.854C273.626 416.735 275.874 414.488 275.874 411.715V15.8849C275.874 13.1126 273.626 10.8653 270.854 10.8653H244.957C242.185 10.8653 239.938 13.1126 239.938 15.8849V411.715C239.938 414.488 242.185 416.735 244.957 416.735Z" fill="#3B82F6"/>
<path d="M315.794 416.735H356.926C359.698 416.735 361.946 414.488 361.946 411.715V15.8849C361.946 13.1126 359.698 10.8653 356.926 10.8653H315.794C313.022 10.8653 310.774 13.1126 310.774 15.8849V411.715C310.774 414.488 313.023 416.735 315.794 416.735Z" fill="#3B82F6"/>
<path d="M400.344 416.735H427.764C430.536 416.735 432.783 414.488 432.783 411.715V15.8849C432.783 13.1126 430.536 10.8653 427.764 10.8653H400.344C397.572 10.8653 395.324 13.1126 395.324 15.8849V411.715C395.324 414.488 397.572 416.735 400.344 416.735Z" fill="#3B82F6"/>
<path d="M506.981 10.8653H465.849C463.076 10.8653 460.829 13.1126 460.829 15.8849V495.755C460.829 498.527 463.076 500.775 465.849 500.775H506.981C509.753 500.775 512 498.527 512 495.755V15.8849C512 13.1126 509.753 10.8653 506.981 10.8653Z" fill="#3B82F6"/>
<path d="M100.041 438.592C83.9136 438.592 74.6689 449.975 74.6689 469.822C74.6689 489.722 83.9136 501.135 100.041 501.135C116.217 501.135 125.497 489.723 125.497 469.822C125.497 449.975 116.217 438.592 100.041 438.592ZM100.041 493.062C88.5589 493.062 82.739 485.243 82.739 469.822C82.739 454.455 88.5603 446.663 100.041 446.663C111.579 446.663 117.427 454.455 117.427 469.822C117.427 478.502 115.166 493.062 100.041 493.062Z" fill="#3B82F6"/>
<path d="M141.824 438.592H129.477C123.964 438.592 125.598 440.33 125.598 442.473V442.782C125.598 444.925 127.334 446.663 129.477 446.663H137.629V497.252C137.629 499.398 139.369 501.135 141.508 501.135H141.824C143.964 501.135 145.703 499.398 145.703 497.252V442.473C145.703 440.33 143.964 438.592 141.824 438.592Z" fill="#3B82F6"/>
<path d="M177.114 469.798H160.999C158.853 469.798 157.119 471.536 157.119 473.68V473.992C157.119 476.136 158.853 477.874 160.999 477.874H177.114C179.257 477.874 180.994 476.136 180.994 473.992V473.68C180.994 471.536 179.257 469.798 177.114 469.798Z" fill="#3B82F6"/>
<path d="M208.889 438.592C192.763 438.592 183.516 449.975 183.516 469.822C183.516 489.722 192.763 501.135 208.889 501.135C225.067 501.135 234.343 489.723 234.343 469.822C234.343 449.975 225.068 438.592 208.889 438.592ZM208.889 493.062C197.408 493.062 191.589 485.243 191.589 469.822C191.589 454.455 197.41 446.663 208.889 446.663C220.427 446.663 226.276 454.455 226.276 469.822C226.276 478.502 224.015 493.062 208.889 493.062Z" fill="#3B82F6"/>
<path d="M250.666 438.592H238.325C236.182 438.592 234.445 440.33 234.445 442.473V442.782C234.445 444.925 236.182 446.663 238.325 446.663H246.478V497.252C246.478 499.398 248.215 501.135 250.357 501.135H250.666C252.811 501.135 254.551 499.398 254.551 497.252V442.473C254.551 440.33 252.811 438.592 250.666 438.592Z" fill="#3B82F6"/>
<path d="M303.608 493.062H276.529L292.818 474.921C299.391 468.068 303.318 460.586 303.318 454.903C303.318 444.994 295.844 438.592 284.282 438.592C277.77 438.592 270.92 441.492 265.955 446.351C265.213 447.075 264.792 448.063 264.789 449.101C264.777 450.135 265.188 451.132 265.92 451.867L266.128 452.074C267.631 453.583 270.069 453.598 271.59 452.109C275.025 448.75 279.888 446.665 284.284 446.665C287.578 446.665 295.248 447.469 295.248 454.903C295.248 457.605 293.087 463.007 286.918 469.441L265.439 493.307C264.796 494.02 264.438 494.945 264.438 495.904V497.255C264.438 499.401 266.18 501.138 268.323 501.138H303.609C305.755 501.138 307.491 499.401 307.491 497.255V496.947C307.49 494.8 305.753 493.062 303.608 493.062Z" fill="#3B82F6"/>
<path d="M332.323 463.225L347.294 445.54C347.885 444.839 348.215 443.951 348.215 443.031V442.471C348.215 440.329 346.475 438.59 344.335 438.59H316.106C313.961 438.59 312.224 440.329 312.224 442.471V442.781C312.224 444.924 313.961 446.662 316.106 446.662H335.818L320.931 464.175C320.333 464.877 320.003 465.768 320.003 466.687V467.248C320.003 469.392 321.743 471.13 323.888 471.13H328.856C335.213 471.13 342.786 472.893 342.786 481.292C342.786 488.66 337.636 493.059 329.015 493.059C324.657 493.059 319.947 491.719 316.406 489.475C314.695 488.391 312.439 488.804 311.223 490.424L311.044 490.667C310.39 491.537 310.132 492.643 310.334 493.713C310.533 494.783 311.176 495.719 312.101 496.293C317.057 499.368 323.223 501.13 329.015 501.13C342.081 501.13 350.861 493.027 350.861 480.969C350.861 471.063 343.7 464.345 332.323 463.225Z" fill="#3B82F6"/>
<path d="M395.565 476.377H390.462V462.368C390.462 460.225 388.726 458.487 386.58 458.487H386.27C384.125 458.487 382.389 460.225 382.389 462.368V476.377H365.707L384.096 444.407C384.789 443.207 384.783 441.73 384.093 440.529C383.399 439.33 382.118 438.592 380.736 438.592H380.379C378.99 438.592 377.707 439.335 377.013 440.537L355.785 477.445C355.45 478.034 355.271 478.7 355.271 479.38V480.567C355.271 482.71 357.01 484.448 359.153 484.448H382.388V497.252C382.388 499.398 384.123 501.135 386.269 501.135H386.579C388.724 501.135 390.461 499.398 390.461 497.252V484.448H395.564C397.706 484.448 399.446 482.708 399.446 480.567V480.256C399.449 478.112 397.709 476.377 395.565 476.377Z" fill="#3B82F6"/>
<path d="M418.918 461.214C416.253 461.214 413.026 461.648 409.877 462.396V446.665H434.315C436.457 446.665 438.194 444.927 438.194 442.784V442.474C438.194 440.331 436.457 438.593 434.315 438.593H405.686C403.543 438.593 401.806 440.331 401.806 442.474V467.994C401.806 469.266 402.432 470.458 403.479 471.183C404.523 471.906 405.859 472.074 407.048 471.627C410.839 470.205 415.496 469.286 418.916 469.286C427.188 469.286 432.129 473.264 432.129 479.93C432.129 488.052 427.131 492.901 418.757 492.901C414.37 492.901 408.797 491.21 404.553 488.593C402.737 487.473 400.361 488.026 399.228 489.831L399.11 490.02C398.559 490.892 398.38 491.945 398.611 492.948C398.838 493.952 399.457 494.824 400.326 495.372C405.819 498.829 412.883 500.974 418.757 500.974C431.581 500.974 440.199 492.517 440.199 479.932C440.199 468.735 431.65 461.214 418.918 461.214Z" fill="#3B82F6"/>
</svg>