<svg width="152" height="31" viewBox="0 0 152 31" fill="none" xmlns="http://www.w3.org/2000/svg">
<path d="M8.16 19.168C9.312 19.168 10.3253 18.7627 11.2 17.952C12.096 17.1413 12.544 16.2133 12.544 15.168C12.544 14.1013 12.2133 13.12 11.552 12.224C10.8267 12.5867 10.112 12.768 9.408 12.768C7.76533 12.768 6.944 12.256 6.944 11.232C6.944 10.9333 7.14667 10.6667 7.552 10.432C7.95733 10.176 8.53333 10.048 9.28 10.048C10.048 10.048 10.88 10.272 11.776 10.72C12.6293 9.80267 13.056 8.768 13.056 7.616C13.056 6.18667 12.4267 5.056 11.168 4.224C9.93067 3.37067 8.59733 2.944 7.168 2.944C6.86933 2.944 6.64533 2.95467 6.496 2.976C6.47467 3.59467 6.42133 4.58667 6.336 5.952C6.208 8 6.144 11.1253 6.144 15.328C6.144 16.9493 6.02667 17.76 5.792 17.76C4.87467 17.76 4.288 17.632 4.032 17.376C3.776 17.12 3.648 16.384 3.648 15.168C3.648 14.8693 3.70133 13.6427 3.808 11.488C3.936 9.33333 4 7.59467 4 6.272C4 4.94933 4.04267 3.97867 4.128 3.36C2.99733 3.744 2.38933 4.36267 2.304 5.216C2.21867 5.92 2.05867 6.41067 1.824 6.688C1.61067 6.96533 1.312 7.104 0.928 7.104C0.565333 7.104 0.32 7.008 0.192 6.816C0.064 6.60267 0 6.38933 0 6.176C0 4.32 1.44 3.04 4.32 2.336C4.68267 0.885333 5.25867 0.16 6.048 0.16C6.368 0.16 6.528 0.757333 6.528 1.952C7.08267 1.888 7.76533 1.856 8.576 1.856C9.408 1.856 10.3573 2.016 11.424 2.336C12.4907 2.63467 13.4187 3.17867 14.208 3.968C14.9973 4.736 15.392 5.6 15.392 6.56C15.392 8.352 14.528 9.96266 12.8 11.392C13.9947 12.3307 14.592 13.4507 14.592 14.752C14.592 16.0533 14.1867 17.1307 13.376 17.984C11.8613 19.5413 9.83467 20.32 7.296 20.32C5.568 20.32 4.33067 20.2027 3.584 19.968C3.43467 19.9253 3.27467 19.8187 3.104 19.648C2.95467 19.456 2.88 19.2213 2.88 18.944C2.88 18.496 3.31733 18.272 4.192 18.272C4.46933 18.272 5.07733 18.4213 6.016 18.72C6.95467 19.0187 7.66933 19.168 8.16 19.168ZM10.88 11.52C10.24 10.9867 9.632 10.72 9.056 10.72C8.50133 10.72 8.224 10.8373 8.224 11.072C8.224 11.5627 8.74667 11.808 9.792 11.808C10.176 11.808 10.5387 11.712 10.88 11.52Z" fill="black"/>
<path d="M16.1875 17.216L16.3795 13.632C16.3795 11.3493 16.4862 10.1013 16.6995 9.888C16.9128 9.67467 17.2862 9.36533 17.8195 8.96C18.3742 8.53333 18.7688 8.32 19.0035 8.32C19.2595 8.32 19.4195 8.36267 19.4835 8.448C19.5475 8.53333 19.5795 8.704 19.5795 8.96C19.5795 9.87733 19.3768 10.8053 18.9715 11.744C18.6515 13.7067 18.4915 15.3173 18.4915 16.576C18.4915 17.8347 18.6942 18.464 19.0995 18.464C19.5902 18.464 20.1662 18.0373 20.8275 17.184C21.4888 16.3307 22.1502 15.0613 22.8115 13.376C23.0035 11.2427 23.1528 10.0907 23.2595 9.92C23.3875 9.74933 23.6862 9.44 24.1555 8.992C24.6248 8.544 25.0088 8.32 25.3075 8.32C25.6275 8.32 25.7875 8.72533 25.7875 9.536C25.7875 9.74933 25.7235 10.1653 25.5955 10.784C25.4888 11.4027 25.3608 11.8507 25.2115 12.128C24.9768 12.7253 24.8595 14.5707 24.8595 17.664C24.8595 18.24 24.9235 18.528 25.0515 18.528C25.4142 18.5067 25.9155 18.0587 26.5555 17.184C27.1955 16.288 27.8248 15.1467 28.4435 13.76C29.0835 12.3733 29.4675 11.68 29.5955 11.68C29.7448 11.68 29.8195 11.7653 29.8195 11.936C29.8195 12.5333 29.5102 13.4827 28.8915 14.784C27.2062 18.368 25.7875 20.16 24.6355 20.16C23.8035 20.16 23.1742 19.9893 22.7475 19.648C22.5982 19.4987 22.5235 19.04 22.5235 18.272C22.5235 17.504 22.5555 16.6507 22.6195 15.712C21.9368 17.1627 21.2542 18.272 20.5715 19.04C19.8888 19.7867 19.1208 20.16 18.2675 20.16C17.4355 20.16 16.8808 19.936 16.6035 19.488C16.3262 19.04 16.1875 18.2827 16.1875 17.216Z" fill="black"/>
<path d="M27.875 17.216L28.067 13.632C28.067 11.3493 28.1737 10.1013 28.387 9.888C28.6003 9.67467 28.9737 9.36533 29.507 8.96C30.0617 8.53333 30.4563 8.32 30.691 8.32C30.947 8.32 31.107 8.36267 31.171 8.448C31.235 8.53333 31.267 8.704 31.267 8.96C31.267 9.87733 31.0643 10.8053 30.659 11.744C30.339 13.7067 30.179 15.3173 30.179 16.576C30.179 17.8347 30.3283 18.464 30.627 18.464C31.139 18.464 31.7257 18.016 32.387 17.12C33.0697 16.2027 33.763 14.8587 34.467 13.088C34.4883 12.6187 34.5097 12.128 34.531 11.616C34.5523 11.0827 34.5737 10.6987 34.595 10.464C34.6163 10.208 34.627 10.0267 34.627 9.92C34.6483 9.81333 34.947 9.52533 35.523 9.056C36.099 8.56533 36.5363 8.32 36.835 8.32C37.155 8.32 37.315 8.72533 37.315 9.536C37.315 9.74933 37.251 10.1653 37.123 10.784C37.0163 11.4027 36.8883 11.8507 36.739 12.128C36.5683 13.6427 36.451 14.9653 36.387 16.096C38.4777 13.4507 39.587 12.0533 39.715 11.904C39.8643 11.7547 39.9923 11.68 40.099 11.68C40.3123 11.68 40.419 11.7867 40.419 12C40.419 12.128 40.3763 12.2667 40.291 12.416C39.6083 13.4187 38.2643 15.1787 36.259 17.696C36.131 20.2347 36.0457 21.9627 36.003 22.88C35.8963 25.5893 35.5123 27.488 34.851 28.576C34.211 29.6853 33.059 30.24 31.395 30.24C30.6697 30.24 29.987 30.016 29.347 29.568C28.7283 29.1413 28.419 28.384 28.419 27.296C28.419 26.2293 28.8243 25.1307 29.635 24C30.467 22.8693 31.971 21.1307 34.147 18.784L34.339 15.296C33.6137 16.896 32.899 18.112 32.195 18.944C31.491 19.7547 30.7123 20.16 29.859 20.16C29.0057 20.16 28.4617 19.9467 28.227 19.52C27.9923 19.0933 27.875 18.3253 27.875 17.216ZM34.051 20.288C31.619 22.912 30.403 25.0133 30.403 26.592C30.403 27.3173 30.531 27.9147 30.787 28.384C31.043 28.8533 31.395 29.088 31.843 29.088C32.5257 29.088 33.0057 28.7147 33.283 27.968C33.5603 27.2213 33.763 25.7067 33.891 23.424L34.051 20.288Z" fill="black"/>
<path d="M48.0935 18.272L48.1255 19.264C48.1255 19.8613 47.9548 20.16 47.6135 20.16C47.1015 20.16 46.6108 20.096 46.1415 19.968C45.6722 19.8187 45.4375 19.6267 45.4375 19.392C45.4375 19.136 45.4908 18.2933 45.5975 16.864C45.7255 15.4133 45.7895 14.3253 45.7895 13.6V11.712C45.7895 10.688 45.8962 10.0693 46.1095 9.856C46.3228 9.64267 46.6962 9.33333 47.2295 8.928C47.7842 8.52267 48.1788 8.32 48.4135 8.32C48.6695 8.32 48.8295 8.36267 48.8935 8.448C48.9575 8.53333 48.9895 8.69333 48.9895 8.928C48.9895 10.0587 48.7762 11.1253 48.3495 12.128C48.2428 13.344 48.1895 14.1867 48.1895 14.656C49.3202 12.544 50.1095 11.1573 50.5575 10.496C51.3468 9.25867 52.0615 8.64 52.7015 8.64C53.1068 8.64 53.4802 8.8 53.8215 9.12C54.1842 9.44 54.3655 9.83467 54.3655 10.304C54.3655 10.7733 54.3548 11.2213 54.3335 11.648C54.3335 12.0533 54.3228 12.3733 54.3015 12.608C54.2802 12.8427 54.2695 12.992 54.2695 13.056C54.3548 12.8853 54.7175 12.4053 55.3575 11.616C55.9975 10.8267 56.4242 10.3147 56.6375 10.08C56.8722 9.84533 57.1175 9.61067 57.3735 9.376C57.8642 8.88533 58.3015 8.64 58.6855 8.64C59.0908 8.64 59.4642 8.78933 59.8055 9.088C60.1682 9.38667 60.3495 9.76 60.3495 10.208C60.3495 11.1467 60.2428 12.5333 60.0295 14.368C59.8375 16.1813 59.7415 17.3333 59.7415 17.824C59.7415 18.2933 59.8055 18.528 59.9335 18.528C60.2962 18.5067 60.7975 18.0587 61.4375 17.184C62.0775 16.288 62.7068 15.1467 63.3255 13.76C63.9655 12.3733 64.3495 11.68 64.4775 11.68C64.6268 11.68 64.7015 11.7653 64.7015 11.936C64.7015 12.5333 64.3922 13.4827 63.7735 14.784C62.0882 18.368 60.6695 20.16 59.5175 20.16C58.7922 20.16 58.2162 19.9893 57.7895 19.648C57.6402 19.4987 57.5655 19.1147 57.5655 18.496C57.5655 17.856 57.6188 16.832 57.7255 15.424C57.8535 13.9947 57.9175 12.928 57.9175 12.224C57.9175 11.52 57.8002 11.168 57.5655 11.168C57.2882 11.168 56.6802 11.6373 55.7415 12.576C54.8242 13.5147 54.3335 14.176 54.2695 14.56C54.1415 15.2853 54.0775 16.8533 54.0775 19.264C54.0775 19.8613 53.9175 20.16 53.5975 20.16C53.1068 20.16 52.6375 20.096 52.1895 19.968C51.7628 19.8187 51.5495 19.6267 51.5495 19.392C51.5495 19.136 51.6135 18.08 51.7415 16.224C51.8695 14.368 51.9335 13.0667 51.9335 12.32C51.9335 11.552 51.8055 11.168 51.5495 11.168C51.3148 11.168 50.7282 11.904 49.7895 13.376C48.8508 14.8267 48.3282 15.84 48.2215 16.416C48.1362 16.992 48.0935 17.6107 48.0935 18.272Z" fill="black"/>
<path d="M66.6852 20.16C65.4906 20.16 64.5412 19.712 63.8372 18.816C63.1332 17.8987 62.7812 16.864 62.7812 15.712C62.7812 13.3867 63.2719 11.6267 64.2533 10.432C65.2346 9.23733 66.5039 8.64 68.0612 8.64C68.7866 8.64 69.3839 8.84267 69.8532 9.248C70.3226 9.632 70.5573 10.1653 70.5573 10.848C70.5573 12.128 70.0132 13.2053 68.9252 14.08C67.8586 14.9333 66.5466 15.3813 64.9893 15.424C65.0746 16.256 65.3519 16.9813 65.8213 17.6C66.3119 18.1973 66.8773 18.496 67.5173 18.496C68.1573 18.496 68.7332 18.3467 69.2452 18.048C69.7572 17.7493 70.2266 17.3227 70.6533 16.768C71.5493 15.5947 72.3173 14.2613 72.9573 12.768C73.1279 12.384 73.2559 12.1067 73.3412 11.936C73.4479 11.7653 73.5546 11.68 73.6612 11.68C73.7892 11.68 73.8532 11.7653 73.8532 11.936C73.8532 13.0027 73.2026 14.6027 71.9013 16.736C70.4933 19.0187 68.7546 20.16 66.6852 20.16ZM64.9893 14.656C66.2479 14.4427 67.1652 14.0373 67.7412 13.44C68.3386 12.8427 68.6373 12.064 68.6373 11.104C68.6373 10.144 68.3279 9.664 67.7093 9.664C66.9626 9.664 66.3333 10.1867 65.8213 11.232C65.3093 12.256 65.0319 13.3973 64.9893 14.656Z" fill="black"/>
<path d="M87.5233 20.16C86.6913 20.16 86.0619 19.9893 85.6353 19.648C85.4859 19.4987 85.4112 19.1253 85.4112 18.528C85.4112 17.9093 85.4326 17.088 85.4753 16.064C84.9206 17.4507 84.3659 18.4853 83.8112 19.168C83.2779 19.8293 82.5846 20.16 81.7312 20.16C80.8779 20.16 80.1312 19.7653 79.4912 18.976C78.8512 18.1653 78.5312 16.9067 78.5312 15.2C78.5312 13.472 79.0113 11.9467 79.9713 10.624C80.9526 9.30133 82.2326 8.64 83.8112 8.64C84.4939 8.64 85.2619 9.088 86.1152 9.984C86.2859 9.74933 86.5846 9.472 87.0113 9.152C87.4593 8.81067 87.8326 8.64 88.1312 8.64C88.4512 8.64 88.6113 9.04533 88.6113 9.856C88.6113 10.0693 88.5473 10.4853 88.4193 11.104C88.3126 11.7227 88.1846 12.1707 88.0352 12.448C87.8432 12.9387 87.7473 14.6773 87.7473 17.664C87.7473 18.24 87.8112 18.528 87.9392 18.528C88.3019 18.5067 88.8033 18.0587 89.4433 17.184C90.0833 16.288 90.7126 15.1467 91.3313 13.76C91.9713 12.3733 92.3553 11.68 92.4833 11.68C92.6326 11.68 92.7073 11.7653 92.7073 11.936C92.7073 12.5333 92.3979 13.4827 91.7793 14.784C90.0939 18.368 88.6753 20.16 87.5233 20.16ZM83.6192 9.92C83.0219 9.92 82.3819 10.368 81.6992 11.264C81.0379 12.1387 80.7073 13.1733 80.7073 14.368C80.7073 15.5627 80.8779 16.544 81.2193 17.312C81.5819 18.08 82.0513 18.464 82.6273 18.464C83.3313 18.464 84.3659 16.704 85.7312 13.184C85.7526 13.0133 85.7739 12.7253 85.7952 12.32C85.8379 11.8933 85.8699 11.5733 85.8913 11.36C85.6993 11.0187 85.3579 10.6987 84.8672 10.4C84.3979 10.08 83.9819 9.92 83.6192 9.92Z" fill="black"/>
<path d="M102.884 12.224L103.14 10.592C103.14 10.3573 103.066 10.144 102.916 9.952C102.767 9.76 102.575 9.664 102.34 9.664C101.551 9.664 100.868 10.2613 100.292 11.456C99.7163 12.6293 99.4283 13.76 99.4283 14.848C99.4283 15.936 99.6523 16.8213 100.1 17.504C100.548 18.1653 101.092 18.496 101.732 18.496C102.394 18.496 102.98 18.3467 103.492 18.048C104.004 17.7493 104.474 17.3227 104.9 16.768C105.796 15.5947 106.564 14.2613 107.204 12.768C107.375 12.384 107.503 12.1067 107.588 11.936C107.695 11.7653 107.802 11.68 107.908 11.68C108.036 11.68 108.1 11.7653 108.1 11.936C108.1 12.64 107.855 13.4827 107.364 14.464C106.874 15.4453 106.458 16.2027 106.116 16.736C105.796 17.248 105.38 17.792 104.868 18.368C103.802 19.5627 102.468 20.16 100.868 20.16C99.6522 20.16 98.7243 19.7333 98.0843 18.88C97.4656 18.0053 97.1562 17.0773 97.1562 16.096C97.1562 13.664 97.6789 11.8187 98.7243 10.56C99.7909 9.28 101.135 8.64 102.756 8.64C103.439 8.64 103.972 8.82133 104.356 9.184C104.762 9.52533 104.964 9.92 104.964 10.368C104.964 11.2 104.815 11.8187 104.516 12.224C104.218 12.6293 103.855 12.832 103.428 12.832C103.066 12.832 102.884 12.6293 102.884 12.224Z" fill="black"/>
<path d="M116.328 13.056C117.182 12.7787 117.769 12.544 118.089 12.352C118.43 12.1387 118.686 11.9787 118.856 11.872L119.241 11.648C119.347 11.584 119.432 11.552 119.496 11.552C119.667 11.552 119.753 11.648 119.753 11.84C119.753 12.032 119.422 12.3733 118.76 12.864C118.099 13.3333 117.278 13.76 116.297 14.144C116.147 15.936 115.582 17.3867 114.601 18.496C113.619 19.6053 112.222 20.16 110.409 20.16C109.086 20.16 108.072 19.6373 107.368 18.592C106.664 17.5253 106.312 16.288 106.312 14.88C106.312 13.4507 106.729 12.1067 107.561 10.848C108.414 9.58933 109.502 8.96 110.825 8.96C111.422 8.53333 112.126 8.32 112.937 8.32C113.769 8.32 114.537 8.75733 115.241 9.632C115.945 10.5067 116.307 11.648 116.328 13.056ZM114.248 14.688L113.096 14.752C112.115 14.752 111.283 14.464 110.601 13.888C109.918 13.2907 109.576 12.64 109.576 11.936C109.576 11.232 109.694 10.624 109.928 10.112C109.011 10.8373 108.552 12.2667 108.552 14.4C108.552 15.424 108.766 16.4053 109.192 17.344C109.619 18.2613 110.291 18.72 111.209 18.72C112.126 18.72 112.841 18.336 113.353 17.568C113.865 16.7787 114.163 15.8187 114.248 14.688ZM112.265 9.376C111.923 9.376 111.657 9.536 111.465 9.856C111.273 10.1547 111.176 10.4853 111.176 10.848C111.176 11.6373 111.443 12.2773 111.977 12.768C112.531 13.2587 113.171 13.504 113.896 13.504H114.281C114.238 12.4587 114.057 11.5093 113.737 10.656C113.438 9.80267 112.947 9.376 112.265 9.376Z" fill="black"/>
<path d="M125.425 12.224L125.649 11.008C124.774 10.8373 124.337 10.3573 124.337 9.568C124.337 8.75733 124.913 8.352 126.065 8.352C127.153 2.89067 128.507 0.16 130.129 0.16C130.449 0.16 130.726 0.426666 130.961 0.959999C131.195 1.49333 131.313 2.272 131.313 3.296C131.313 4.32 131.078 5.54667 130.609 6.976C130.139 8.384 129.574 9.504 128.913 10.336L129.009 10.56C129.627 10.8373 130.257 10.976 130.897 10.976C131.558 10.976 132.07 10.944 132.433 10.88C132.817 10.7947 133.03 10.752 133.073 10.752C133.329 10.752 133.457 10.8907 133.457 11.168C133.457 11.4027 133.233 11.584 132.785 11.712C132.358 11.8187 131.857 11.872 131.281 11.872C130.705 11.872 130.033 11.7547 129.265 11.52C129.905 13.312 130.225 15.648 130.225 18.528C130.225 21.3867 129.905 23.6693 129.265 25.376C128.625 27.0827 127.782 27.936 126.737 27.936C126.139 27.936 125.606 27.7333 125.137 27.328C124.667 26.9227 124.433 26.24 124.433 25.28C124.433 21.9093 124.71 17.984 125.265 13.504C124.646 13.824 124.027 14.08 123.409 14.272C123.75 15.7653 123.921 17.1627 123.921 18.464C123.921 19.7653 123.899 20.8213 123.857 21.632C123.814 22.464 123.718 23.4133 123.569 24.48C123.419 25.568 123.227 26.5173 122.993 27.328C122.758 28.1387 122.417 28.8213 121.969 29.376C121.521 29.952 120.955 30.24 120.273 30.24C119.611 30.24 119.057 30.016 118.609 29.568C118.182 29.12 117.969 28.224 117.969 26.88C117.969 23.0827 118.182 18.9547 118.609 14.496C117.393 14.0053 116.785 13.1307 116.785 11.872C116.785 11.104 116.987 10.464 117.393 9.952C117.777 9.44 118.267 9.184 118.865 9.184C119.035 9.184 119.163 9.19467 119.249 9.216C119.547 7.31733 119.825 5.76 120.081 4.544C120.358 3.328 120.806 2.29333 121.425 1.44C122.065 0.586666 122.683 0.16 123.281 0.16C123.963 0.16 124.305 0.917333 124.305 2.432C124.305 4.77867 123.43 7.456 121.681 10.464C122.214 11.04 122.694 11.936 123.121 13.152C123.846 12.96 124.614 12.6507 125.425 12.224ZM120.689 14.752C120.475 17.6747 120.369 20.3307 120.369 22.72C120.369 25.1093 120.401 26.752 120.465 27.648C120.529 28.544 120.678 28.992 120.913 28.992C121.553 28.992 122.075 28.0533 122.481 26.176C122.886 24.32 123.089 22.3147 123.089 20.16C123.089 18.0053 122.865 16.128 122.417 14.528C121.905 14.6773 121.329 14.752 120.689 14.752ZM126.737 20.8C126.737 24.7253 126.918 26.688 127.281 26.688C127.793 26.688 128.241 25.9307 128.625 24.416C129.03 22.9013 129.233 21.184 129.233 19.264C129.233 15.2107 128.827 12.608 128.017 11.456L127.441 12.032C126.971 15.616 126.737 18.5387 126.737 20.8ZM128.529 9.6C128.849 9.30133 129.265 8.48 129.777 7.136C130.289 5.77067 130.545 4.72533 130.545 4C130.545 2.61333 130.417 1.92 130.161 1.92C129.371 1.92 128.614 4.224 127.889 8.832C128.102 9.00267 128.315 9.25867 128.529 9.6ZM123.601 2.784C123.601 1.93067 123.505 1.504 123.313 1.504C122.971 1.504 122.598 2.272 122.193 3.808C121.809 5.344 121.457 7.392 121.137 9.952C122.779 7.09333 123.601 4.704 123.601 2.784ZM118.673 10.176C118.075 10.176 117.777 10.496 117.777 11.136C117.777 11.776 118.118 12.3307 118.801 12.8L119.089 10.24C118.939 10.1973 118.801 10.176 118.673 10.176ZM120.785 13.408C121.105 13.408 121.521 13.3867 122.033 13.344C121.734 12.5547 121.393 11.9467 121.009 11.52L120.945 11.648C120.859 12.416 120.806 13.0027 120.785 13.408Z" fill="black"/>
<path d="M135.435 20.16C134.241 20.16 133.291 19.712 132.587 18.816C131.883 17.8987 131.531 16.864 131.531 15.712C131.531 13.3867 132.022 11.6267 133.003 10.432C133.985 9.23733 135.254 8.64 136.811 8.64C137.537 8.64 138.134 8.84267 138.603 9.248C139.073 9.632 139.307 10.1653 139.307 10.848C139.307 12.128 138.763 13.2053 137.675 14.08C136.609 14.9333 135.297 15.3813 133.739 15.424C133.825 16.256 134.102 16.9813 134.571 17.6C135.062 18.1973 135.627 18.496 136.267 18.496C136.907 18.496 137.483 18.3467 137.995 18.048C138.507 17.7493 138.977 17.3227 139.403 16.768C140.299 15.5947 141.067 14.2613 141.707 12.768C141.878 12.384 142.006 12.1067 142.091 11.936C142.198 11.7653 142.305 11.68 142.411 11.68C142.539 11.68 142.603 11.7653 142.603 11.936C142.603 13.0027 141.953 14.6027 140.651 16.736C139.243 19.0187 137.505 20.16 135.435 20.16ZM133.739 14.656C134.998 14.4427 135.915 14.0373 136.491 13.44C137.089 12.8427 137.387 12.064 137.387 11.104C137.387 10.144 137.078 9.664 136.459 9.664C135.713 9.664 135.083 10.1867 134.571 11.232C134.059 12.256 133.782 13.3973 133.739 14.656Z" fill="black"/>
<path d="M144.81 20.16C143.616 20.16 142.666 19.712 141.962 18.816C141.258 17.8987 140.906 16.864 140.906 15.712C140.906 13.3867 141.397 11.6267 142.378 10.432C143.36 9.23733 144.629 8.64 146.186 8.64C146.912 8.64 147.509 8.84267 147.978 9.248C148.448 9.632 148.682 10.1653 148.682 10.848C148.682 12.128 148.138 13.2053 147.05 14.08C145.984 14.9333 144.672 15.3813 143.114 15.424C143.2 16.256 143.477 16.9813 143.946 17.6C144.437 18.1973 145.002 18.496 145.642 18.496C146.282 18.496 146.858 18.3467 147.37 18.048C147.882 17.7493 148.352 17.3227 148.778 16.768C149.674 15.5947 150.442 14.2613 151.082 12.768C151.253 12.384 151.381 12.1067 151.466 11.936C151.573 11.7653 151.68 11.68 151.786 11.68C151.914 11.68 151.978 11.7653 151.978 11.936C151.978 13.0027 151.328 14.6027 150.026 16.736C148.618 19.0187 146.88 20.16 144.81 20.16ZM143.114 14.656C144.373 14.4427 145.29 14.0373 145.866 13.44C146.464 12.8427 146.762 12.064 146.762 11.104C146.762 10.144 146.453 9.664 145.834 9.664C145.088 9.664 144.458 10.1867 143.946 11.232C143.434 12.256 143.157 13.3973 143.114 14.656Z" fill="black"/>
</svg>
