<svg width="512" height="512" viewBox="0 0 512 512" fill="none" xmlns="http://www.w3.org/2000/svg">
  <rect x="43" y="56" width="380" height="377" fill="#3B82F6" fill-opacity="0.37"/>
  
  <path d="M6 61.75H33.7778V34H422.667V47.875V61.75H394.889V89.5H61.5556V422.5H394.889V256H422.667V228.25H450.444V450.25H422.667V478H33.7778V450.25H6V61.75ZM89.3333 200.5H144.889V228.25H172.667V256H200.444V283.75H256V256H283.778V228.25H311.556V200.5H339.333V172.75H367.111V145H394.889V117.25H422.667V89.5H450.444V61.75H506V117.25H478.222V145H450.444V172.75H422.667V200.5H394.889V228.25H367.111V256H339.333V283.75H311.556V311.5H283.778V339.25H256V367H200.444V339.25H172.667V311.5H144.889V283.75H117.111V256H89.3333V200.5Z" fill="#3B82F6"/>
</svg>