<svg width="512" height="512" viewBox="0 0 512 512" fill="none" xmlns="http://www.w3.org/2000/svg">
  <path d="M177 40H116.573C108.318 16.719 86.075 0 60 0C-7.649 1.281 -22.617 93.41 40 116.573V176C41.056 202.536 78.953 202.516 80 176V116.573C97.022 110.537 110.537 97.023 116.573 80H177C203.536 78.944 203.516 41.047 177 40ZM60 80C48.972 80 40 71.028 40 60C41.099 33.467 78.905 33.475 80 60C80 71.028 71.028 80 60 80ZM334 80H395.427C401.463 97.022 414.977 110.537 432 116.573V176C433.056 202.536 470.953 202.516 472 176V116.573C495.281 108.318 512 86.075 512 60C510.719 -7.649 418.59 -22.617 395.427 40H334C307.464 41.056 307.484 78.953 334 80ZM452 40C463.028 40 472 48.972 472 60C470.901 86.533 433.095 86.525 432 60C432 48.972 440.972 40 452 40ZM472 395.427V334C470.944 307.464 433.047 307.484 432 334V395.427C414.978 401.463 401.463 414.977 395.427 432H336C309.464 433.056 309.484 470.953 336 472H395.427C403.682 495.281 425.925 512 452 512C519.649 510.719 534.617 418.59 472 395.427ZM452 472C440.972 472 432 463.028 432 452C433.099 425.467 470.906 425.475 472 452C472 463.028 463.028 472 452 472ZM177 432H116.573C110.537 414.978 97.023 401.463 80 395.427V335C78.944 308.464 41.047 308.484 40 335V395.427C16.719 403.682 0 425.925 0 452C1.281 519.649 93.41 534.617 116.573 472H177C203.536 470.944 203.516 433.047 177 432ZM60 472C48.972 472 40 463.028 40 452C41.099 425.467 78.906 425.475 80 452C80 463.028 71.028 472 60 472Z" fill="#3B82F6"/>
  
  <path fill-rule="evenodd" clip-rule="evenodd" d="M326.129 204.177C338.314 204.177 348.174 194.738 348.174 183.088C348.174 171.439 338.314 162 326.129 162C313.944 162 304.063 171.439 304.063 183.088C304.063 194.738 313.944 204.177 326.129 204.177V204.177ZM327.414 331.875H272.204L261.636 332L261.725 331.875H128.352C124.364 331.875 122.813 329.263 124.994 326.014L218.7 183.339C220.827 180.099 224.327 180.033 226.521 183.185L294.536 281.778L320.059 242.828C322.186 239.601 325.73 239.514 327.99 242.635L386.923 323.788C389.182 326.905 387.764 329.526 383.821 329.642L331.313 331.183L326.993 331.236L327.392 331.879L327.414 331.875Z" fill="#3B82F6"/>
</svg>