<svg width="300" height="300" viewBox="0 0 300 300" fill="none" xmlns="http://www.w3.org/2000/svg">
<g clip-path="url(#clip0)">
<path d="M37.5 222.514H20.6886C9.26285 222.514 0 213.251 0 201.826V25.9621C0 14.5363 9.26285 5.27344 20.6886 5.27344H37.5V222.514Z" fill="#DBEAFE"/>
<path d="M29.1664 5.27344H66.6664V222.514H29.1664V5.27344Z" fill="#BFDBFE"/>
<path d="M58.3351 5.27344H95.8351V222.514H58.3351V5.27344Z" fill="#93C5FD"/>
<path d="M87.5015 5.27344H125.002V222.514H87.5015V5.27344Z" fill="#60A5FA"/>
<path d="M116.668 5.27344H154.168V222.514H116.668V5.27344Z" fill="#3B82F6"/>
<path d="M145.832 5.27344H183.332V222.514H145.832V5.27344Z" fill="#2563EB"/>
<path d="M174.998 5.27344H212.498V222.514H174.998V5.27344Z" fill="#1D4ED8"/>
<path d="M204.165 5.27344H241.665V222.514H204.165V5.27344Z" fill="#1E40AF"/>
<path d="M233.334 5.27344H270.834V222.514H233.334V5.27344Z" fill="#111827"/>
<path d="M279.311 222.514H262.5V5.27344H279.311C290.737 5.27344 300 14.5363 300 25.9621V201.826C300 213.251 290.737 222.514 279.311 222.514Z" fill="#1F2937"/>

<path d="M138.414 274.104H28.4477C24.1631 274.104 20.6886 270.63 20.6886 266.345V261.172C20.6886 256.888 24.1631 253.416 28.4477 253.416H271.552C275.837 253.416 279.311 256.888 279.311 261.172V266.345C279.311 270.63 275.837 274.104 271.552 274.104H138.414Z" fill="#1E40AF"/>
<path d="M300 235.291V287.016C300 291.3 296.526 294.772 292.241 294.772H261.207C256.922 294.772 253.448 291.3 253.448 287.016V235.291H300Z" fill="#3B82F6"/>
<path d="M46.5523 235.291V287.016C46.5523 291.3 43.0779 294.772 38.7932 294.772H7.75909C3.47443 294.772 0 291.3 0 287.016V235.291H46.5523Z" fill="#DBEAFE"/>

<path d="M144.511 247.311L133.557 258.273C130.529 261.301 130.529 266.212 133.557 269.243L144.511 280.202C145.967 281.66 147.942 282.477 150 282.477C152.058 282.477 154.033 281.66 155.489 280.202L166.443 269.243C169.471 266.212 169.471 261.301 166.443 258.273L155.489 247.311C154.033 245.856 152.058 245.036 150 245.036C147.942 245.036 145.967 245.856 144.511 247.311Z" fill="#60A5FA"/>

<path d="M300 233.324V237.877H253.448V233.324C253.468 230.978 254.53 228.761 256.345 227.273L271.861 214.861C274.722 212.636 278.725 212.636 281.586 214.861L297.102 227.273C298.92 228.761 299.979 230.978 300 233.324V233.324Z" fill="#60A5FA"/>
<path d="M46.5523 233.324V237.877H0V233.324C0.0205993 230.978 1.08032 228.761 2.89764 227.273L18.4135 214.861C21.2746 212.636 25.2777 212.636 28.1387 214.861L43.6546 227.273C45.4697 228.761 46.5317 230.978 46.5523 233.324V233.324Z" fill="#60A5FA"/>
</g>
<defs>
<clipPath id="clip0">
<rect width="300" height="300" fill="white"/>
</clipPath>
</defs>
</svg>