<svg width="512" height="512" viewBox="0 0 512 512" fill="none" xmlns="http://www.w3.org/2000/svg">
<g opacity="0.8">
<path opacity="0.8" d="M507.17 2.80005L501.373 18.0833L339.079 499.3H302.5H234.5H166.5H93.5L12 497H0L153.6 4.71H175.819H242.476L386.415 2.80005H418.295H507.17Z" fill="#60A5FA"/>
<g opacity="0.8">
<path opacity="0.8" d="M339.201 499.307L0 497L4.83193 509.692L345 512L339.201 499.307Z" fill="#2563EB"/>
<path opacity="0.8" d="M506.5 3L339 499.5L344.841 512L511 17.1933L506.5 3Z" fill="#3B82F6"/>
</g>
<g opacity="0.4">
<g opacity="0.4">
<path opacity="0.4" d="M153.5 4.5L158.5 12L11.5926 497H0L153.5 4.5Z" fill="#3B82F6"/>
</g>
<g opacity="0.4">
<path opacity="0.4" d="M507 3L504.5 11L158.5 12L153.5 5L507 3Z" fill="#2563EB"/>
</g>
</g>
<g opacity="0.4">
<path opacity="0.4" d="M240.544 1.94458L165.192 498.055H96.6035L173.886 1.94458H240.544Z" fill="white"/>
<path opacity="0.4" d="M370.959 0L295.608 500L261.797 498.055L339.079 0H370.959Z" fill="white"/>
</g>
</g>
</svg>