<svg width="512" height="512" viewBox="0 0 512 512" fill="none" xmlns="http://www.w3.org/2000/svg">
<path d="M69.6361 69.6361H361.967V43H43V362.633H69.6361V69.6361Z" fill="#3B82F6"/>
<path d="M442.54 149.544V442.542H150.209V469.178H469.176V149.544H442.54Z" fill="#3B82F6"/>
<path d="M93.8923 484.226H120.528V391H27.302V417.636H75.0606L0 492.697L18.8317 511.528L93.8923 436.468V484.226Z" fill="#3B82F6"/>
<path d="M417.636 27.302H391V120.528H484.226V93.8923H436.468L511.528 18.8317L492.697 0L417.636 75.0606V27.302Z" fill="#3B82F6"/>
<path d="M158.529 318C140.536 318 125.616 312.079 113.77 300.237C101.923 288.395 96 273.816 96 256.5C96 239.184 101.923 224.605 113.77 212.763C125.616 200.921 140.536 195 158.529 195C171.828 195 183.954 198.966 194.906 206.898C205.97 214.718 213.123 225.052 216.364 237.899H187.362C184.792 232.425 180.88 228.236 175.628 225.331C170.375 222.315 164.675 220.807 158.529 220.807C147.8 220.807 139.139 224.214 132.545 231.029C126.063 237.843 122.822 246.334 122.822 256.5C122.822 266.666 126.063 275.157 132.545 281.971C139.139 288.786 147.8 292.193 158.529 292.193C164.675 292.193 170.375 290.741 175.628 287.837C180.88 284.82 184.792 280.575 187.362 275.101H216.364C213.123 287.948 205.97 298.338 194.906 306.27C183.954 314.09 171.828 318 158.529 318Z" fill="#3B82F6"/>
<path d="M272.743 318C258.885 318 247.71 313.978 239.216 305.935C230.722 297.891 226.252 288.507 225.805 277.782H252.459C253.353 282.698 255.589 286.552 259.165 289.345C262.853 292.026 267.379 293.366 272.743 293.366C277.326 293.366 281.014 292.417 283.808 290.518C286.713 288.619 288.166 286.049 288.166 282.809C288.166 277.112 282.969 272.811 272.576 269.906L261.009 266.89C251.062 264.208 243.239 259.851 237.54 253.819C231.84 247.786 228.934 240.245 228.822 231.196C228.822 220.136 232.51 211.366 239.887 204.887C247.374 198.296 257.321 195 269.726 195C282.243 195 292.413 198.798 300.236 206.395C308.059 213.88 312.194 222.482 312.641 232.202H286.154C284.925 227.845 282.802 224.661 279.784 222.65C276.767 220.639 273.414 219.634 269.726 219.634C265.591 219.634 262.238 220.471 259.668 222.147C257.097 223.823 255.756 226.225 255.644 229.353C255.533 232.481 256.65 235.05 258.997 237.061C261.456 239.072 265.144 240.748 270.061 242.089L283.64 245.608C293.586 248.289 301.298 252.702 306.774 258.846C312.362 264.99 315.156 272.699 315.156 281.971C315.156 292.249 311.244 300.851 303.421 307.778C295.598 314.593 285.372 318 272.743 318Z" fill="#3B82F6"/>
<path d="M373.588 318C359.73 318 348.554 313.978 340.06 305.935C331.567 297.891 327.096 288.507 326.649 277.782H353.304C354.198 282.698 356.433 286.552 360.009 289.345C363.697 292.026 368.223 293.366 373.588 293.366C378.17 293.366 381.858 292.417 384.652 290.518C387.558 288.619 389.01 286.049 389.01 282.809C389.01 277.112 383.814 272.811 373.42 269.906L361.853 266.89C351.907 264.208 344.084 259.851 338.384 253.819C332.684 247.786 329.779 240.245 329.667 231.196C329.667 220.136 333.355 211.366 340.731 204.887C348.219 198.296 358.165 195 370.57 195C383.087 195 393.257 198.798 401.08 206.395C408.903 213.88 413.038 222.482 413.485 232.202H386.999C385.769 227.845 383.646 224.661 380.629 222.65C377.611 220.639 374.258 219.634 370.57 219.634C366.435 219.634 363.082 220.471 360.512 222.147C357.942 223.823 356.601 226.225 356.489 229.353C356.377 232.481 357.495 235.05 359.841 237.061C362.3 239.072 365.988 240.748 370.906 242.089L384.484 245.608C394.431 248.289 402.142 252.702 407.618 258.846C413.206 264.99 416 272.699 416 281.971C416 292.249 412.088 300.851 404.265 307.778C396.442 314.593 386.216 318 373.588 318Z" fill="#3B82F6"/>
</svg>