<svg width="512" height="512" viewBox="0 0 512 512" fill="none" xmlns="http://www.w3.org/2000/svg">
<path d="M258.358 468.057C194.586 468.057 141.965 447.321 100.494 405.85C59.0226 364.379 38.2871 313.323 38.2871 252.681C38.2871 192.04 59.0226 140.983 100.494 99.5122C141.965 58.0412 194.195 37.3057 257.184 37.3057C300.611 37.3057 340.517 49.0428 376.902 72.5169C413.287 95.9911 438.718 127.681 453.193 167.587H345.799C325.063 140.983 295.525 127.681 257.184 127.681C219.625 127.681 189.304 139.614 166.221 163.479C143.53 187.345 132.184 217.079 132.184 252.681C132.184 288.284 143.725 318.018 166.808 341.883C189.891 365.749 220.408 377.681 258.358 377.681C319.782 377.681 355.775 350.49 366.339 296.109H246.621V208.667H463.17C468.256 251.312 466.3 289.653 457.301 323.691C448.694 357.337 434.61 384.528 415.048 405.263C395.877 425.608 372.99 441.257 346.386 452.212C319.782 462.775 290.439 468.057 258.358 468.057Z" fill="#3B82F6"/>
<path d="M288.433 495.353C224.661 495.353 172.04 474.618 130.569 433.147C89.0978 391.676 68.3623 340.619 68.3623 279.978C68.3623 219.336 89.0978 168.28 130.569 126.809C172.04 85.3376 224.27 64.6021 287.259 64.6021C330.686 64.6021 370.592 76.3391 406.977 99.8133C443.362 123.288 468.793 154.978 483.269 194.884H375.874C355.139 168.28 325.6 154.978 287.259 154.978C249.7 154.978 219.38 166.91 196.297 190.776C173.605 214.641 162.259 244.375 162.259 279.978C162.259 315.58 173.801 345.314 196.883 369.18C219.966 393.045 250.483 404.978 288.433 404.978C349.857 404.978 385.851 377.787 396.414 323.405H276.696V235.964H493.245C498.331 278.608 496.375 316.95 487.376 350.987C478.769 384.633 464.685 411.824 445.123 432.56C425.952 452.904 403.065 468.554 376.461 479.508C349.857 490.072 320.514 495.353 288.433 495.353Z" fill="#3B82F6" fill-opacity="0.33"/>
<path d="M236.07 447.751C172.299 447.751 119.678 427.016 78.2066 385.545C36.7355 344.074 16 293.017 16 232.376C16 171.734 36.7355 120.678 78.2066 79.2066C119.678 37.7355 171.908 17 234.897 17C278.324 17 318.23 28.7371 354.615 52.2113C391 75.6855 416.43 107.376 430.906 147.282H323.512C302.776 120.678 273.238 107.376 234.897 107.376C197.338 107.376 167.017 119.308 143.934 143.174C121.243 167.039 109.897 196.773 109.897 232.376C109.897 267.978 121.438 297.712 144.521 321.578C167.604 345.443 198.121 357.376 236.07 357.376C297.495 357.376 333.488 330.185 344.052 275.803H224.333V188.362H440.883C445.969 231.006 444.013 269.347 435.014 303.385C426.407 337.031 412.322 364.222 392.761 384.958C373.59 405.302 350.703 420.952 324.099 431.906C297.495 442.47 268.152 447.751 236.07 447.751Z" fill="#3B82F6" fill-opacity="0.33"/>
</svg>