<svg width="512" height="512" viewBox="0 0 512 512" fill="none" xmlns="http://www.w3.org/2000/svg">
<path d="M0.179843 332.305C2.60766 327.27 5.57501 322.864 11.3298 320.976C12.319 320.616 13.1282 317.828 13.0383 316.12C12.3189 292.291 14.7468 268.912 20.6814 245.803C29.4036 212.443 44.3302 182.23 65.9108 155.434C68.1588 152.647 68.5184 150.758 66.6301 147.611C59.7064 136.102 52.9624 124.412 46.3084 112.633C24.9976 74.8666 46.3084 30.0868 89.02 22.8034C123.099 16.9586 156.19 43.7545 157.988 78.823C157.988 80.3517 157.988 81.7904 157.988 83.9485C159.786 83.319 161.135 82.9593 162.394 82.4198C212.389 62.0981 263.643 58.1416 316.066 71.3598C319.663 72.2589 321.461 71.3598 323.889 68.6622C351.674 36.3812 386.922 23.9723 427.926 35.0324C468.749 46.0025 493.477 74.0573 500.94 115.78C506.425 146.622 497.793 174.137 477.561 197.966C475.673 200.124 475.223 201.653 476.482 204.44C492.847 239.419 500.311 276.376 498.962 314.951C498.872 318.548 499.142 320.796 503.188 322.414C509.752 325.022 512 330.957 512 337.88C512 372.05 512 406.219 512 440.388C512 451.538 512 462.688 512 473.928C512 484.089 505.616 490.473 495.545 490.563C489.34 490.563 483.226 490.653 477.021 490.563C472.166 490.473 469.198 487.686 469.019 483.46C468.839 479.053 471.896 475.816 476.842 475.637C483.316 475.457 489.79 475.637 496.714 475.637V335.632H490.24C354.282 335.632 218.234 335.632 82.2761 335.632C80.2979 335.632 78.2297 335.722 76.2515 335.542C71.9354 335.093 69.5975 332.395 69.4176 328.259C69.3277 324.302 71.6656 321.695 75.5322 320.886C77.3305 320.526 79.2189 320.616 81.0172 320.616C135.328 320.616 189.64 320.616 244.041 320.616C247.817 320.616 249.886 319.717 250.785 315.94C253.662 304.52 257.798 293.28 259.327 281.681C262.115 260.19 254.022 259.471 239.005 262.168C230.013 263.787 221.021 265.765 211.94 266.305C193.057 267.384 179.838 258.302 171.566 241.667C158.977 216.22 163.833 182.14 182.536 163.977C184.784 161.818 187.122 159.57 189.55 157.502C200.969 147.971 203.937 135.652 201.419 121.445C199.351 109.845 194.855 99.2347 188.92 87.9049C177.68 92.6706 166.62 97.2565 155.65 102.022C154.751 102.382 154.122 103.641 153.582 104.63C137.846 132.235 122.2 159.93 106.374 187.445C102.148 194.729 93.7858 194.549 89.3797 187.356C85.1535 180.432 81.1971 173.328 76.791 165.595C41.6326 211.634 25.627 262.798 28.2347 320.526C32.3709 320.526 36.1475 320.526 39.9242 320.526C45.8588 320.526 49.1858 323.223 49.1858 327.989C49.1858 332.755 46.0387 335.452 40.104 335.542C32.0113 335.542 23.8286 335.542 15.3762 335.542V475.547H21.4907C159.786 475.547 298.172 475.547 436.468 475.547C438.446 475.547 440.514 475.367 442.492 475.726C446.629 476.536 449.057 479.233 448.787 483.46C448.517 487.596 445.999 490.114 441.683 490.473C439.885 490.563 437.996 490.473 436.198 490.473C297.723 490.473 159.247 490.473 20.6814 490.653C11.15 490.653 4.2262 487.956 0 479.323V332.305H0.179843ZM204.746 84.488C207.893 92.5807 211.22 100.044 213.648 107.867C221.381 132.415 217.874 153.995 196.923 171.35C178.04 186.996 176.781 207.587 183.076 229.258C188.201 247.152 200.16 253.806 218.594 250.838C228.395 249.22 238.286 247.062 248.177 246.343C262.384 245.353 272.455 253.626 274.164 267.653C275.063 275.117 274.793 283.03 273.444 290.403C271.736 300.474 268.589 310.275 265.981 320.256H394.476C393.217 307.128 391.328 294.269 390.969 281.321C390.609 268.732 385.574 264.326 374.783 262.348C365.162 260.55 355.271 259.83 345.649 258.392C321.821 254.795 306.804 241.217 303.837 218.108C302.039 204.53 302.578 190.593 303.118 176.835C303.477 168.023 305.905 159.481 303.477 150.309C300.24 138.26 300.6 125.761 303.387 113.622C305.546 104.27 308.783 95.1883 311.66 85.6569C276.502 76.9347 240.894 76.4851 204.926 84.6678L204.746 84.488ZM487.632 131.606C487.452 84.1283 448.967 46.0924 401.399 46.2723C354.372 46.4521 316.066 85.2073 316.336 132.325C316.606 179.443 355.091 217.568 402.389 217.478C449.506 217.389 487.812 178.813 487.632 131.696V131.606ZM317.415 186.456C317.145 188.165 316.965 188.884 316.965 189.604C317.235 197.247 317.145 204.98 318.044 212.533C320.112 231.146 329.104 240.408 347.718 243.375C357.609 244.904 367.59 245.713 377.391 247.422C395.824 250.569 404.906 261.269 405.715 279.703C405.805 282.67 405.715 285.727 406.075 288.694C407.424 299.215 408.953 309.736 410.391 320.076H483.676C487.812 291.212 476.931 233.844 463.174 211.903C439.885 228.898 413.988 235.822 385.484 230.966C356.799 226.111 334.499 210.914 317.505 186.366L317.415 186.456ZM97.5624 171.44C98.3716 170.99 98.7313 170.81 98.9111 170.631C112.219 147.521 126.067 124.772 138.655 101.303C148.547 82.7795 142.342 59.4904 125.707 46.542C109.342 33.8634 85.6031 34.1332 69.6874 47.2614C53.2322 60.8392 47.9269 83.7686 57.9979 102.292C70.6765 125.491 84.2543 148.241 97.5624 171.44Z" fill="#3B82F6"/>
<path d="M120.326 78.9023C120.326 91.1313 110.166 101.202 98.0265 101.202C85.7975 101.202 75.8165 91.1313 75.7266 78.9023C75.7266 66.4035 85.7975 56.3326 98.2963 56.4225C110.525 56.5124 120.326 66.5833 120.237 78.9023H120.326ZM105.31 78.7224C105.31 74.6761 102.073 71.439 98.1164 71.439C94.0701 71.439 90.833 74.6761 90.833 78.7224C90.833 82.6789 94.16 86.0958 98.1164 86.0958C102.073 86.0958 105.31 82.7688 105.31 78.7224Z" fill="#3B82F6"/>
<path d="M389.51 142.661C389.51 120.811 418.284 118.652 418.284 103.456C418.284 96.4424 412.709 90.5976 401.289 90.5976C389.869 90.5976 382.316 95.4533 376.381 103.096L364.242 89.6985C373.414 78.4586 387.172 71.9844 403.267 71.9844C425.837 71.9844 439.595 83.9436 439.595 100.039C439.595 126.475 407.763 128.633 407.763 144.549C407.763 147.427 409.202 150.844 411.72 152.642L395.804 158.037C391.488 153.901 389.51 148.506 389.51 142.661ZM389.689 182.315C389.689 175.661 395.444 169.996 402.188 169.996C408.932 169.996 414.687 175.751 414.687 182.315C414.687 188.879 408.932 194.994 402.188 194.994C395.444 194.994 389.689 189.059 389.689 182.315Z" fill="#3B82F6"/>
<path d="M207.5 114L196 79.5L281 71L321 82.5L309 114V203.5L324 241.5L385 256L398 279.5L405.5 328.5H255L268.5 279.5L255 256L207.5 261.5L185 241.5L173 203.5L185 174.5L207.5 149.5V114Z" fill="#3B82F6" fill-opacity="0.37"/>
<rect y="319" width="512" height="172" rx="19" fill="#3B82F6"/>
<path d="M433.081 456.24H413.353L363.529 393.024V456.24H340.633V354H360.361L410.041 417.216V354H433.081V456.24Z" fill="white"/>
<path d="M214.484 456.24L258.26 354H278.996L322.772 456.24H298.868L289.796 434.64H247.46L238.388 456.24H214.484ZM268.628 384.096L255.668 414.768H281.444L268.628 384.096Z" fill="white"/>
<path d="M129.641 456.24V354H168.089C176.441 354 183.593 356.976 189.545 362.928C195.497 368.784 198.473 375.936 198.473 384.384C198.473 391.2 196.025 397.056 191.129 401.952C195.545 404.256 199.049 407.52 201.641 411.744C204.329 415.968 205.673 420.768 205.673 426.144C205.673 434.592 202.697 441.744 196.745 447.6C190.793 453.36 183.401 456.24 174.569 456.24H129.641ZM152.537 435.216H172.697C175.769 435.216 178.313 434.256 180.329 432.336C182.345 430.32 183.353 427.872 183.353 424.992C183.353 422.112 182.297 419.712 180.185 417.792C178.169 415.776 175.625 414.768 172.553 414.768H152.537V435.216ZM152.537 395.328H165.497C168.569 395.328 171.113 394.368 173.129 392.448C175.145 390.528 176.153 388.128 176.153 385.248C176.153 382.368 175.145 379.92 173.129 377.904C171.113 375.888 168.569 374.88 165.497 374.88H152.537V395.328Z" fill="white"/>
<path d="M78 456.24V354H100.896V456.24H78Z" fill="white"/>
</svg>