<svg width="100" height="100" viewBox="0 0 100 100" fill="none" xmlns="http://www.w3.org/2000/svg">
<path d="M95.3084 33.5475C93.2026 28.4804 88.9308 23.0094 85.5857 21.2799C87.9716 25.9007 89.6273 30.8632 90.4939 35.991L90.5027 36.0723C85.0229 22.4104 75.7304 16.9019 68.141 4.90691C67.7571 4.30041 67.3732 3.69266 66.9993 3.05115C66.7854 2.68475 66.6141 2.35461 66.4653 2.05074C66.1505 1.44118 65.908 0.796977 65.7425 0.131197C65.7427 0.100475 65.7316 0.0707457 65.7113 0.0476814C65.691 0.0246171 65.663 0.00983164 65.6325 0.00614566C65.6026 -0.00204855 65.571 -0.00204855 65.5412 0.00614566C65.5349 0.00614566 65.5249 0.0174003 65.5174 0.0199013C65.5099 0.0224024 65.4936 0.033657 65.4824 0.0386591L65.5011 0.00614566C53.3274 7.13408 49.1969 20.3295 48.8168 26.9297C43.9552 27.2639 39.3071 29.0554 35.4788 32.0706C35.0794 31.7323 34.6619 31.4159 34.2283 31.1227C33.1239 27.2573 33.0769 23.1664 34.092 19.2766C29.6213 21.4424 25.6488 24.5125 22.4259 28.2928H22.4034C20.4826 25.858 20.6177 17.8297 20.7277 16.1528C20.1595 16.3812 19.6171 16.6691 19.1095 17.0119C17.4139 18.2221 15.8287 19.58 14.3726 21.0698C12.7133 22.7522 11.1978 24.5705 9.84198 26.5058V26.5133V26.5046C6.726 30.9221 4.51591 35.9131 3.3393 41.1894L3.27427 41.5095C3.18299 41.9359 2.8541 44.0718 2.79783 44.5357C2.79783 44.572 2.79033 44.6058 2.78657 44.642C2.36232 46.8471 2.09943 49.0802 2 51.3235V51.5736C2.01063 63.709 6.57317 75.3989 14.7859 84.3329C22.9987 93.267 34.264 98.7953 46.3556 99.8251C58.4472 100.855 70.4852 97.3114 80.0905 89.8948C89.6958 82.4782 96.1695 71.7283 98.2321 59.7695C98.3134 59.1443 98.3797 58.5252 98.4522 57.8937C99.4505 49.6431 98.3698 41.2739 95.3084 33.5475V33.5475ZM39.4479 71.4856C39.6743 71.5944 39.8869 71.7119 40.1195 71.8157L40.1532 71.837C39.9181 71.7244 39.683 71.6073 39.4479 71.4856V71.4856ZM90.5064 36.0835V36.0372L90.5152 36.0885L90.5064 36.0835Z" fill="url(#paint0_linear)"/>
<path d="M95.3084 33.5475C93.2025 28.4804 88.9308 23.0094 85.5856 21.2799C87.9716 25.9007 89.6273 30.8632 90.4939 35.991V36.0372L90.5027 36.0885C94.2383 46.7785 93.698 58.4986 88.9946 68.7995C83.4398 80.7181 69.9942 92.9344 48.9481 92.3404C26.2074 91.6964 6.18044 74.822 2.4364 52.7204C1.75487 49.2352 2.4364 47.4682 2.77904 44.6358C2.31164 46.8359 2.05081 49.0749 1.99997 51.3235V51.5736C2.0106 63.709 6.57314 75.3989 14.7859 84.3329C22.9986 93.267 34.264 98.7953 46.3556 99.8251C58.4472 100.855 70.4852 97.3114 80.0905 89.8948C89.6957 82.4782 96.1694 71.7283 98.2321 59.7695C98.3134 59.1442 98.3797 58.5252 98.4522 57.8937C99.4504 49.6431 98.3697 41.2739 95.3084 33.5475V33.5475Z" fill="url(#paint1_radial)"/>
<path d="M95.3084 33.5475C93.2025 28.4804 88.9308 23.0094 85.5856 21.2799C87.9716 25.9007 89.6273 30.8632 90.4939 35.991V36.0372L90.5027 36.0885C94.2383 46.7785 93.698 58.4986 88.9946 68.7995C83.4398 80.7181 69.9942 92.9344 48.9481 92.3404C26.2074 91.6964 6.18044 74.822 2.4364 52.7204C1.75487 49.2352 2.4364 47.4682 2.77904 44.6358C2.31164 46.8359 2.05081 49.0749 1.99997 51.3235V51.5736C2.0106 63.709 6.57314 75.3989 14.7859 84.3329C22.9986 93.267 34.264 98.7953 46.3556 99.8251C58.4472 100.855 70.4852 97.3114 80.0905 89.8948C89.6957 82.4782 96.1694 71.7283 98.2321 59.7695C98.3134 59.1442 98.3797 58.5252 98.4522 57.8937C99.4504 49.6431 98.3697 41.2739 95.3084 33.5475V33.5475Z" fill="url(#paint2_radial)"/>
<path d="M71.7562 39.2448C71.8612 39.3186 71.9588 39.3924 72.0576 39.4661C70.8401 37.3074 69.3246 35.3309 67.5557 33.595C52.492 18.5288 63.6078 0.927771 65.4824 0.033653L65.5011 0.00614166C53.3274 7.13408 49.1969 20.3295 48.8168 26.9297C49.382 26.891 49.9422 26.8434 50.52 26.8434C54.8395 26.8514 59.0798 28.003 62.8099 30.1813C66.54 32.3595 69.6267 35.4867 71.7562 39.2448V39.2448Z" fill="url(#paint3_radial)"/>
<path d="M50.5512 42.2535C50.4712 43.459 46.2119 47.617 44.7226 47.617C30.9406 47.617 28.7035 55.9542 28.7035 55.9542C29.3137 62.9746 34.2057 68.757 40.1194 71.8157C40.3895 71.9558 40.6634 72.0821 40.9373 72.2059C41.4116 72.416 41.886 72.6102 42.3603 72.7886C44.3899 73.5069 46.5156 73.917 48.6667 74.0054C72.8229 75.1383 77.5023 45.1185 60.0701 36.4074C64.1825 35.8723 68.3471 36.8835 71.7562 39.2448C69.6267 35.4867 66.54 32.3595 62.8099 30.1812C59.0798 28.003 54.8395 26.8514 50.52 26.8434C49.9447 26.8434 49.382 26.891 48.8168 26.9297C43.9551 27.2639 39.307 29.0554 35.4788 32.0706C36.2178 32.6959 37.0519 33.5312 38.8089 35.2632C42.0977 38.5032 50.5325 41.8596 50.5512 42.2535V42.2535Z" fill="url(#paint4_radial)"/>
<path d="M50.5512 42.2535C50.4712 43.459 46.2119 47.617 44.7226 47.617C30.9406 47.617 28.7035 55.9542 28.7035 55.9542C29.3137 62.9746 34.2057 68.757 40.1194 71.8157C40.3895 71.9558 40.6634 72.0821 40.9373 72.2059C41.4116 72.416 41.886 72.6102 42.3603 72.7886C44.3899 73.5069 46.5156 73.917 48.6667 74.0054C72.8229 75.1383 77.5023 45.1185 60.0701 36.4074C64.1825 35.8723 68.3471 36.8835 71.7562 39.2448C69.6267 35.4867 66.54 32.3595 62.8099 30.1812C59.0798 28.003 54.8395 26.8514 50.52 26.8434C49.9447 26.8434 49.382 26.891 48.8168 26.9297C43.9551 27.2639 39.307 29.0554 35.4788 32.0706C36.2178 32.6959 37.0519 33.5312 38.8089 35.2632C42.0977 38.5032 50.5325 41.8596 50.5512 42.2535V42.2535Z" fill="url(#paint5_radial)"/>
<path d="M33.2191 30.4587C33.6117 30.7088 33.9356 30.9264 34.2195 31.1227C33.1151 27.2573 33.0681 23.1664 34.0832 19.2766C29.6125 21.4424 25.64 24.5125 22.4171 28.2928C22.6535 28.2865 29.6839 28.1602 33.2191 30.4587V30.4587Z" fill="url(#paint6_radial)"/>
<path d="M2.44265 52.7204C6.18294 74.822 26.2137 91.6964 48.9543 92.3404C70.0005 92.9357 83.446 80.7181 89.0008 68.7995C93.7042 58.4986 94.2446 46.7785 90.5089 36.0885V36.0422C90.5089 36.006 90.5014 35.9847 90.5089 35.996L90.5177 36.0773C92.2371 47.3031 86.5273 58.1789 77.6011 65.5331L77.5736 65.5957C60.1814 79.7603 43.5371 74.1417 40.1682 71.8482C39.9331 71.7357 39.698 71.6186 39.4629 71.4968C29.3225 66.6499 25.1332 57.411 26.0311 49.4878C23.624 49.5233 21.2583 48.86 19.2205 47.5782C17.1827 46.2964 15.5604 44.4512 14.5501 42.2661C17.212 40.6353 20.2471 39.7134 23.3663 39.5882C26.4855 39.463 29.5847 40.1386 32.3687 41.5508C38.1084 44.1564 44.6397 44.4131 50.5662 42.2661C50.5475 41.8721 42.1127 38.5145 38.8239 35.2757C37.0669 33.5437 36.2328 32.7096 35.4938 32.0831C35.0944 31.7448 34.6769 31.4284 34.2432 31.1352C33.9556 30.9389 33.6317 30.7263 33.2428 30.4712C29.7076 28.1728 22.6772 28.2991 22.4446 28.3053H22.4221C20.5013 25.8706 20.6364 17.8422 20.7464 16.1653C20.1782 16.3937 19.6358 16.6817 19.1283 17.0244C17.4326 18.2346 15.8475 19.5926 14.3913 21.0823C12.7261 22.7599 11.2043 24.5741 9.84195 26.5058V26.5133V26.5046C6.72597 30.9221 4.51588 35.9131 3.33927 41.1894C3.31551 41.2882 1.59355 48.8163 2.44265 52.7204V52.7204Z" fill="url(#paint7_radial)"/>
<path d="M67.5582 33.595C69.3276 35.3328 70.8431 37.3114 72.0601 39.4724C72.3264 39.6737 72.5753 39.8738 72.7866 40.0676C83.7749 50.1968 78.0175 64.5152 77.5886 65.5344C86.5148 58.1801 92.2196 47.3044 90.5052 36.0785C85.0229 22.4104 75.7303 16.9019 68.141 4.90691C67.757 4.30041 67.3731 3.69266 66.9992 3.05115C66.7854 2.68475 66.6141 2.35461 66.4653 2.05074C66.1505 1.44118 65.9079 0.796977 65.7425 0.131197C65.7427 0.100475 65.7316 0.0707457 65.7113 0.0476814C65.691 0.0246171 65.6629 0.00983164 65.6324 0.00614566C65.6025 -0.00204855 65.571 -0.00204855 65.5411 0.00614566C65.5349 0.00614566 65.5249 0.0174003 65.5174 0.0199013C65.5099 0.0224024 65.4936 0.033657 65.4824 0.0386591C63.6078 0.927775 52.492 18.5288 67.5582 33.595V33.595Z" fill="url(#paint8_radial)"/>
<path d="M72.7791 40.0614C72.5678 39.8676 72.3189 39.6675 72.0526 39.4661C71.9538 39.3924 71.8562 39.3186 71.7512 39.2448C68.3421 36.8835 64.1775 35.8723 60.0651 36.4074C77.4973 45.1235 72.8204 75.1383 48.6617 74.0054C46.5106 73.917 44.3849 73.5069 42.3553 72.7886C41.881 72.611 41.4066 72.4168 40.9323 72.2059C40.6584 72.0808 40.3845 71.9558 40.1144 71.8157L40.1482 71.837C43.5171 74.1367 60.1564 79.7552 77.5536 65.5844L77.5811 65.5219C78.015 64.509 83.7724 50.1868 72.7791 40.0614V40.0614Z" fill="url(#paint9_radial)"/>
<path d="M28.7035 55.9542C28.7035 55.9542 30.9406 47.617 44.7226 47.617C46.2119 47.617 50.4749 43.459 50.5512 42.2535C44.6247 44.4006 38.0934 44.1439 32.3537 41.5383C29.5697 40.1261 26.4704 39.4505 23.3513 39.5757C20.2321 39.7009 17.197 40.6228 14.5351 42.2535C15.5454 44.4387 17.1677 46.2839 19.2055 47.5657C21.2432 48.8475 23.609 49.5108 26.0161 49.4753C25.1182 57.3998 29.3075 66.6386 39.4479 71.4843C39.6742 71.5931 39.8868 71.7107 40.1194 71.8145C34.2007 68.757 29.3137 62.9746 28.7035 55.9542Z" fill="url(#paint10_radial)"/>
<path d="M95.3084 33.5475C93.2026 28.4804 88.9308 23.0094 85.5857 21.2799C87.9716 25.9007 89.6273 30.8632 90.4939 35.991L90.5027 36.0723C85.0229 22.4104 75.7304 16.9019 68.141 4.90691C67.7571 4.30041 67.3732 3.69266 66.9993 3.05115C66.7854 2.68475 66.6141 2.35461 66.4653 2.05074C66.1505 1.44118 65.908 0.796977 65.7425 0.131197C65.7427 0.100475 65.7316 0.0707457 65.7113 0.0476814C65.691 0.0246171 65.663 0.00983164 65.6325 0.00614566C65.6026 -0.00204855 65.571 -0.00204855 65.5412 0.00614566C65.5349 0.00614566 65.5249 0.0174003 65.5174 0.0199013C65.5099 0.0224024 65.4936 0.033657 65.4824 0.0386591L65.5011 0.00614566C53.3274 7.13408 49.1969 20.3295 48.8168 26.9297C49.382 26.891 49.9422 26.8435 50.52 26.8435C54.8395 26.8514 59.0799 28.003 62.8099 30.1813C66.54 32.3595 69.6267 35.4867 71.7562 39.2448C68.3471 36.8835 64.1825 35.8723 60.0702 36.4074C77.5023 45.1235 72.8254 75.1383 48.6667 74.0054C46.5156 73.917 44.3899 73.5069 42.3604 72.7886C41.886 72.6111 41.4116 72.4168 40.9373 72.2059C40.6634 72.0808 40.3896 71.9558 40.1195 71.8157L40.1532 71.837C39.9181 71.7244 39.683 71.6073 39.4479 71.4856C39.6743 71.5944 39.8869 71.7119 40.1195 71.8157C34.2008 68.757 29.3137 62.9746 28.7035 55.9542C28.7035 55.9542 30.9407 47.617 44.7226 47.617C46.212 47.617 50.475 43.459 50.5512 42.2535C50.5325 41.8596 42.0978 38.502 38.8089 35.2632C37.0519 33.5312 36.2178 32.6971 35.4788 32.0706C35.0794 31.7323 34.6619 31.4159 34.2283 31.1227C33.1239 27.2573 33.0769 23.1664 34.092 19.2766C29.6213 21.4424 25.6488 24.5125 22.4259 28.2928H22.4034C20.4826 25.858 20.6177 17.8297 20.7277 16.1528C20.1595 16.3812 19.6171 16.6691 19.1095 17.0119C17.4139 18.2221 15.8287 19.58 14.3726 21.0698C12.7133 22.7522 11.1978 24.5705 9.84198 26.5058V26.5133V26.5046C6.726 30.9221 4.51591 35.9131 3.3393 41.1894L3.27427 41.5095C3.18299 41.9359 2.77407 44.1018 2.71529 44.567C2.71529 44.602 2.71529 44.5307 2.71529 44.567C2.34128 46.8028 2.10241 49.059 2 51.3235V51.5736C2.01063 63.709 6.57317 75.3989 14.7859 84.3329C22.9987 93.267 34.264 98.7953 46.3556 99.8251C58.4472 100.855 70.4852 97.3114 80.0905 89.8948C89.6958 82.4782 96.1695 71.7283 98.2321 59.7695C98.3134 59.1443 98.3797 58.5252 98.4522 57.8937C99.4505 49.6431 98.3698 41.2739 95.3084 33.5475V33.5475ZM90.5002 36.0372L90.5089 36.0885L90.5002 36.0372Z" fill="url(#paint11_linear)"/>
<defs>
<linearGradient id="paint0_linear" x1="88.8933" y1="15.4925" x2="8.4364" y2="93.1182" gradientUnits="userSpaceOnUse">
<stop offset="0.048" stop-color="#FFF44F"/>
<stop offset="0.111" stop-color="#FFE847"/>
<stop offset="0.225" stop-color="#FFC830"/>
<stop offset="0.368" stop-color="#FF980E"/>
<stop offset="0.401" stop-color="#FF8B16"/>
<stop offset="0.462" stop-color="#FF672A"/>
<stop offset="0.534" stop-color="#FF3647"/>
<stop offset="0.705" stop-color="#E31587"/>
</linearGradient>
<radialGradient id="paint1_radial" cx="0" cy="0" r="1" gradientUnits="userSpaceOnUse" gradientTransform="translate(85.1755 11.0981) scale(101.038)">
<stop offset="0.129" stop-color="#FFBD4F"/>
<stop offset="0.186" stop-color="#FFAC31"/>
<stop offset="0.247" stop-color="#FF9D17"/>
<stop offset="0.283" stop-color="#FF980E"/>
<stop offset="0.403" stop-color="#FF563B"/>
<stop offset="0.467" stop-color="#FF3750"/>
<stop offset="0.71" stop-color="#F5156C"/>
<stop offset="0.782" stop-color="#EB0878"/>
<stop offset="0.86" stop-color="#E50080"/>
</radialGradient>
<radialGradient id="paint2_radial" cx="0" cy="0" r="1" gradientUnits="userSpaceOnUse" gradientTransform="translate(48.2554 52.4053) scale(101.038)">
<stop offset="0.3" stop-color="#960E18"/>
<stop offset="0.351" stop-color="#B11927" stop-opacity="0.74"/>
<stop offset="0.435" stop-color="#DB293D" stop-opacity="0.343"/>
<stop offset="0.497" stop-color="#F5334B" stop-opacity="0.094"/>
<stop offset="0.53" stop-color="#FF3750" stop-opacity="0"/>
</radialGradient>
<radialGradient id="paint3_radial" cx="0" cy="0" r="1" gradientUnits="userSpaceOnUse" gradientTransform="translate(60.4363 -11.8313) scale(73.1976)">
<stop offset="0.132" stop-color="#FFF44F"/>
<stop offset="0.252" stop-color="#FFDC3E"/>
<stop offset="0.506" stop-color="#FF9D12"/>
<stop offset="0.526" stop-color="#FF980E"/>
</radialGradient>
<radialGradient id="paint4_radial" cx="0" cy="0" r="1" gradientUnits="userSpaceOnUse" gradientTransform="translate(37.0795 78.7968) scale(48.1086)">
<stop offset="0.353" stop-color="#3A8EE6"/>
<stop offset="0.472" stop-color="#5C79F0"/>
<stop offset="0.669" stop-color="#9059FF"/>
<stop offset="1" stop-color="#C139E6"/>
</radialGradient>
<radialGradient id="paint5_radial" cx="0" cy="0" r="1" gradientUnits="userSpaceOnUse" gradientTransform="translate(53.7765 44.1249) rotate(-13.5916) scale(25.5069 29.8622)">
<stop offset="0.206" stop-color="#9059FF" stop-opacity="0"/>
<stop offset="0.278" stop-color="#8C4FF3" stop-opacity="0.064"/>
<stop offset="0.747" stop-color="#7716A8" stop-opacity="0.45"/>
<stop offset="0.975" stop-color="#6E008B" stop-opacity="0.6"/>
</radialGradient>
<radialGradient id="paint6_radial" cx="0" cy="0" r="1" gradientUnits="userSpaceOnUse" gradientTransform="translate(46.9797 6.96425) scale(34.6093)">
<stop stop-color="#FFE226"/>
<stop offset="0.121" stop-color="#FFDB27"/>
<stop offset="0.295" stop-color="#FFC82A"/>
<stop offset="0.502" stop-color="#FFA930"/>
<stop offset="0.732" stop-color="#FF7E37"/>
<stop offset="0.792" stop-color="#FF7139"/>
</radialGradient>
<radialGradient id="paint7_radial" cx="0" cy="0" r="1" gradientUnits="userSpaceOnUse" gradientTransform="translate(74.1833 -14.988) scale(147.662)">
<stop offset="0.113" stop-color="#FFF44F"/>
<stop offset="0.456" stop-color="#FF980E"/>
<stop offset="0.622" stop-color="#FF5634"/>
<stop offset="0.716" stop-color="#FF3647"/>
<stop offset="0.904" stop-color="#E31587"/>
</radialGradient>
<radialGradient id="paint8_radial" cx="0" cy="0" r="1" gradientUnits="userSpaceOnUse" gradientTransform="translate(61.7381 -6.77726) rotate(83.976) scale(108.225 71.0271)">
<stop stop-color="#FFF44F"/>
<stop offset="0.06" stop-color="#FFE847"/>
<stop offset="0.168" stop-color="#FFC830"/>
<stop offset="0.304" stop-color="#FF980E"/>
<stop offset="0.356" stop-color="#FF8B16"/>
<stop offset="0.455" stop-color="#FF672A"/>
<stop offset="0.57" stop-color="#FF3647"/>
<stop offset="0.737" stop-color="#E31587"/>
</radialGradient>
<radialGradient id="paint9_radial" cx="0" cy="0" r="1" gradientUnits="userSpaceOnUse" gradientTransform="translate(46.1647 19.7833) scale(92.188)">
<stop offset="0.137" stop-color="#FFF44F"/>
<stop offset="0.48" stop-color="#FF980E"/>
<stop offset="0.592" stop-color="#FF5634"/>
<stop offset="0.655" stop-color="#FF3647"/>
<stop offset="0.904" stop-color="#E31587"/>
</radialGradient>
<radialGradient id="paint10_radial" cx="0" cy="0" r="1" gradientUnits="userSpaceOnUse" gradientTransform="translate(70.4996 25.1786) scale(100.899)">
<stop offset="0.094" stop-color="#FFF44F"/>
<stop offset="0.231" stop-color="#FFE141"/>
<stop offset="0.509" stop-color="#FFAF1E"/>
<stop offset="0.626" stop-color="#FF980E"/>
</radialGradient>
<linearGradient id="paint11_linear" x1="87.9266" y1="15.0774" x2="19.4659" y2="83.5368" gradientUnits="userSpaceOnUse">
<stop offset="0.167" stop-color="#FFF44F" stop-opacity="0.8"/>
<stop offset="0.266" stop-color="#FFF44F" stop-opacity="0.634"/>
<stop offset="0.489" stop-color="#FFF44F" stop-opacity="0.217"/>
<stop offset="0.6" stop-color="#FFF44F" stop-opacity="0"/>
</linearGradient>
</defs>
</svg>
