<svg width="300" height="300" viewBox="0 0 300 300" fill="none" xmlns="http://www.w3.org/2000/svg">
<g clip-path="url(#clip0)">
<path d="M240.009 119.136C254.118 69.4253 225.258 17.6889 175.548 3.57941C125.837 -10.5301 74.1006 18.3298 59.9911 68.0406C55.2503 84.7424 55.2503 102.434 59.9911 119.136C24.0431 133.096 0.342678 167.681 0.297066 206.244H19.0099C19.0474 175.373 38.0345 147.691 66.8213 136.539C77.2549 156.917 94.7982 172.762 116.13 181.076C113.805 189.264 112.609 197.732 112.574 206.244H131.287C131.296 199.411 132.24 192.612 134.094 186.035C144.579 187.965 155.328 187.965 165.812 186.035C167.698 192.607 168.674 199.407 168.713 206.244H187.426C187.391 197.732 186.195 189.264 183.87 181.076C205.202 172.762 222.745 156.917 233.179 136.539C261.966 147.691 280.953 175.373 280.99 206.244H299.703C299.657 167.681 275.957 133.096 240.009 119.136ZM122.96 163.673C107.262 157.58 94.076 146.373 85.5342 131.861C103.35 129.811 121.304 134.299 136.059 144.492C130.913 150.316 126.513 156.76 122.96 163.673ZM150 168.819C147.218 168.818 144.438 168.661 141.673 168.351C144.083 164.292 146.87 160.47 150 156.936C153.13 160.47 155.917 164.292 158.327 168.351C155.562 168.661 152.782 168.818 150 168.819ZM177.04 163.673C173.488 156.76 169.087 150.317 163.941 144.492C178.696 134.299 196.65 129.811 214.466 131.861C205.924 146.373 192.738 157.58 177.04 163.673ZM222.045 114.177C196.678 109.529 170.525 115.778 150 131.393C129.504 115.712 103.349 109.394 77.9555 113.99C76.1187 107.473 75.1743 100.738 75.1485 93.9672C75.0959 52.6282 108.565 19.0731 149.904 19.0199C191.243 18.9672 224.798 52.4364 224.851 93.7754C224.86 100.673 223.916 107.539 222.045 114.177Z" fill="#3B82F6"/>
<path d="M22 298.807V228.193H49.8078C56.2962 228.193 61.5599 230.249 65.5986 234.36C69.6373 238.47 71.6567 243.51 71.6567 249.477C71.6567 258.361 67.0552 264.428 57.8522 267.677L82.7798 298.807H63.811L40.2737 269.666H37.7908V298.807H22ZM37.7908 256.24H47.9208C50.3043 256.24 52.2244 255.61 53.681 254.35C55.2038 253.09 55.9652 251.466 55.9652 249.477C55.9652 247.355 55.2038 245.698 53.681 244.504C52.2244 243.311 50.3043 242.714 47.9208 242.714H37.7908V256.24Z" fill="#3B82F6"/>
<path d="M118.507 300C107.715 300 98.8099 296.486 91.7917 289.458C84.7736 282.43 81.2645 273.777 81.2645 263.5C81.2645 253.223 84.7736 244.57 91.7917 237.542C98.8099 230.514 107.649 227 118.308 227C125.658 227 132.411 228.989 138.568 232.967C144.726 236.946 149.029 242.316 151.479 249.079H133.305C129.796 244.57 124.797 242.316 118.308 242.316C111.952 242.316 106.821 244.338 102.915 248.383C99.0747 252.427 97.1547 257.466 97.1547 263.5C97.1547 269.534 99.1078 274.573 103.014 278.617C106.92 282.662 112.085 284.684 118.507 284.684C128.902 284.684 134.993 280.076 136.781 270.86H116.521V256.041H153.167C154.028 263.268 153.697 269.766 152.174 275.534C150.718 281.236 148.334 285.844 145.024 289.358C141.78 292.806 137.906 295.458 133.404 297.315C128.902 299.105 123.936 300 118.507 300Z" fill="#3B82F6"/>
<path d="M164.763 298.807V228.193H191.28C197.04 228.193 201.973 230.249 206.077 234.36C210.182 238.404 212.235 243.344 212.235 249.178C212.235 253.886 210.547 257.931 207.17 261.312C210.216 262.903 212.632 265.158 214.42 268.075C216.274 270.992 217.201 274.307 217.201 278.02C217.201 283.855 215.148 288.795 211.043 292.839C206.938 296.817 201.84 298.807 195.749 298.807H164.763ZM180.554 284.286H194.458C196.576 284.286 198.331 283.623 199.721 282.297C201.112 280.905 201.807 279.214 201.807 277.225C201.807 275.236 201.079 273.578 199.622 272.252C198.232 270.86 196.477 270.163 194.358 270.163H180.554V284.286ZM180.554 256.737H189.492C191.611 256.737 193.365 256.074 194.756 254.748C196.146 253.422 196.841 251.764 196.841 249.775C196.841 247.786 196.146 246.095 194.756 244.703C193.365 243.311 191.611 242.614 189.492 242.614H180.554V256.737Z" fill="#3B82F6"/>
<path d="M218.316 298.807L248.508 228.193H262.809L293 298.807H276.514L270.257 283.888H241.059L234.802 298.807H218.316ZM255.658 248.98L246.72 270.163H264.497L255.658 248.98Z" fill="#3B82F6"/>
</g>
<defs>
<clipPath id="clip0">
<rect width="300" height="300" fill="white"/>
</clipPath>
</defs>
</svg>