<svg width="512" height="512" viewBox="0 0 512 512" fill="none" xmlns="http://www.w3.org/2000/svg">
<path d="M69.6361 69.6361H361.967V43H43V362.633H69.6361V69.6361Z" fill="#3B82F6"/>
<path d="M442.54 149.544V442.542H150.209V469.178H469.176V149.544H442.54Z" fill="#3B82F6"/>

<path d="M93.8923 484.226H120.528V391H27.302V417.636H75.0606L0 492.697L18.8317 511.528L93.8923 436.468V484.226Z" fill="#3B82F6"/>
<path d="M417.636 27.302H391V120.528H484.226V93.8923H436.468L511.528 18.8317L492.697 0L417.636 75.0606V27.302Z" fill="#3B82F6"/>

<g clip-path="url(#clip0)">
<path d="M164.117 360.903L255.553 391L346.989 360.903L361.986 150H149.121L164.117 360.903ZM324.042 185.303L322.029 213.545H217.417L219.967 249.789H319.512L313.45 334.799L255.553 354.145L197.655 334.799L195.677 306.273H223.919L224.491 314.036L255.553 324.346L286.622 314.038L289.159 278.031H193.56L187.064 185.303H324.042Z" fill="#3B82F6"/>
</g>
<defs>
<clipPath id="clip0">
<rect width="241" height="241" fill="white" transform="translate(135 150)"/>
</clipPath>
</defs>
</svg>