<svg width="512" height="512" viewBox="0 0 512 512" fill="none" xmlns="http://www.w3.org/2000/svg">
<g clip-path="url(#clip0)">
<g clip-path="url(#clip1)">
<path d="M425.462 31.96H271.615C266.308 31.96 262 24.97 262 16.37C262 7.76 266.308 0.77 271.615 0.77H425.462C430.77 0.77 435.08 7.76 435.08 16.37C435.08 24.97 430.77 31.96 425.462 31.96Z" fill="#3B82F6"/>
<path d="M502.386 104.04H271.615C266.308 104.04 262 97.06 262 88.45C262 79.84 266.308 72.85 271.615 72.85H502.386C507.694 72.85 512.001 79.84 512.001 88.45C512.001 97.06 507.694 104.04 502.386 104.04Z" fill="#3B82F6"/>
<path d="M425.462 176.13H271.615C266.308 176.13 262 169.14 262 160.53C262 151.93 266.308 144.94 271.615 144.94H425.462C430.77 144.94 435.08 151.93 435.08 160.53C435.08 169.14 430.77 176.13 425.462 176.13Z" fill="#3B82F6"/>
<path d="M502.386 248.21H271.615C266.308 248.21 262 241.22 262 232.62C262 224.01 266.308 217.02 271.615 217.02H502.386C507.694 217.02 512.001 224.01 512.001 232.62C512.001 241.22 507.694 248.21 502.386 248.21Z" fill="#3B82F6"/>
<path d="M425.462 320.29H271.615C266.308 320.29 262 313.31 262 304.7C262 296.09 266.308 289.11 271.615 289.11H425.462C430.77 289.11 435.08 296.09 435.08 304.7C435.08 313.31 430.77 320.29 425.462 320.29Z" fill="#3B82F6"/>

<path d="M205.408 151.97L163.534 115.23C158.375 110.71 150.427 111.1 145.787 116.15C141.147 121.17 141.566 128.91 146.725 133.43L164.254 148.82H38.5625C31.6196 148.82 26 154.3 26 161.07C26 167.83 31.6196 173.31 38.5625 173.31H164.271L146.716 188.7C141.557 193.23 141.139 200.96 145.778 205.98C148.266 208.67 151.691 210.04 155.125 210.04C158.123 210.04 161.13 209 163.525 206.9L205.4 170.18C208.047 167.86 209.562 164.54 209.562 161.07C209.562 157.6 208.047 154.29 205.408 151.97Z" fill="#3B82F6"/>
</g>
<g fill="#3B82F6">
<path d="M73.8008 512V409.76H96.6968V449.79H137.881V409.76H160.777V512H137.881V471.54H96.6968V512H73.8008Z"/>
<path d="M200.795 512V431.65H174.731V409.76H250.187V431.65H223.835V512H200.795Z"/>
<path d="M264.207 409.76H285.087L316.911 453.82L349.023 409.76H369.903V512H346.863V449.07L317.055 490.26L287.103 448.93V512H264.207V409.76Z"/>
<path d="M391.473 512V409.76H414.369V490.11H456.705V512H391.473Z"/>
</g>
</g>
<defs>
<clipPath id="clip0"><rect width="512" height="512" fill="white"/></clipPath>
<clipPath id="clip1"><rect width="512" height="346" fill="white"/></clipPath>
</defs>
</svg>