<svg width="512" height="512" viewBox="0 0 512 512" fill="none" xmlns="http://www.w3.org/2000/svg">
<path d="M324.41 109H309.152C305.203 109 302 112.219 302 116.191C302 120.163 305.202 123.382 309.152 123.382H324.41C328.36 123.382 331.563 120.163 331.563 116.191C331.563 112.219 328.36 109 324.41 109Z" fill="#1D4ED8"/>
<path d="M324.41 169.723H309.152C305.203 169.723 302 172.942 302 176.914C302 180.886 305.202 184.105 309.152 184.105H324.41C328.36 184.105 331.563 180.886 331.563 176.914C331.563 172.942 328.36 169.723 324.41 169.723Z" fill="#1D4ED8"/>
<path d="M347.581 139.362H332.323C328.374 139.362 325.171 142.581 325.171 146.553C325.171 150.524 328.373 153.744 332.323 153.744H347.581C351.531 153.744 354.734 150.524 354.734 146.553C354.734 142.581 351.532 139.362 347.581 139.362Z" fill="#2563EB"/>
<path d="M453.849 109H354.694C350.745 109 347.543 112.219 347.543 116.191C347.543 120.163 350.744 123.382 354.694 123.382H453.849C457.798 123.382 461 120.163 461 116.191C461 112.219 457.798 109 453.849 109Z" fill="#1D4ED8"/>
<path d="M453.849 169.723H354.694C350.745 169.723 347.543 172.942 347.543 176.914C347.543 180.886 350.744 184.105 354.694 184.105H453.849C457.798 184.105 461 180.886 461 176.914C461 172.942 457.798 169.723 453.849 169.723Z" fill="#1D4ED8"/>
<path d="M453.872 139.362H377.842C373.906 139.362 370.714 142.581 370.714 146.553C370.714 150.524 373.905 153.744 377.842 153.744H453.872C457.808 153.744 461 150.524 461 146.553C461 142.581 457.808 139.362 453.872 139.362Z" fill="#2563EB"/>
<path d="M347.581 200.085H332.323C328.374 200.085 325.171 203.304 325.171 207.276C325.171 211.248 328.373 214.467 332.323 214.467H347.581C351.531 214.467 354.734 211.248 354.734 207.276C354.734 203.304 351.532 200.085 347.581 200.085Z" fill="#2563EB"/>
<path d="M453.872 200.085H377.842C373.906 200.085 370.714 203.304 370.714 207.276C370.714 211.248 373.905 214.467 377.842 214.467H453.872C457.808 214.467 461 211.248 461 207.276C461 203.304 457.808 200.085 453.872 200.085Z" fill="#2563EB"/>
<path d="M324.41 231.246H309.152C305.203 231.246 302 234.286 302 238.037C302 241.788 305.202 244.828 309.152 244.828H324.41C328.36 244.828 331.563 241.788 331.563 238.037C331.563 234.286 328.36 231.246 324.41 231.246Z" fill="#1D4ED8"/>
<path d="M324.41 291.969H309.152C305.203 291.969 302 295.188 302 299.16C302 303.131 305.202 306.351 309.152 306.351H324.41C328.36 306.351 331.563 303.131 331.563 299.16C331.563 295.188 328.36 291.969 324.41 291.969Z" fill="#1D4ED8"/>
<path d="M347.581 261.607H332.323C328.374 261.607 325.171 264.827 325.171 268.798C325.171 272.77 328.373 275.989 332.323 275.989H347.581C351.531 275.989 354.734 272.77 354.734 268.798C354.734 264.827 351.532 261.607 347.581 261.607Z" fill="#2563EB"/>
<path d="M453.849 231.246H354.694C350.745 231.246 347.543 234.286 347.543 238.037C347.543 241.788 350.744 244.828 354.694 244.828H453.849C457.798 244.828 461 241.788 461 238.037C461 234.286 457.798 231.246 453.849 231.246Z" fill="#1D4ED8"/>
<path d="M453.849 291.969H354.694C350.745 291.969 347.543 295.188 347.543 299.16C347.543 303.131 350.744 306.35 354.694 306.35H453.849C457.798 306.35 461 303.131 461 299.16C461 295.188 457.798 291.969 453.849 291.969Z" fill="#1D4ED8"/>
<path d="M453.872 261.607H377.842C373.906 261.607 370.714 264.827 370.714 268.798C370.714 272.77 373.905 275.989 377.842 275.989H453.872C457.808 275.989 461 268.798C461 264.827 457.808 261.607 453.872 261.607Z" fill="#2563EB"/>
<path d="M347.581 322.331H332.323C328.374 322.331 325.171 325.55 325.171 329.522C325.171 333.493 328.373 336.713 332.323 336.713H347.581C351.531 336.713 354.734 333.494 354.734 329.522C354.734 325.551 351.532 322.331 347.581 322.331Z" fill="#2563EB"/>
<path d="M453.872 322.331H377.842C373.906 322.331 370.714 325.55 370.714 329.521C370.714 333.492 373.905 336.712 377.842 336.712H453.872C457.808 336.712 461 333.493 461 329.521C460.999 325.551 457.808 322.331 453.872 322.331Z" fill="#2563EB"/>
<path d="M324.41 291.969H309.152C305.203 291.969 302 295.188 302 299.16C302 303.131 305.202 306.351 309.152 306.351H324.41C328.36 306.351 331.563 303.131 331.563 299.16C331.563 295.188 328.36 291.969 324.41 291.969Z" fill="#1D4ED8"/>
<path d="M453.849 231.246H354.694C350.745 231.246 347.543 234.286 347.543 238.037C347.543 241.788 350.744 244.828 354.694 244.828H453.849C457.798 244.828 461 241.788 461 238.037C461 234.286 457.798 231.246 453.849 231.246Z" fill="#1D4ED8"/>
<path d="M453.849 291.969H354.694C350.745 291.969 347.543 295.188 347.543 299.16C347.543 303.131 350.744 306.35 354.694 306.35H453.849C457.798 306.35 461 303.131 461 299.16C461 295.188 457.798 291.969 453.849 291.969Z" fill="#1D4ED8"/>
<path d="M453.872 261.607H377.842C373.906 261.607 370.714 264.827 370.714 268.798C370.714 272.77 373.905 275.989 377.842 275.989H453.872C457.808 275.989 461 268.798C461 264.827 457.808 261.607 453.872 261.607Z" fill="#2563EB"/>
<path d="M347.581 322.331H332.323C328.374 322.331 325.171 325.55 325.171 329.522C325.171 333.493 328.373 336.713 332.323 336.713H347.581C351.531 336.713 354.734 333.494 354.734 329.522C354.734 325.551 351.532 322.331 347.581 322.331Z" fill="#2563EB"/>
<path d="M453.872 322.331H377.842C373.906 322.331 370.714 325.55 370.714 329.521C370.714 333.492 373.905 336.712 377.842 336.712H453.872C457.808 336.712 461 333.493 461 329.521C460.999 325.551 457.808 322.331 453.872 322.331Z" fill="#2563EB"/>
<path d="M324.41 352.692H309.152C305.203 352.692 302 355.733 302 359.484C302 363.235 305.202 366.275 309.152 366.275H324.41C328.36 366.275 331.563 363.235 331.563 359.484C331.563 355.733 328.36 352.692 324.41 352.692Z" fill="#1D4ED8"/>
<path d="M347.581 383.054H332.323C328.374 383.054 325.171 386.273 325.171 390.245C325.171 394.216 328.373 397.436 332.323 397.436H347.581C351.531 397.436 354.734 394.216 354.734 390.245C354.734 386.273 351.532 383.054 347.581 383.054Z" fill="#2563EB"/>
<path d="M453.849 352.692H354.694C350.745 352.692 347.543 355.733 347.543 359.484C347.543 363.235 350.744 366.275 354.694 366.275H453.849C457.798 366.275 461 363.235 461 359.484C461 355.733 457.798 352.692 453.849 352.692Z" fill="#1D4ED8"/>
<path d="M453.872 383.054H377.842C373.906 383.054 370.714 386.273 370.714 390.245C370.714 394.217 373.905 397.436 377.842 397.436H453.872C457.808 397.436 461 394.217 461 390.245C461 386.273 457.808 383.054 453.872 383.054Z" fill="#2563EB"/>
<path fill-rule="evenodd" clip-rule="evenodd" d="M256 512C250.477 512 246 507.523 246 502L246 10C246 4.47715 250.477 0 256 0V0C261.523 0 266 4.47715 266 10L266 502C266 507.523 261.523 512 256 512V512Z" fill="#3B82F6"/>
<path d="M111 187C96.1115 187 84 199.111 84 214C84 228.889 96.1115 241 111 241C125.889 241 138 228.888 138 214C138 199.112 125.889 187 111 187Z" fill="#2563EB"/>
<path d="M122.256 292.573L104.134 271.395L48 337H101.045H160.27H228L156.12 253L122.256 292.573Z" fill="#2563EB"/>
<path fill-rule="evenodd" clip-rule="evenodd" d="M0 68.3881C0 49.3961 15.3961 34 34.3881 34H477.612C496.604 34 512 49.3961 512 68.3881V442.836C512 461.828 496.604 477.224 477.612 477.224H34.3881C15.3961 477.224 0 461.828 0 442.836V68.3881ZM34.3881 56.9254C28.0574 56.9254 22.9254 62.0574 22.9254 68.3881V442.836C22.9254 449.166 28.0574 454.298 34.3881 454.298H477.612C483.943 454.298 489.075 449.166 489.075 442.836V68.3881C489.075 62.0574 483.943 56.9254 477.612 56.9254H34.3881Z" fill="#3B82F6"/>
</svg>