<svg width="512" height="512" viewBox="0 0 512 512" fill="none" xmlns="http://www.w3.org/2000/svg">
<rect width="512" height="512" rx="48" fill="#DBEAFE"/>
<path fill-rule="evenodd" clip-rule="evenodd" d="M371.82 123.47C391.94 123.47 408.23 107.92 408.23 88.73C408.23 69.55 391.94 54 371.82 54C351.7 54 335.38 69.55 335.38 88.73C335.38 107.92 351.7 123.47 371.82 123.47ZM373.94 333.79H45.19C38.6 333.79 36.04 329.49 39.63 324.14L194.4 89.15C197.91 83.81 203.69 83.7 207.32 88.89L319.64 251.28L361.79 187.13C365.31 181.81 371.16 181.67 374.89 186.81L472.22 320.47C475.95 325.61 473.51 333.6 467 333.79H373.94Z" fill="#3B82F6"/>

<g fill="#3B82F6">
<path d="M77.35 463.15C67.04 463.15 58.5 459.76 51.71 452.98C44.93 446.19 41.54 437.84 41.54 427.92C41.54 418 44.93 409.65 51.71 402.86C58.5 396.08 67.04 392.69 77.35 392.69C84.96 392.69 91.91 394.96 98.18 399.5C104.51 403.98 108.61 409.9 110.47 417.26H93.86C92.39 414.13 90.15 411.73 87.14 410.06C84.13 408.34 80.87 407.47 77.35 407.47C71.2 407.47 66.24 409.42 62.47 413.33C58.75 417.23 56.9 422.1 56.9 427.92C56.9 433.74 58.75 438.61 62.47 442.51C66.24 446.42 71.2 448.37 77.35 448.37C80.87 448.37 84.13 447.54 87.14 445.87C90.15 444.14 92.39 441.71 93.86 438.58H110.47C108.61 445.94 104.51 451.89 98.18 456.43C91.91 460.91 84.96 463.15 77.35 463.15Z"/>
<path d="M110.79 462L139.98 393.84H153.8L182.98 462H167.05L161 447.6H132.78L126.73 462H110.79ZM146.89 413.9L138.25 434.35H155.43L146.89 413.9Z"/>
<path d="M230.46 400.56C235.07 405.04 237.37 410.58 237.37 417.17C237.37 423.76 235.07 429.3 230.46 433.78C225.92 438.19 220.22 440.4 213.37 440.4H205.5V462H190.24V393.84H213.37C220.22 393.84 225.92 396.08 230.46 400.56ZM222.59 417.17C222.59 414.61 221.69 412.5 219.9 410.83C218.17 409.1 215.93 408.24 213.18 408.24H205.5V426.1H213.18C215.87 426.1 218.11 425.23 219.9 423.5C221.69 421.78 222.59 419.66 222.59 417.17Z"/>
<path d="M259.58 462V408.43H242.21V393.84H292.51V408.43H274.94V462H259.58Z"/>
<path d="M302.01 462V393.84H317.27V462H302.01Z"/>
<path d="M349.06 442.32C352.97 446.35 357.67 448.37 363.17 448.37C368.68 448.37 373.35 446.35 377.19 442.32C381.03 438.29 382.95 433.49 382.95 427.92C382.95 422.35 381.03 417.55 377.19 413.52C373.35 409.49 368.68 407.47 363.17 407.47C357.67 407.47 352.97 409.49 349.06 413.52C345.22 417.55 343.3 422.35 343.3 427.92C343.3 433.49 345.22 438.29 349.06 442.32ZM388.04 452.78C381.19 459.7 372.9 463.15 363.17 463.15C353.45 463.15 345.13 459.73 338.21 452.88C331.37 445.97 327.94 437.65 327.94 427.92C327.94 418.19 331.37 409.9 338.21 403.06C345.13 396.14 353.45 392.69 363.17 392.69C372.9 392.69 381.19 396.14 388.04 403.06C394.95 409.97 398.41 418.26 398.41 427.92C398.41 437.58 394.95 445.87 388.04 452.78Z"/>
<path d="M470.72 462H457.57L424.35 419.86V462H409.09V393.84H422.24L455.36 435.98V393.84H470.72V462Z"/>
</g>
</svg>