<svg width="512" height="512" viewBox="0 0 512 512" fill="none" xmlns="http://www.w3.org/2000/svg">
<path d="M420.572 0H91.4284C40.9586 0.0600001 0.0600001 40.9586 0 91.4284V420.572C0.0600001 471.041 40.9586 511.94 91.4284 512H420.572C471.041 511.94 511.94 471.041 512 420.572V91.4284C511.94 40.9586 471.041 0.0600001 420.572 0ZM475.429 420.572C475.429 450.869 450.869 475.429 420.572 475.429H91.4284C61.1315 475.429 36.5711 450.869 36.5711 420.572V91.4284C36.5711 61.1315 61.1315 36.5711 91.4284 36.5711H420.572C450.869 36.5711 475.429 61.1315 475.429 91.4284V420.572Z" fill="#3B82F6"/>
<path d="M253.953 233.473C233.626 233.473 217.088 250.009 217.088 270.336C217.088 290.664 233.626 307.201 253.953 307.201C274.279 307.201 290.817 290.664 290.817 270.336C290.817 250.009 274.279 233.473 253.953 233.473Z" fill="#2563EB"/>
<path d="M253.952 294.714C242.641 294.714 233.472 298.659 233.472 303.525V408.093C233.472 412.959 242.641 416.904 253.952 416.904C265.264 416.904 274.433 412.959 274.433 408.093V303.525C274.433 298.659 265.264 294.714 253.952 294.714Z" fill="#1D4ED8"/>
<path d="M253.952 196.609C242.641 196.609 233.472 200.553 233.472 205.421V249.773C233.472 254.64 242.641 258.585 253.952 258.585C265.264 258.585 274.433 254.64 274.433 249.773V205.421C274.433 200.553 265.264 196.609 253.952 196.609Z" fill="#1D4ED8"/>
<path d="M372.737 307.201C352.413 307.201 335.873 323.738 335.873 344.064C335.873 364.392 352.413 380.929 372.737 380.929C393.064 380.929 409.601 364.392 409.601 344.064C409.601 323.738 393.061 307.201 372.737 307.201Z" fill="#2563EB"/>
<path d="M372.737 355.403C361.425 355.403 352.257 359.348 352.257 364.214V408.567C352.257 413.434 361.425 417.379 372.737 417.379C384.055 417.379 393.217 413.434 393.217 408.567V364.214C393.217 359.348 384.048 355.403 372.737 355.403Z" fill="#1D4ED8"/>
<path d="M372.737 200.705C361.425 200.705 352.257 204.649 352.257 209.517V314.084C352.257 318.951 361.425 322.896 372.737 322.896C384.055 322.896 393.217 318.951 393.217 314.084V209.517C393.217 204.649 384.048 200.705 372.737 200.705Z" fill="#1D4ED8"/>
<path d="M135.169 307.201C114.841 307.201 98.3042 323.738 98.3042 344.065C98.3042 364.392 114.841 380.929 135.169 380.929C155.496 380.929 172.032 364.392 172.032 344.065C172.033 323.738 155.496 307.201 135.169 307.201Z" fill="#2563EB"/>
<path d="M135.168 356.353C123.856 356.353 114.688 360.298 114.688 365.164V409.517C114.688 414.384 123.856 418.329 135.168 418.329C146.48 418.329 155.648 414.384 155.648 409.517V365.164C155.648 360.298 146.48 356.353 135.168 356.353Z" fill="#1D4ED8"/>
<path d="M135.168 200.705C123.856 200.705 114.688 204.649 114.688 209.517V314.084C114.688 318.951 123.856 322.896 135.168 322.896C146.48 322.896 155.648 318.951 155.648 314.084V209.517C155.648 204.649 146.48 200.705 135.168 200.705Z" fill="#1D4ED8"/>
<path d="M446.465 106.493C446.465 126.85 429.959 143.355 409.599 143.355C389.242 143.355 372.737 126.85 372.737 106.493C372.737 86.1328 389.242 69.6321 409.599 69.6321C429.959 69.6321 446.465 86.1328 446.465 106.493Z" fill="#2563EB"/>
</svg>