<svg width="512" height="512" viewBox="0 0 512 512" fill="none" xmlns="http://www.w3.org/2000/svg">
  <path d="M69.6361 69.6361H361.967V43H43V362.633H69.6361V69.6361Z" fill="#3B82F6"/>
  <path d="M442.54 149.544V442.542H150.209V469.178H469.176V149.544H442.54Z" fill="#3B82F6"/>
  
  <path d="M93.8923 484.226H120.528V391H27.302V417.636H75.0606L0 492.697L18.8317 511.528L93.8923 436.468V484.226Z" fill="#1D4ED8"/>
  <path d="M417.636 27.302H391V120.528H484.226V93.8923H436.468L511.528 18.8317L492.697 0L417.636 75.0606V27.302Z" fill="#1D4ED8"/>
  
  <path d="M174.719 349.996C158.039 349.996 144.083 345.326 132.85 335.984C121.617 326.473 116 312.461 116 293.948H156.082C156.082 299.893 157.784 304.479 161.188 307.706C164.762 310.763 169.272 312.291 174.719 312.291C179.995 312.291 184.42 310.763 187.994 307.706C191.568 304.649 193.355 300.402 193.355 294.968V166.057H233.948V297.515C233.948 314.839 228.331 327.917 217.098 336.749C205.865 345.581 191.738 349.996 174.719 349.996Z" fill="#2563EB"/>
  
  <path d="M331.41 349.996C310.305 349.996 293.285 343.882 280.35 331.653C267.415 319.425 260.607 305.158 259.926 288.853H300.519C301.88 296.326 305.284 302.186 310.73 306.432C316.347 310.508 323.24 312.546 331.41 312.546C338.388 312.546 344.004 311.103 348.259 308.215C352.684 305.328 354.897 301.422 354.897 296.496C354.897 287.834 346.983 281.295 331.154 276.879L313.539 272.294C298.391 268.217 286.477 261.594 277.797 252.422C269.117 243.251 264.692 231.786 264.522 218.029C264.522 201.215 270.138 187.882 281.371 178.031C292.775 168.01 307.922 163 326.814 163C345.877 163 361.365 168.775 373.278 180.324C385.192 191.703 391.49 204.781 392.171 219.558H351.833C349.961 212.934 346.728 208.093 342.132 205.036C337.537 201.979 332.431 200.45 326.814 200.45C320.517 200.45 315.411 201.724 311.496 204.272C307.582 206.819 305.539 210.471 305.369 215.227C305.199 219.982 306.901 223.888 310.475 226.946C314.22 230.003 319.836 232.55 327.325 234.589L348.004 239.939C363.152 244.015 374.895 250.724 383.235 260.065C391.745 269.406 396 281.125 396 295.222C396 310.848 390.043 323.926 378.129 334.456C366.215 344.816 350.642 349.996 331.41 349.996Z" fill="#2563EB"/>
</svg>