<svg width="300" height="300" viewBox="0 0 300 300" fill="none" xmlns="http://www.w3.org/2000/svg">
<g clip-path="url(#clip0_71:489)">
<path fill-rule="evenodd" clip-rule="evenodd" d="M165.818 55.683L165.611 0H134.561L134.768 55.683L150.293 77.0041L165.818 55.683Z" fill="#3B82F6"/>
<path fill-rule="evenodd" clip-rule="evenodd" d="M134.77 151.11V207H165.82V151.11L150.295 129.789L134.77 151.11Z" fill="#3B82F6"/>

<path fill-rule="evenodd" clip-rule="evenodd" d="M165.818 151.11L198.524 196.236L223.571 178.02L190.865 132.894L165.818 124.821V151.11Z" fill="#2563EB"/>
<path fill-rule="evenodd" clip-rule="evenodd" d="M134.769 55.6829L101.856 10.5569L76.8086 28.7729L109.515 73.8989L134.769 81.9719V55.6829Z" fill="#2563EB"/>

<path fill-rule="evenodd" clip-rule="evenodd" d="M109.514 73.8991L56.522 56.7181L47 86.1122L99.992 103.5L125.039 95.2202L109.514 73.8991Z" fill="#3B82F6"/>
<path fill-rule="evenodd" clip-rule="evenodd" d="M175.34 111.573L190.865 132.894L243.857 150.075L253.379 120.681L200.387 103.5L175.34 111.573Z" fill="#3B82F6"/>
<path fill-rule="evenodd" clip-rule="evenodd" d="M200.387 103.5L253.379 86.1122L243.857 56.7181L190.865 73.8991L175.34 95.2202L200.387 103.5Z" fill="#3B82F6"/>
<path fill-rule="evenodd" clip-rule="evenodd" d="M99.992 103.5L47 120.681L56.522 150.075L109.514 132.894L125.039 111.573L99.992 103.5Z" fill="#3B82F6"/>

<path fill-rule="evenodd" clip-rule="evenodd" d="M109.515 132.894L76.8086 178.02L101.856 196.236L134.769 151.11V124.821L109.515 132.894Z" fill="#2563EB"/>
<path fill-rule="evenodd" clip-rule="evenodd" d="M190.865 73.8989L223.571 28.7729L198.524 10.5569L165.818 55.6829V81.9719L190.865 73.8989Z" fill="#2563EB"/>

<path d="M65.2995 236V281.749C65.2995 291.813 57.0647 300.048 47 300.048V290.898C52.0977 290.898 56.1497 286.846 56.1497 281.749V236H65.2995ZM232.348 245.15H253V236H202.676V245.15H223.198V300.048H232.348V245.15ZM175.096 236V281.749C175.096 286.846 171.044 290.898 165.947 290.898C160.849 290.898 156.797 286.846 156.797 281.749V254.299C156.797 244.235 148.562 236 138.497 236C128.433 236 120.198 244.235 120.198 254.299V281.749C120.198 286.846 116.146 290.898 111.048 290.898C105.951 290.898 101.898 286.846 101.898 281.749V236H92.7487V281.749C92.7487 291.813 100.983 300.048 111.048 300.048C121.113 300.048 129.348 291.813 129.348 281.749V254.299C129.348 249.202 133.4 245.15 138.497 245.15C143.595 245.15 147.647 249.202 147.647 254.299V281.749C147.647 291.813 155.882 300.048 165.947 300.048C176.011 300.048 184.246 291.813 184.246 281.749V236H175.096Z" fill="#3B82F6"/>
</g>
<defs>
<clipPath id="clip0_71:489">
<rect width="300" height="300" fill="white"/>
</clipPath>
</defs>
</svg>