<svg width="512" height="512" viewBox="0 0 512 512" fill="none" xmlns="http://www.w3.org/2000/svg">
  <path d="M400 0H112C50.144 0 0 50.144 0 112V400C0 461.856 50.144 512 112 512H400C461.856 512 512 461.856 512 400V112C512 50.144 461.856 0 400 0ZM480 400C480 444.183 444.183 480 400 480H112C67.817 480 32 444.183 32 400V112C32 67.817 67.817 32 112 32H400C444.183 32 480 67.817 480 112V400Z" fill="#3B82F6"/>
  
  <path d="M286.823 214.293C297.299 203.981 309.578 198.53 322.335 198.53H367.251L350.177 215.089C348.524 216.691 347.214 218.594 346.32 220.687C345.425 222.781 344.965 225.025 344.965 227.291C344.965 229.557 345.425 231.801 346.32 233.895C347.214 235.989 348.524 237.891 350.177 239.494C353.514 242.73 358.04 244.548 362.759 244.548C365.095 244.548 367.409 244.102 369.568 243.234C371.727 242.367 373.688 241.096 375.341 239.494L422.789 193.476C424.441 191.874 425.752 189.972 426.646 187.878C427.54 185.784 428.001 183.54 428.001 181.274C428.001 179.008 427.54 176.764 426.646 174.67C425.752 172.576 424.441 170.674 422.789 169.072L375.341 123.054C373.688 121.452 371.727 120.181 369.568 119.314C367.409 118.446 365.095 118 362.759 118C360.422 118 358.108 118.446 355.949 119.314C353.791 120.181 351.829 121.452 350.177 123.054C348.524 124.657 347.214 126.559 346.32 128.653C345.425 130.747 344.965 132.991 344.965 135.257C344.965 137.523 345.425 139.767 346.32 141.861C347.214 143.954 348.524 145.857 350.177 147.459L367.251 164.018H322.335C295.701 164.018 271.285 177.01 253.717 198.587C261.624 210.007 267.694 222.527 271.717 235.717C275.481 227.807 280.587 220.565 286.823 214.293V214.293Z" fill="#3B82F6"/>
  
  <path d="M205.921 297.81C195.445 308.122 183.164 313.573 170.408 313.573H101.793C97.074 313.573 92.5483 315.391 89.2115 318.628C85.8746 321.864 84 326.253 84 330.83C84 335.406 85.8746 339.796 89.2115 343.032C92.5483 346.268 97.074 348.086 101.793 348.086H170.408C197.042 348.086 221.458 335.094 239.027 313.517C231.119 302.097 225.048 289.577 221.024 276.386C217.261 284.297 212.156 291.539 205.921 297.81V297.81Z" fill="#3B82F6"/>
  
  <path d="M375.34 272.61C373.688 271.007 371.726 269.736 369.567 268.869C367.408 268.002 365.095 267.555 362.758 267.555C360.421 267.555 358.108 268.002 355.949 268.869C353.79 269.736 351.828 271.007 350.176 272.61C348.524 274.212 347.213 276.115 346.319 278.208C345.425 280.302 344.964 282.546 344.964 284.812C344.964 287.078 345.425 289.323 346.319 291.416C347.213 293.51 348.524 295.412 350.176 297.015L367.25 313.573H322.334C309.577 313.573 297.298 308.122 286.822 297.81C275.563 286.726 267.403 270.74 263.844 252.793C253.479 200.523 215.057 164.017 170.408 164.017H101.793C97.074 164.017 92.5483 165.835 89.2115 169.072C85.8746 172.308 84 176.697 84 181.274C84 185.85 85.8746 190.24 89.2115 193.476C92.5483 196.712 97.074 198.53 101.793 198.53H170.408C183.164 198.53 195.445 203.981 205.92 214.293C217.179 225.376 225.339 241.364 228.898 259.31C239.263 311.58 277.685 348.086 322.334 348.086H367.25L350.176 364.644C346.839 367.88 344.964 372.27 344.964 376.847C344.964 381.423 346.839 385.813 350.176 389.049C353.513 392.285 358.039 394.103 362.758 394.103C367.477 394.103 372.003 392.285 375.34 389.049L422.788 343.032C424.44 341.429 425.751 339.527 426.645 337.433C427.54 335.34 428 333.096 428 330.829C428 328.563 427.54 326.319 426.645 324.225C425.751 322.132 424.44 320.229 422.788 318.627L375.34 272.61Z" fill="#3B82F6"/>
</svg>