<svg width="300" height="300" viewBox="0 0 300 300" fill="none" xmlns="http://www.w3.org/2000/svg">
<rect width="300" height="300" fill="#F3F4F6"/>
<path d="M101.25 20H20V101.25H101.25V20ZM85 85H36.25V36.25H85V85Z" fill="#3B82F6"/>
<path d="M68.75 52.5H52.5V68.75H68.75V52.5Z" fill="#3B82F6"/>
<path d="M198.75 20V101.25H280V20H198.75ZM263.75 85H215V36.25H263.75V85Z" fill="#3B82F6"/>
<path d="M247.5 52.5H231.25V68.75H247.5V52.5Z" fill="#3B82F6"/>
<path d="M20 280H101.25V198.75H20V280ZM36.25 215H85V263.75H36.25V215Z" fill="#3B82F6"/>
<path d="M68.75 231.25H52.5V247.5H68.75V231.25Z" fill="#3B82F6"/>
<path d="M182.5 20H150V36.25H182.5V20Z" fill="#3B82F6"/>
<path d="M150 85H166.25V68.75H182.5V52.5H133.75V36.25H117.5V52.5V60.625V68.75H150V85Z" fill="#3B82F6"/>
<path d="M133.75 85H117.5V101.25H133.75V85Z" fill="#3B82F6"/>
<path d="M182.5 101.25H166.25V117.5H117.5V133.75H182.5V101.25Z" fill="#3B82F6"/>
<path d="M36.25 166.25H52.5V150H36.25V117.5H20V182.5H36.25V166.25Z" fill="#3B82F6"/>
<path d="M68.75 117.5H52.5V133.75H68.75V117.5Z" fill="#3B82F6"/>
<path d="M117.5 182.5H150V166.25H133.75V150H101.25V117.5H85V150H68.75V182.5H85V166.25H93.125H101.25H117.5V182.5Z" fill="#3B82F6"/>
<path d="M182.5 150H166.25V182.5H182.5V150Z" fill="#3B82F6"/>
<path d="M166.25 198.75H117.5V215H150V263.75H117.5V280H166.25V263.75H198.75V247.5H166.25V198.75Z" fill="#3B82F6"/>
<path d="M133.75 231.25H117.5V247.5H133.75V231.25Z" fill="#3B82F6"/>
<path d="M198.75 198.75H182.5V231.25H198.75V198.75Z" fill="#3B82F6"/>
<path d="M263.75 231.25H215V280H231.25V247.5H263.75V231.25Z" fill="#3B82F6"/>
<path d="M280 263.75H247.5V280H280V263.75Z" fill="#3B82F6"/>
<path d="M280 198.75H263.75V215H280V198.75Z" fill="#3B82F6"/>
<path d="M215 215H231.25V166.25H198.75V182.5H215V215Z" fill="#3B82F6"/>
<path d="M247.5 133.75H231.25V117.5H215V133.75H198.75V150H263.75V133.75H280V117.5H247.5V133.75Z" fill="#3B82F6"/>
<path d="M280 166.25H247.5V182.5H280V166.25Z" fill="#3B82F6"/>
</svg>