
<svg width="512" height="512" viewBox="0 0 512 512" fill="none" xmlns="http://www.w3.org/2000/svg">
<rect x="60" y="61" width="390" height="390" fill="#3B82F6" fill-opacity="0.29"/>
<path d="M134 231H377V280H134V231Z" fill="#3B82F6"/>
<path d="M134 134H377V182H134V134Z" fill="#3B82F6"/>
<path d="M134 377H252.096H256V329H252.096H134V377Z" fill="#3B82F6"/>
<path d="M84.6667 84.6667H182V36H84.6667C57.9 36 36 57.9 36 84.6667V182H84.6667V84.6667Z" fill="#3B82F6"/>
<path d="M84.6667 475H182V426.333H84.6667V329H36V426.333C36 453.1 57.9 475 84.6667 475Z" fill="#3B82F6"/>
<path d="M475 329H426.333V426.333H329V475H426.333C453.1 475 475 453.1 475 426.333V329Z" fill="#3B82F6"/>
<path d="M475 84.6667C475 57.9 453.1 36 426.333 36H329V84.6667H426.333V182H475V84.6667Z" fill="#3B82F6"/>
</svg>
