<svg width="512" height="512" viewBox="0 0 512 512" fill="none" xmlns="http://www.w3.org/2000/svg">
<path d="M455.262 187.91C448.472 181.121 440.233 177.729 430.532 177.729H418.902V163.907C418.902 119.302 402.906 81.0023 370.905 49.0022C338.906 17.0007 300.61 1 255.999 1C211.388 1 173.085 17.0007 141.088 49.0009C109.087 81.0023 93.0914 119.301 93.0914 163.907V177.729H81.4567C71.763 177.729 63.5188 181.121 56.7303 187.91C49.9418 194.693 46.5488 202.937 46.5488 212.64V477.092C46.5488 486.786 49.9431 495.033 56.7303 501.822C63.5188 508.604 71.763 512 81.4567 512H430.541C440.242 512 448.48 508.608 455.271 501.822C462.053 495.033 465.452 486.786 465.452 477.092V212.636C465.457 202.941 462.053 194.698 455.262 187.91ZM349.088 177.73H162.91V163.907C162.91 138.212 172.002 116.271 190.183 98.092C208.367 79.9108 230.304 70.8221 256.002 70.8221C281.703 70.8221 303.635 79.9095 321.82 98.092C339.996 116.269 349.088 138.212 349.088 163.907V177.73Z" fill="#3B82F6"/>
<path d="M182.88 305.464C174.944 305.464 168.544 303.16 163.68 298.552C158.816 293.944 156.256 288.568 156 282.424H171.264C171.776 285.24 173.056 287.448 175.104 289.048C177.216 290.584 179.808 291.352 182.88 291.352C185.504 291.352 187.616 290.808 189.216 289.72C190.88 288.632 191.712 287.16 191.712 285.304C191.712 282.04 188.736 279.576 182.784 277.912L176.16 276.184C170.464 274.648 165.984 272.152 162.72 268.696C159.456 265.24 157.792 260.92 157.728 255.736C157.728 249.4 159.84 244.376 164.064 240.664C168.352 236.888 174.048 235 181.152 235C188.32 235 194.144 237.176 198.624 241.528C203.104 245.816 205.472 250.744 205.728 256.312H190.56C189.856 253.816 188.64 251.992 186.912 250.84C185.184 249.688 183.264 249.112 181.152 249.112C178.784 249.112 176.864 249.592 175.392 250.552C173.92 251.512 173.152 252.888 173.088 254.68C173.024 256.472 173.664 257.944 175.008 259.096C176.416 260.248 178.528 261.208 181.344 261.976L189.12 263.992C194.816 265.528 199.232 268.056 202.368 271.576C205.568 275.096 207.168 279.512 207.168 284.824C207.168 290.712 204.928 295.64 200.448 299.608C195.968 303.512 190.112 305.464 182.88 305.464Z" fill="white"/>
<path d="M217.878 304.312V236.152H233.142V262.84H260.598V236.152H275.862V304.312H260.598V277.336H233.142V304.312H217.878Z" fill="white"/>
<path d="M282.957 304.312L312.141 236.152H325.965L355.149 304.312H339.213L333.165 289.912H304.941L298.893 304.312H282.957ZM319.053 256.216L310.413 276.664H327.597L319.053 256.216Z" fill="white"/>
<path d="M194.44 441.235V466H113V457.524C113 454.31 113.332 451.208 113.997 448.216C114.662 445.114 115.438 442.454 116.324 440.238C117.211 437.911 118.596 435.529 120.479 433.091C122.363 430.654 123.97 428.659 125.299 427.108C126.629 425.557 128.623 423.729 131.283 421.623C133.942 419.407 135.992 417.801 137.432 416.803C138.873 415.695 141.144 414.089 144.247 411.983C147.349 409.767 149.51 408.216 150.729 407.33C162.584 398.909 168.512 391.374 168.512 384.726C168.512 380.626 167.294 377.302 164.856 374.753C162.529 372.094 159.094 370.765 154.551 370.765C149.787 370.765 145.909 372.205 142.917 375.086C140.036 377.967 138.596 381.457 138.596 385.557H113.499C113.499 374.033 117.432 364.56 125.299 357.136C133.277 349.712 143.305 346 155.382 346C166.019 346 175.05 349.269 182.474 355.806C189.898 362.233 193.609 371.263 193.609 382.898C193.609 389.657 192.446 395.695 190.119 401.014C187.792 406.332 185.078 410.598 181.975 413.812C178.873 417.025 174.662 420.626 169.343 424.615C169.122 424.726 166.906 426.166 162.695 428.936C158.596 431.596 155.438 433.867 153.222 435.751C151.006 437.634 149.399 439.463 148.402 441.235H194.44Z" fill="white"/>
<path d="M290.365 441.235V466H208.925V457.524C208.925 454.31 209.257 451.208 209.922 448.216C210.587 445.114 211.363 442.454 212.249 440.238C213.135 437.911 214.521 435.529 216.404 433.091C218.288 430.654 219.894 428.659 221.224 427.108C222.554 425.557 224.548 423.729 227.207 421.623C229.867 419.407 231.917 417.801 233.357 416.803C234.798 415.695 237.069 414.089 240.171 411.983C243.274 409.767 245.435 408.216 246.653 407.33C258.509 398.909 264.437 391.374 264.437 384.726C264.437 380.626 263.219 377.302 260.781 374.753C258.454 372.094 255.019 370.765 250.476 370.765C245.712 370.765 241.834 372.205 238.842 375.086C235.961 377.967 234.521 381.457 234.521 385.557H209.424C209.424 374.033 213.357 364.56 221.224 357.136C229.202 349.712 239.23 346 251.307 346C261.944 346 270.975 349.269 278.399 355.806C285.822 362.233 289.534 371.263 289.534 382.898C289.534 389.657 288.371 395.695 286.044 401.014C283.717 406.332 281.002 410.598 277.9 413.812C274.798 417.025 270.587 420.626 265.268 424.615C265.047 424.726 262.831 426.166 258.62 428.936C254.521 431.596 251.363 433.867 249.147 435.751C246.93 437.634 245.324 439.463 244.327 441.235H290.365Z" fill="white"/>
<path d="M359.033 466V440.404H301.36V420.127L361.526 347.994H384.13V417.468H399.254V440.404H384.13V466H359.033ZM331.941 417.468H359.033V385.058L331.941 417.468Z" fill="white"/>
</svg>
