<svg width="360" height="360" viewBox="0 0 360 360" fill="none" xmlns="http://www.w3.org/2000/svg">
<path d="M331.123 254.034C305.479 305.724 258.998 337.78 191.681 350.201C124.365 362.623 74.0774 336.778 40.8198 272.667C7.56215 208.556 6.56042 142.441 37.8146 74.3229C69.0688 6.20486 114.147 -10.8247 173.049 23.2344C231.951 57.2934 279.433 91.3524 315.496 125.411C351.558 159.471 356.767 202.345 331.123 254.034Z" fill="#3B82F6"/>
<path d="M93.44 237.44C83.52 237.44 75.52 234.56 69.44 228.8C63.36 223.04 60.16 216.32 59.84 208.64H78.92C79.56 212.16 81.16 214.92 83.72 216.92C86.36 218.84 89.6 219.8 93.44 219.8C96.72 219.8 99.36 219.12 101.36 217.76C103.44 216.4 104.48 214.56 104.48 212.24C104.48 208.16 100.76 205.08 93.32 203L85.04 200.84C77.92 198.92 72.32 195.8 68.24 191.48C64.16 187.16 62.08 181.76 62 175.28C62 167.36 64.64 161.08 69.92 156.44C75.28 151.72 82.4 149.36 91.28 149.36C100.24 149.36 107.52 152.08 113.12 157.52C118.72 162.88 121.68 169.04 122 176H103.04C102.16 172.88 100.64 170.6 98.48 169.16C96.32 167.72 93.92 167 91.28 167C88.32 167 85.92 167.6 84.08 168.8C82.24 170 81.28 171.72 81.2 173.96C81.12 176.2 81.92 178.04 83.6 179.48C85.36 180.92 88 182.12 91.52 183.08L101.24 185.6C108.36 187.52 113.88 190.68 117.8 195.08C121.8 199.48 123.8 205 123.8 211.64C123.8 219 121 225.16 115.4 230.12C109.8 235 102.48 237.44 93.44 237.44Z" fill="white"/>
<path d="M160.063 236L125.143 150.8H145.903L168.583 207.56L191.143 150.8H212.143L177.223 236H160.063Z" fill="white"/>
<path d="M257.781 237.44C244.741 237.44 233.981 233.2 225.501 224.72C217.021 216.24 212.781 205.8 212.781 193.4C212.781 181 217.021 170.56 225.501 162.08C233.981 153.6 244.661 149.36 257.541 149.36C266.421 149.36 274.581 151.76 282.021 156.56C289.461 161.36 294.661 167.84 297.621 176H275.661C271.421 170.56 265.381 167.84 257.541 167.84C249.861 167.84 243.661 170.28 238.941 175.16C234.301 180.04 231.981 186.12 231.981 193.4C231.981 200.68 234.341 206.76 239.061 211.64C243.781 216.52 250.021 218.96 257.781 218.96C270.341 218.96 277.701 213.4 279.861 202.28H255.381V184.4H299.661C300.701 193.12 300.301 200.96 298.461 207.92C296.701 214.8 293.821 220.36 289.821 224.6C285.901 228.76 281.221 231.96 275.781 234.2C270.341 236.36 264.341 237.44 257.781 237.44Z" fill="white"/>
</svg>
