<svg width="100" height="100" viewBox="0 0 100 100" fill="none" xmlns="http://www.w3.org/2000/svg">
<mask id="mask0" mask-type="alpha" maskUnits="userSpaceOnUse" x="0" y="0" width="100" height="100">
<circle cx="50" cy="50" r="50" fill="#C4C4C4"/>
</mask>
<g mask="url(#mask0)">
<circle cx="50" cy="50" r="50" fill="#F8F9FB"/>
<path d="M3.11747 69.2713C5.88503 47.0021 17.421 39.8592 27.7505 33.5301C38.2981 27.0647 47.421 21.4018 46.3236 0.125244C41.4088 0.476239 36.6871 1.50687 32.2563 3.13888C32.7153 20.0247 24.5853 25.0325 16.6962 29.8682C8.36401 34.9744 0.49307 39.7989 0 58.8376C0.658941 62.4615 1.70643 65.9603 3.11747 69.2713Z" fill="#3B82F6"/>
<path d="M14.2917 26.072C21.6446 21.5627 27.591 17.8739 27.7251 5.05927C14.3417 11.5135 4.25312 23.5882 0.642578 38.1378C4.34855 32.1708 9.49966 29.0074 14.2917 26.072Z" fill="#3B82F6"/>
<path d="M15.6324 86.7941C17.4229 63.0606 28.0068 54.7776 38.2704 46.7584C49.4201 38.0483 59.9564 29.7943 59.3633 0.838364C56.5981 0.330874 53.7578 0.0469484 50.8562 0C52.0332 23.8341 40.9334 30.7154 30.1495 37.324C19.2247 44.0197 7.95002 50.9703 7.08203 76.7181C9.47921 80.436 12.3536 83.8252 15.6324 86.7941Z" fill="#3B82F6"/>
<path d="M70.0577 60.6997C80.2418 52.6581 89.8487 45.0033 89.3352 18.3187C86.5926 15.0301 83.432 12.1014 79.9373 9.59082C79.7942 38.7435 68.2763 47.856 57.1129 56.6689C46.6062 64.9653 36.688 72.8146 35.9609 98.0617C40.1509 99.2466 44.5567 99.9195 49.1102 100C50.3077 76.3626 60.3304 68.3836 70.0577 60.6997Z" fill="#3B82F6"/>
<path d="M87.1234 71.1291C79.8296 75.502 73.5038 79.3361 72.7676 94.7128C86.753 87.798 97.0621 74.724 99.9977 59.1215C96.7212 65.3678 91.7519 68.3546 87.1234 71.1291Z" fill="#3B82F6"/>
<path d="M84.7625 67.3128C92.5744 62.6269 99.9568 58.2048 99.057 37.6437L99.2911 37.6347C98.0913 32.998 96.219 28.6229 93.8014 24.6032C92.7266 48.4575 82.6789 56.47 72.9061 64.1874C63.606 71.5248 54.833 78.5156 53.6719 99.8749C58.7366 99.5216 63.5969 98.4329 68.1504 96.7226C68.4276 77.1071 77.1029 71.9048 84.7625 67.3128Z" fill="#3B82F6"/>
<path d="M54.2737 53.1814C65.4416 44.3663 75.9938 36.0162 75.3757 6.66672C71.8129 4.64124 67.9774 3.02934 63.9397 1.89587C64.2646 32.1664 52.4946 41.3594 41.1017 50.2594C30.7268 58.3636 20.9358 66.0631 20.002 90.3265C23.5171 92.8684 27.3753 94.9677 31.4971 96.5617C32.6195 70.3489 43.6125 61.5986 54.2737 53.1814Z" fill="#3B82F6"/>
<rect x="11" y="32" width="77" height="36" rx="10" fill="#F8F9FB"/>
<path d="M28.3866 61C25.9105 61 23.9137 60.2807 22.3962 58.842C20.8786 57.4033 20.0799 55.7248 20 53.8065H24.7624C24.9221 54.6857 25.3215 55.3751 25.9605 55.8747C26.6194 56.3542 27.4281 56.594 28.3866 56.594C29.2053 56.594 29.8642 56.4242 30.3634 56.0845C30.8826 55.7448 31.1422 55.2852 31.1422 54.7057C31.1422 53.6866 30.2136 52.9173 28.3566 52.3978L26.2899 51.8583C24.5128 51.3787 23.115 50.5995 22.0966 49.5204C21.0783 48.4414 20.5591 47.0926 20.5391 45.4741C20.5391 43.4959 21.1981 41.9273 22.516 40.7684C23.8538 39.5895 25.631 39 27.8474 39C30.0839 39 31.9009 39.6794 33.2987 41.0381C34.6965 42.3769 35.4353 43.9155 35.5152 45.654H30.7827C30.5631 44.8747 30.1837 44.3052 29.6446 43.9455C29.1054 43.5858 28.5064 43.406 27.8474 43.406C27.1086 43.406 26.5096 43.5559 26.0503 43.8556C25.591 44.1553 25.3514 44.5849 25.3315 45.1444C25.3115 45.7039 25.5112 46.1635 25.9305 46.5232C26.3698 46.8828 27.0287 47.1826 27.9073 47.4223L30.3335 48.0518C32.1106 48.5313 33.4884 49.3206 34.4668 50.4196C35.4652 51.5186 35.9644 52.8974 35.9644 54.5559C35.9644 56.3942 35.2656 57.9328 33.8678 59.1717C32.47 60.3906 30.643 61 28.3866 61Z" fill="#3B82F6"/>
<path d="M45.0158 60.6403L36.2998 39.3597H41.4815L47.1424 53.5368L52.7734 39.3597H58.015L49.2989 60.6403H45.0158Z" fill="#3B82F6"/>
<path d="M69.4061 61C66.1513 61 63.4656 59.941 61.349 57.8229C59.2324 55.7048 58.1741 53.0972 58.1741 50C58.1741 46.9028 59.2324 44.2952 61.349 42.1771C63.4656 40.059 66.1314 39 69.3462 39C71.5627 39 73.5994 39.5995 75.4564 40.7984C77.3135 41.9973 78.6114 43.6158 79.3502 45.654H73.869C72.8107 44.2952 71.3031 43.6158 69.3462 43.6158C67.4293 43.6158 65.8818 44.2253 64.7037 45.4441C63.5455 46.663 62.9664 48.1817 62.9664 50C62.9664 51.8183 63.5555 53.337 64.7336 54.5559C65.9117 55.7748 67.4692 56.3842 69.4061 56.3842C72.5411 56.3842 74.3782 54.9955 74.9173 52.218H68.8071V47.752H79.8594C80.119 49.9301 80.0191 51.8883 79.5599 53.6267C79.1206 55.3451 78.4017 56.7339 77.4033 57.7929C76.4249 58.832 75.2568 59.6312 73.8989 60.1907C72.5411 60.7302 71.0435 61 69.4061 61Z" fill="#3B82F6"/>
</g>
</svg>
