<svg width="512" height="512" viewBox="0 0 512 512" fill="none" xmlns="http://www.w3.org/2000/svg">
<path d="M258 20L168 86H345L258 20Z" stroke="#3B82F6" stroke-width="30"/>
<rect x="15" y="87" width="482" height="410" stroke="#3B82F6" stroke-width="30"/>
<path d="M122 375.566C146.266 391.127 175.088 400.204 206.055 400.204C306.915 400.204 362.069 316.651 362.069 244.188C362.069 241.813 362.015 239.447 361.911 237.094C372.626 229.364 381.922 219.706 389.274 208.71C379.44 213.071 368.872 216.02 357.779 217.346C369.102 210.558 377.796 199.814 381.889 187.009C371.293 193.291 359.558 197.857 347.069 200.314C337.067 189.657 322.816 183 307.043 183C276.763 183 252.209 207.551 252.209 237.832C252.209 242.129 252.696 246.314 253.632 250.329C208.06 248.04 167.655 226.212 140.612 193.034C135.891 201.135 133.186 210.553 133.186 220.603C133.186 239.625 142.864 256.41 157.579 266.243C148.589 265.958 140.134 263.49 132.743 259.384C132.738 259.614 132.738 259.843 132.738 260.075C132.738 286.642 151.64 308.802 176.724 313.841C172.123 315.092 167.278 315.766 162.277 315.766C158.744 315.766 155.308 315.421 151.958 314.779C158.937 336.565 179.189 352.419 203.184 352.859C184.416 367.568 160.773 376.335 135.083 376.335C130.654 376.336 126.29 376.076 122 375.566Z" fill="#3B82F6"/>
</svg>
