<svg width="512" height="512" viewBox="0 0 512 512" fill="none" xmlns="http://www.w3.org/2000/svg">
<g clip-path="url(#clip0)">
<path d="M391.396 241.573L328.009 234.258C325.873 234.013 323.892 233.022 322.414 231.461C303.95 211.893 275.634 205.148 250.331 214.29C222.032 225.14 203.927 252.968 205.477 283.237C205.492 285.81 205.734 288.377 206.199 290.907C206.693 293.579 205.974 296.333 204.235 298.421C202.497 300.509 199.919 301.716 197.202 301.714H1.90162C1.34278 301.788 0.854814 302.129 0.594192 302.628C-0.00789009 303.494 -0.157551 304.596 0.191906 305.591C12.2788 336.567 49.1153 408.686 130.002 408.686C133.265 408.692 136.278 410.437 137.906 413.265C139.535 416.093 139.533 419.574 137.902 422.4C136.823 424.229 110.784 468.114 44.6445 502.693C43.7598 503.164 43.3167 504.183 43.5748 505.152C43.5903 506.067 44.2615 506.838 45.1656 506.981C96.5393 514.779 192.274 520.302 256.164 469.861C293.431 440.439 314.862 395.438 319.844 336.101C320.025 333.983 320.91 331.987 322.359 330.432C331.761 320.599 338.112 308.252 340.644 294.884C341.018 292.935 342.016 291.161 343.488 289.829L392.384 245.632C393.105 244.981 393.355 243.955 393.015 243.045C392.845 242.259 392.195 241.668 391.396 241.573V241.573ZM178.423 419.264C175.62 421.018 172.09 421.122 169.189 419.537C166.288 417.952 164.468 414.924 164.43 411.619C164.392 408.313 166.142 405.244 169.006 403.593C209.636 379.218 210.286 320.576 210.286 320C210.286 314.95 214.379 310.857 219.428 310.857C224.478 310.857 228.571 314.95 228.571 320C228.571 322.825 227.995 389.486 178.423 419.264V419.264Z" fill="#3B82F6"/>
<path d="M448 118.857C458.099 118.857 466.286 110.67 466.286 100.571C466.286 90.4724 458.099 82.2856 448 82.2856C437.901 82.2856 429.714 90.4724 429.714 100.571C429.714 110.67 437.901 118.857 448 118.857Z" fill="#3B82F6"/>
<path d="M493.714 0H18.2857C8.18679 0 0 8.18679 0 18.2857V137.143C0 147.242 8.18679 155.429 18.2857 155.429H415.451C419.063 155.427 422.338 157.551 423.808 160.85L448 215.232L472.192 160.85C473.662 157.551 476.937 155.427 480.549 155.429H493.714C503.813 155.429 512 147.242 512 137.143V18.2857C512 8.18679 503.813 0 493.714 0ZM118.857 27.4286H237.714C242.764 27.4286 246.857 31.522 246.857 36.5714C246.857 41.6209 242.764 45.7143 237.714 45.7143H118.857C113.808 45.7143 109.714 41.6209 109.714 36.5714C109.714 31.522 113.808 27.4286 118.857 27.4286ZM45.7143 27.4286H82.2857C87.3352 27.4286 91.4286 31.522 91.4286 36.5714C91.4286 41.6209 87.3352 45.7143 82.2857 45.7143H45.7143C40.6648 45.7143 36.5714 41.6209 36.5714 36.5714C36.5714 31.522 40.6648 27.4286 45.7143 27.4286ZM146.286 91.4286H45.7143C40.6648 91.4286 36.5714 87.3352 36.5714 82.2857C36.5714 77.2363 40.6648 73.1429 45.7143 73.1429H146.286C151.335 73.1429 155.429 77.2363 155.429 82.2857C155.429 87.3352 151.335 91.4286 146.286 91.4286ZM320 91.4286H192C186.951 91.4286 182.857 87.3352 182.857 82.2857C182.857 77.2363 186.951 73.1429 192 73.1429H320C325.049 73.1429 329.143 77.2363 329.143 82.2857C329.143 87.3352 325.049 91.4286 320 91.4286ZM384 45.7143H274.286C269.236 45.7143 265.143 41.6209 265.143 36.5714C265.143 31.522 269.236 27.4286 274.286 27.4286H384C389.049 27.4286 393.143 31.522 393.143 36.5714C393.143 41.6209 389.049 45.7143 384 45.7143ZM448 137.143C427.802 137.143 411.429 120.769 411.429 100.571C411.429 80.3736 427.802 64 448 64C468.198 64 484.571 80.3736 484.571 100.571C484.571 110.271 480.718 119.573 473.86 126.431C467.001 133.29 457.699 137.143 448 137.143Z" fill="#3B82F6"/>
</g>
<defs>
<clipPath id="clip0">
<rect width="512" height="512" fill="white"/>
</clipPath>
</defs>
</svg>
