<svg width="160" height="120" viewBox="0 0 160 120" fill="none" xmlns="http://www.w3.org/2000/svg">
<path fill-rule="evenodd" clip-rule="evenodd" d="M60.9145 37.5413C61.6008 38.4003 61.9199 39.4979 61.8019 40.5931C61.6839 41.6884 61.1384 42.6918 60.2852 43.3832L37.5396 61.7799L61.0524 74.729C62.0133 75.2592 62.7256 76.151 63.0329 77.2087C63.3402 78.2663 63.2175 79.4032 62.6916 80.37C62.1642 81.3358 61.277 82.0519 60.2249 82.3608C59.1728 82.6697 58.0416 82.5464 57.0799 82.0177L28.1452 66.0829C27.5498 65.7541 27.0441 65.283 26.6728 64.7112C26.3015 64.1394 26.0759 63.4844 26.0161 62.8042C25.9562 62.124 26.064 61.4394 26.3297 60.811C26.5955 60.1825 27.0111 59.6295 27.5399 59.2008L55.103 36.9086C55.9575 36.2186 57.0496 35.8976 58.1394 36.0162C59.2292 36.1348 60.2277 36.6833 60.9155 37.5413H60.9145ZM98.6033 37.8697C99.8593 35.9531 102.422 35.4228 104.329 36.6854L133.264 55.8402C134.413 56.6013 135.111 57.8871 135.115 59.2715C135.119 59.9526 134.958 60.6244 134.645 61.2284C134.332 61.8325 133.877 62.3504 133.319 62.7372L105.656 81.8102C104.752 82.4329 103.638 82.6692 102.561 82.4674C101.483 82.2656 100.529 81.6421 99.9083 80.7338C98.6162 78.8414 99.0966 76.2549 100.979 74.9654L123.57 59.3906L99.7713 43.6354C97.8646 42.3737 97.3371 39.7966 98.593 37.88L98.6033 37.8697ZM87.4568 28.1043C89.6836 28.6123 91.0775 30.8397 90.5712 33.0773L77.9791 88.7649C77.4728 91.0025 75.2579 92.4046 73.032 91.8957C70.806 91.3867 69.4111 89.1603 69.9174 86.9227L82.5106 31.2351C83.0159 28.9975 85.2317 27.5954 87.4568 28.1043Z" fill="#3B82F6"/>
</svg>
