<svg width="450" height="400" viewBox="0 0 450 400" fill="none" xmlns="http://www.w3.org/2000/svg">
<path d="M44 400V320H124C124 369.412 70.6667 393.922 44 400Z" fill="white"/>
<path d="M432.687 0H17.313C7.75623 0 0 7.36616 0 16.4531V303.548C0 312.625 7.74634 320 17.313 320H432.687C442.244 320 450 312.635 450 303.548V16.4531C450 7.37592 442.254 0 432.687 0V0Z" fill="white"/>
<path d="M217.912 62H224.628C225.128 62 225.53 62.739 225.53 63.6504V68.1502C225.53 69.0605 225.128 69.7996 224.628 69.7996H217.912C217.412 69.7996 217.01 69.0615 217.01 68.1502V63.6504C217.01 62.74 217.412 62 217.912 62ZM398.95 62H429.099C429.593 62 430 62.739 430 63.6504V68.1502C430 69.0605 429.588 69.7996 429.099 69.7996H398.95C398.456 69.7996 398.049 69.0615 398.049 68.1502V63.6504C398.049 62.74 398.461 62 398.95 62ZM341.446 62H371.589C372.088 62 372.49 62.739 372.49 63.6504V68.1502C372.49 69.0605 372.088 69.7996 371.589 69.7996H341.446C340.946 69.7996 340.544 69.0615 340.544 68.1502V63.6504C340.544 62.74 340.946 62 341.446 62ZM377.657 62H392.893C393.393 62 393.794 62.739 393.794 63.6504V68.1502C393.794 69.0605 393.393 69.7996 392.893 69.7996H377.657C377.162 69.7996 376.755 69.0615 376.755 68.1502V63.6504C376.755 62.74 377.167 62 377.657 62ZM428.187 93.2012H218.803C217.809 93.2012 217 94.6695 217 96.5V292.701C217 294.522 217.809 296 218.803 296H428.187C429.181 296 429.99 294.532 429.99 292.701V96.5C429.99 94.6774 429.181 93.2012 428.187 93.2012Z" fill="#D3DBFF"/>
<path d="M0.0100098 16.456C0.0100098 7.36907 7.75635 0 17.323 0H431.816C441.373 0 449.13 7.36907 449.13 16.456V36.1954H0.0100098V16.456Z" fill="#D3DBFF"/>
<path d="M25.5342 26.3239C30.0851 26.3239 33.7456 22.8257 33.7456 18.5097C33.7456 14.1937 30.0653 10.6946 25.5342 10.6946C21.0032 10.6946 17.323 14.1937 17.323 18.5097C17.323 22.8257 21.0032 26.3239 25.5342 26.3239V26.3239Z" fill="#FF5645"/>
<path d="M52.3547 26.3239C56.9055 26.3239 60.5659 22.8257 60.5659 18.5097C60.5659 14.1937 56.8857 10.6946 52.3547 10.6946C47.8236 10.6946 44.1433 14.1937 44.1433 18.5097C44.1433 22.8257 47.8236 26.3239 52.3547 26.3239V26.3239Z" fill="#FFCB3D"/>
<path d="M80.0556 26.3239C84.5867 26.3239 88.2668 22.8257 88.2668 18.5097C88.2668 14.1937 84.5768 10.6946 80.0556 10.6946C75.5048 10.6946 71.8442 14.1937 71.8442 18.5097C71.8442 22.8257 75.5245 26.3239 80.0556 26.3239V26.3239Z" fill="#3ABF7C"/>
<g clip-path="url(#clip0)">
<path d="M177.781 93.9966C174.527 90.7422 169.251 90.7419 165.997 93.9966C162.974 97.0193 158.409 101.585 155.419 104.574L157.693 108.321L161.311 110.467L171.171 106.162L177.781 93.9966Z" fill="#7174FC"/>
<path d="M149.526 122.252L152.277 115.335L143.634 116.359C140.946 119.048 97.8587 162.135 95.1646 164.829V176.614L127.277 148.668L149.526 122.252Z" fill="#EDF1FA"/>
<path d="M95.1646 176.614H106.95L155.419 128.144L156.443 119.501L149.527 122.251L95.1646 176.614Z" fill="#E6E6FC"/>
<path d="M81.6535 148.877C86.3946 144.136 92.415 141.243 99.0641 140.511L102.267 140.158L107.094 107.002H102.277C85.5829 107.002 69.8878 113.503 58.0835 125.307L72.9384 140.158L81.6535 148.877Z" fill="#3B82F6" fill-opacity="0.25"/>
<path d="M81.6534 148.877L58.0834 125.307C46.2791 137.112 39.7778 152.807 39.7778 169.501H56.3581H73.1108C73.1108 161.71 76.1446 154.386 81.6534 148.877Z" fill="#3B82F6" fill-opacity="0.4"/>
<path d="M73.1108 169.501H39.7778C39.7778 186.195 46.2789 201.89 58.0834 213.695L70.5001 201.278L81.6534 190.125C76.1446 184.616 73.1108 177.291 73.1108 169.501Z" fill="#3B82F6" fill-opacity="0.55"/>
<path d="M81.6535 190.125L58.0835 213.695C69.8878 225.499 85.5829 232 102.277 232V214.932V198.667C94.4864 198.667 87.1623 195.634 81.6535 190.125Z" fill="#3B82F6" fill-opacity="0.7"/>
<path d="M102.277 198.667V232C118.971 232 134.666 225.499 146.471 213.695L134.383 201.278L122.901 190.125C117.392 195.634 110.068 198.667 102.277 198.667Z" fill="#3B82F6" fill-opacity="0.85"/>
<path d="M164.776 164.684L131.242 169.565V172.933C130.471 179.495 127.59 185.435 122.901 190.125L146.471 213.695C158.275 201.89 164.776 186.195 164.776 169.501V164.684Z" fill="#3B82F6"/>
<path d="M177.781 93.9966L161.311 110.467L163.318 114.224L167.211 116.352C170.176 113.386 174.753 108.81 177.782 105.781C181.036 102.527 181.036 97.251 177.781 93.9966V93.9966Z" fill="#3B82F6"/>
<path d="M146.589 95.7449C145.172 97.1618 136.226 106.108 134.804 107.53L149.526 122.252C153.312 121.313 156.26 120.581 160.61 119.502L161.311 110.467L146.589 95.7449Z" fill="#7174FC"/>
<path d="M149.527 122.252L164.248 136.974C165.665 135.557 174.612 126.61 176.034 125.189L161.311 110.467L149.527 122.252Z" fill="#3B82F6"/>
</g>
<path fill-rule="evenodd" clip-rule="evenodd" d="M360.26 171.754C365.701 171.754 370.103 167.557 370.103 162.377C370.103 157.197 365.701 153 360.26 153C354.818 153 350.406 157.197 350.406 162.377C350.406 167.557 354.818 171.754 360.26 171.754ZM360.833 228.534H336.18L331.461 228.589L331.5 228.534H271.943C270.163 228.534 269.47 227.372 270.44 225.928L312.288 162.488C313.237 161.047 314.801 161.018 315.78 162.42L346.152 206.259L357.549 188.94C358.499 187.505 360.081 187.466 361.091 188.854L387.406 224.938C388.416 226.324 387.782 227.489 386.021 227.541L362.575 228.226L360.645 228.25L360.824 228.536L360.833 228.534Z" fill="white"/>
<path d="M17 258C17 255.791 18.7909 254 21 254H188C190.209 254 192 255.791 192 258V292C192 294.209 190.209 296 188 296H21C18.7909 296 17 294.209 17 292V258Z" fill="#D3DBFF"/>
<defs>
<clipPath id="clip0">
<rect width="158" height="158" fill="white" transform="translate(31 74)"/>
</clipPath>
</defs>
</svg>
