<svg width="450" height="400" viewBox="0 0 450 400" fill="none" xmlns="http://www.w3.org/2000/svg">
<g clip-path="url(#clip0_2162_5183)">
<path d="M44 400V320H124C124 369.412 70.6667 393.922 44 400Z" fill="white"/>
<path d="M432.687 0H17.313C7.75623 0 0 7.36616 0 16.4531V303.548C0 312.625 7.74634 320 17.313 320H432.687C442.244 320 450 312.635 450 303.548V16.4531C450 7.37592 442.254 0 432.687 0Z" fill="white"/>
<path d="M22.2002 62.2207H35.1009C36.0605 62.2207 36.8322 62.9576 36.8322 63.8663V68.3531C36.8322 69.2608 36.0605 69.9977 35.1009 69.9977H22.2002C21.2405 69.9977 20.4689 69.2618 20.4689 68.3531V63.8663C20.4689 62.9585 21.2405 62.2207 22.2002 62.2207ZM369.915 62.2207H427.819C428.769 62.2207 429.551 62.9576 429.551 63.8663V68.3531C429.551 69.2608 428.759 69.9977 427.819 69.9977H369.915C368.965 69.9977 368.183 69.2618 368.183 68.3531V63.8663C368.183 62.9585 368.975 62.2207 369.915 62.2207ZM259.468 62.2207H317.362C318.322 62.2207 319.094 62.9576 319.094 63.8663V68.3531C319.094 69.2608 318.322 69.9977 317.362 69.9977H259.468C258.508 69.9977 257.736 69.2618 257.736 68.3531V63.8663C257.736 62.9585 258.508 62.2207 259.468 62.2207ZM329.016 62.2207H358.28C359.24 62.2207 360.012 62.9576 360.012 63.8663V68.3531C360.012 69.2608 359.24 69.9977 358.28 69.9977H329.016C328.067 69.9977 327.285 69.2618 327.285 68.3531V63.8663C327.285 62.9585 328.077 62.2207 329.016 62.2207ZM426.068 93.3319H23.9118C22.0024 93.3319 20.4492 94.7959 20.4492 96.6211V292.256C20.4492 294.072 22.0024 295.545 23.9118 295.545H426.068C427.978 295.545 429.531 294.081 429.531 292.256V96.6211C429.531 94.8037 427.978 93.3319 426.068 93.3319Z" fill="#D3DBFF"/>
<path d="M0.00976562 16.456C0.00976562 7.36907 7.75611 0 17.3228 0H431.816C441.373 0 449.13 7.36907 449.13 16.456V36.1954H0.00976562V16.456Z" fill="#D3DBFF"/>
<path d="M25.5344 26.3241C30.0853 26.3241 33.7458 22.8259 33.7458 18.5099C33.7458 14.1939 30.0655 10.6948 25.5344 10.6948C21.0034 10.6948 17.3232 14.1939 17.3232 18.5099C17.3232 22.8259 21.0034 26.3241 25.5344 26.3241Z" fill="#FF5645"/>
<path d="M52.355 26.3241C56.9058 26.3241 60.5662 22.8259 60.5662 18.5099C60.5662 14.1939 56.886 10.6948 52.355 10.6948C47.8239 10.6948 44.1436 14.1939 44.1436 18.5099C44.1436 22.8259 47.8239 26.3241 52.355 26.3241Z" fill="#FFCB3D"/>
<path d="M80.0552 26.3241C84.5863 26.3241 88.2663 22.8259 88.2663 18.5099C88.2663 14.1939 84.5764 10.6948 80.0552 10.6948C75.5044 10.6948 71.8438 14.1939 71.8438 18.5099C71.8438 22.8259 75.5241 26.3241 80.0552 26.3241Z" fill="#3ABF7C"/>
<path d="M193.464 111.667H211.543V119.243H201.024V126.82H211.543V134.397H193.464V111.667Z" fill="#3B82F6"/>
<path d="M215.159 111.667H233.239V118.255H222.72V119.573H233.239V134.726H215.159V127.808H225.678V126.491H215.159V111.667Z" fill="#3B82F6"/>
<path d="M236.854 111.667H254.933V118.255H244.415V119.573H254.933V134.726H236.854V127.808H247.373V126.491H236.854V111.667Z" fill="#3B82F6"/>
<path fill-rule="evenodd" clip-rule="evenodd" d="M224.938 280.334L176.245 266.786L161.888 144.815H288.111L273.765 266.767L224.938 280.334ZM190.269 200.026L191.607 214.985H243.339L241.606 234.386L224.958 238.889L224.943 238.894L208.319 234.396L207.257 222.465H192.273L194.364 245.954L224.94 254.46L255.559 245.953L259.291 204.043L259.655 200.026L262.35 169.748H187.582L188.938 184.707H245.992L244.634 200.026H190.269Z" fill="#3B82F6"/>
</g>
<defs>
<clipPath id="clip0_2162_5183">
<rect width="450" height="400" fill="white"/>
</clipPath>
</defs>
</svg>
