<svg width="450" height="400" viewBox="0 0 450 400" fill="none" xmlns="http://www.w3.org/2000/svg">
<g clip-path="url(#clip0_2162_5183)">
<path d="M44 400V320H124C124 369.412 70.6667 393.922 44 400Z" fill="white"/>
<path d="M432.687 0H17.313C7.75623 0 0 7.36616 0 16.4531V303.548C0 312.625 7.74634 320 17.313 320H432.687C442.244 320 450 312.635 450 303.548V16.4531C450 7.37592 442.254 0 432.687 0Z" fill="white"/>
<path d="M22.2002 62.2207H35.1009C36.0605 62.2207 36.8322 62.9576 36.8322 63.8663V68.3531C36.8322 69.2608 36.0605 69.9977 35.1009 69.9977H22.2002C21.2405 69.9977 20.4689 69.2618 20.4689 68.3531V63.8663C20.4689 62.9585 21.2405 62.2207 22.2002 62.2207ZM369.915 62.2207H427.819C428.769 62.2207 429.551 62.9576 429.551 63.8663V68.3531C429.551 69.2608 428.759 69.9977 427.819 69.9977H369.915C368.965 69.9977 368.183 69.2618 368.183 68.3531V63.8663C368.183 62.9585 368.975 62.2207 369.915 62.2207ZM259.468 62.2207H317.362C318.322 62.2207 319.094 62.9576 319.094 63.8663V68.3531C319.094 69.2608 318.322 69.9977 317.362 69.9977H259.468C258.508 69.9977 257.736 69.2618 257.736 68.3531V63.8663C257.736 62.9585 258.508 62.2207 259.468 62.2207ZM329.016 62.2207H358.28C359.24 62.2207 360.012 62.9576 360.012 63.8663V68.3531C360.012 69.2608 359.24 69.9977 358.28 69.9977H329.016C328.067 69.9977 327.285 69.2618 327.285 68.3531V63.8663C327.285 62.9585 328.077 62.2207 329.016 62.2207ZM426.068 93.3319H23.9118C22.0024 93.3319 20.4492 94.7959 20.4492 96.6211V292.256C20.4492 294.072 22.0024 295.545 23.9118 295.545H426.068C427.978 295.545 429.531 294.081 429.531 292.256V96.6211C429.531 94.8037 427.978 93.3319 426.068 93.3319Z" fill="#D3DBFF"/>
<path d="M0.00976562 16.456C0.00976562 7.36907 7.75611 0 17.3228 0H431.816C441.373 0 449.13 7.36907 449.13 16.456V36.1954H0.00976562V16.456Z" fill="#D3DBFF"/>
<path d="M25.5344 26.3241C30.0853 26.3241 33.7458 22.8259 33.7458 18.5099C33.7458 14.1939 30.0655 10.6948 25.5344 10.6948C21.0034 10.6948 17.3232 14.1939 17.3232 18.5099C17.3232 22.8259 21.0034 26.3241 25.5344 26.3241Z" fill="#FF5645"/>
<path d="M52.355 26.3241C56.9058 26.3241 60.5662 22.8259 60.5662 18.5099C60.5662 14.1939 56.886 10.6948 52.355 10.6948C47.8239 10.6948 44.1436 14.1939 44.1436 18.5099C44.1436 22.8259 47.8239 26.3241 52.355 26.3241Z" fill="#FFCB3D"/>
<path d="M80.0552 26.3241C84.5863 26.3241 88.2663 22.8259 88.2663 18.5099C88.2663 14.1939 84.5764 10.6948 80.0552 10.6948C75.5044 10.6948 71.8438 14.1939 71.8438 18.5099C71.8438 22.8259 75.5241 26.3241 80.0552 26.3241Z" fill="#3ABF7C"/>
<path d="M304.833 179.373L289.841 177.572C288.308 171.854 286.065 166.451 283.175 161.438L292.495 149.591C293.921 147.77 293.76 144.955 292.113 143.315L276.663 127.86C275.035 126.227 272.215 126.052 270.386 127.477L258.519 136.81C253.526 133.921 248.123 131.677 242.418 130.158L240.624 115.166C240.348 112.875 238.232 111 235.92 111H214.066C211.755 111 209.638 112.875 209.369 115.166L207.568 130.158C201.856 131.683 196.446 133.934 191.454 136.817L179.593 127.497C177.778 126.072 174.956 126.24 173.323 127.873L157.867 143.335C156.241 144.961 156.073 147.784 157.504 149.611L166.818 161.465C163.929 166.465 161.684 171.874 160.159 177.593L145.173 179.387C142.882 179.656 141 181.772 141 184.09V205.943C141 208.255 142.875 210.358 145.173 210.64L160.165 212.441C161.698 218.139 163.935 223.542 166.825 228.541L157.511 240.409C156.093 242.23 156.254 245.045 157.894 246.685L173.323 262.147C174.956 263.773 177.778 263.954 179.593 262.53L191.46 253.19C196.46 256.079 201.863 258.33 207.575 259.849L209.376 274.834C209.651 277.132 211.762 279 214.073 279H235.926C238.245 279 240.355 277.132 240.624 274.834L242.425 259.849C248.143 258.317 253.546 256.072 258.539 253.19L270.407 262.51C272.228 263.934 275.044 263.766 276.678 262.133L292.126 246.671C293.764 245.045 293.932 242.223 292.502 240.389L283.175 228.535C286.071 223.535 288.308 218.133 289.841 212.428L304.827 210.627C307.125 210.351 309 208.255 309 205.93V184.077C309.006 181.752 307.137 179.649 304.833 179.373ZM225.007 236.995C201.809 236.995 183.007 218.193 183.007 194.997C183.007 171.8 201.809 152.998 225.007 152.998C248.204 152.998 267.007 171.8 267.007 194.997C267.007 218.193 248.211 236.995 225.007 236.995Z" fill="#3B82F6"/>
</g>
<defs>
<clipPath id="clip0_2162_5183">
<rect width="450" height="400" fill="white"/>
</clipPath>
</defs>
</svg>
