<svg width="168" height="168" viewBox="141 111 168 168" fill="none" xmlns="http://www.w3.org/2000/svg">
  <g transform="scale(0.75)" transform-origin="225 195">
    <path d="M304.833 179.373L289.841 177.572C288.308 171.854 286.065 166.451 283.175 161.438L292.495 149.591C293.921 147.77 293.76 144.955 292.113 143.315L276.663 127.86C275.035 126.227 272.215 126.052 270.386 127.477L258.519 136.81C253.526 133.921 248.123 131.677 242.418 130.158L240.624 115.166C240.348 112.875 238.232 111 235.92 111H214.066C211.755 111 209.638 112.875 209.369 115.166L207.568 130.158C201.856 131.683 196.446 133.934 191.454 136.817L179.593 127.497C177.778 126.072 174.956 126.24 173.323 127.873L157.867 143.335C156.241 144.961 156.073 147.784 157.504 149.611L166.818 161.465C163.929 166.465 161.684 171.874 160.159 177.593L145.173 179.387C142.882 179.656 141 181.772 141 184.09V205.943C141 208.255 142.875 210.358 145.173 210.64L160.165 212.441C161.698 218.139 163.935 223.542 166.825 228.541L157.511 240.409C156.093 242.23 156.254 245.045 157.894 246.685L173.323 262.147C174.956 263.773 177.778 263.954 179.593 262.53L191.46 253.19C196.46 256.079 201.863 258.33 207.575 259.849L209.376 274.834C209.651 277.132 211.762 279 214.073 279H235.926C238.245 279 240.355 277.132 240.624 274.834L242.425 259.849C248.143 258.317 253.546 256.072 258.539 253.19L270.407 262.51C272.228 263.934 275.044 263.766 276.678 262.133L292.126 246.671C293.764 245.045 293.932 242.223 292.502 240.389L283.175 228.535C286.071 223.535 288.308 218.133 289.841 212.428L304.827 210.627C307.125 210.351 309 208.255 309 205.93V184.077C309.006 181.752 307.137 179.649 304.833 179.373ZM225.007 236.995C201.809 236.995 183.007 218.193 183.007 194.997C183.007 171.8 201.809 152.998 225.007 152.998C248.204 152.998 267.007 171.8 267.007 194.997C267.007 218.193 248.211 236.995 225.007 236.995Z" fill="#3B82F6"/>
  </g>
</svg>