<svg width="160" height="120" viewBox="0 0 160 120" fill="none" xmlns="http://www.w3.org/2000/svg">
<path d="M111.272 20C106.46 20 102.545 23.9142 102.545 28.7272C102.545 30.2328 102.928 31.6494 103.601 32.8872L89.3048 47.184C87.3338 45.6494 84.8669 44.7272 82.1818 44.7272C79.4968 44.7272 77.0298 45.6494 75.0574 47.1826L63.9026 36.0277C64.4146 35.1622 64.7272 34.1672 64.7272 33.0909C64.7272 29.8822 62.1178 27.2728 58.9091 27.2728C55.7003 27.2728 53.0909 29.8822 53.0909 33.0909C53.0909 36.2997 55.7003 38.9091 58.9091 38.9091C59.9854 38.9091 60.9803 38.5963 61.8458 38.0843L73.0008 49.2392C71.4677 51.2117 70.5454 53.6786 70.5454 56.3637C70.5454 59.0488 71.4677 61.5157 73.0008 63.4866L54.5803 81.9083C53.0298 80.5018 50.9803 79.6363 48.7272 79.6363C43.9142 79.6363 40 83.5506 40 88.3637C40 93.1768 43.9142 97.0909 48.7272 97.0909C53.5403 97.0909 57.4546 93.1768 57.4546 88.3637C57.4546 86.8582 57.072 85.4415 56.3986 84.2037L75.0589 65.5432C76.6677 66.7942 78.608 67.632 80.7288 67.8982V82.6763C76.608 83.3717 73.456 86.9557 73.456 91.2728C73.456 96.0858 77.3702 100 82.1832 100C86.9963 100 90.9106 96.0858 90.9106 91.2728C90.9106 86.9571 87.7586 83.3731 83.6378 82.6763V67.8982C85.7586 67.632 87.6989 66.7942 89.3077 65.5432L100.463 76.6982C99.9491 77.5651 99.6363 78.56 99.6363 79.6363C99.6363 82.8451 102.246 85.4546 105.454 85.4546C108.663 85.4546 111.272 82.8451 111.272 79.6363C111.272 76.4277 108.663 73.8182 105.454 73.8182C104.378 73.8182 103.383 74.1309 102.518 74.6429L91.3629 63.488C92.896 61.5157 93.8182 59.0488 93.8182 56.3637C93.8182 53.6786 92.896 51.2117 91.3629 49.2408L105.421 35.1826C106.97 36.5891 109.02 37.4546 111.272 37.4546C116.086 37.4546 120 33.5403 120 28.7272C120 23.9142 116.086 20 111.272 20Z" fill="#3B82F6"/>
</svg>
